<?xml version="1.0" encoding="UTF-8" standalone="no"?>
<svg width="342px" height="62px" viewBox="0 0 342 62" version="1.1" xmlns="http://www.w3.org/2000/svg" xmlns:xlink="http://www.w3.org/1999/xlink">
    <!-- Generator: Sketch 39 (31667) - http://www.bohemiancoding.com/sketch -->
    <title>Charte éthique</title>
    <desc>Created with Sketch.</desc>
    <defs></defs>
    <g id="Page-1" stroke="none" stroke-width="1" fill="none" fill-rule="evenodd">
        <g id="Homepage" transform="translate(-542.000000, -2975.000000)" fill="#FFFFFF">
            <path d="M569.436,2984.076 C569.242666,2984.424 569.097667,2984.84933 569.001,2985.352 C568.904333,2985.85467 568.856,2986.31866 568.856,2986.744 C568.856,2987.98134 569.242663,2988.95766 570.016,2989.673 C570.789337,2990.38834 571.775327,2990.746 572.974,2990.746 C574.21134,2990.746 575.400328,2990.43667 576.541,2989.818 C577.681672,2989.19933 578.686996,2988.397 579.557,2987.411 C580.427004,2986.425 581.113331,2985.32301 581.616,2984.105 C582.118669,2982.88699 582.37,2981.67867 582.37,2980.48 C582.37,2979.62933 582.186335,2978.943 581.819,2978.421 C581.451665,2977.899 580.987669,2977.493 580.427,2977.203 C579.866331,2976.913 579.286336,2976.71 578.687,2976.594 C578.087664,2976.478 577.556002,2976.42 577.092,2976.42 C575.081323,2976.42 572.974011,2976.86466 570.77,2977.754 C568.565989,2978.64334 566.391011,2979.85166 564.245,2981.379 C562.098989,2982.90634 560.059343,2984.69466 558.126,2986.744 C556.192657,2988.79334 554.491341,2990.99732 553.022,2993.356 C551.552659,2995.71468 550.383004,2998.15065 549.513,3000.664 C548.642996,3003.17735 548.208,3005.65199 548.208,3008.088 C548.208,3009.51867 548.372332,3010.82366 548.701,3012.003 C549.029668,3013.18234 549.522663,3014.207 550.18,3015.077 C550.837337,3015.947 551.649329,3016.62366 552.616,3017.107 C553.582671,3017.59034 554.703994,3017.832 555.98,3017.832 C557.642675,3017.832 559.266659,3017.46467 560.852,3016.73 C562.437341,3015.99533 563.858327,3014.99967 565.115,3013.743 C566.371673,3012.48633 567.376996,3011.03634 568.131,3009.393 C568.885004,3007.74966 569.262,3006.03868 569.262,3004.26 C569.262,3002.67466 568.933337,3001.34067 568.276,3000.258 C567.618663,2999.17533 566.439342,2998.634 564.738,2998.634 C563.848662,2998.634 562.998004,2998.866 562.186,2999.33 C561.373996,2999.794 560.60067,3000.36433 559.866,3001.041 C559.13133,3001.71767 558.474003,3002.433 557.894,3003.187 C557.313997,3003.941 556.811335,3004.62733 556.386,3005.246 L555.806,3004.956 C556.463337,3003.95066 557.178663,3002.99367 557.952,3002.085 C558.725337,3001.17633 559.566329,3000.35467 560.475,2999.62 C561.383671,2998.88533 562.379328,2998.30534 563.462,2997.88 C564.544672,2997.45466 565.743327,2997.242 567.058,2997.242 C569.068677,2997.242 570.711994,2997.85099 571.988,2999.069 C573.264006,3000.28701 573.902,3001.88199 573.902,3003.854 C573.902,3006.21268 573.312339,3008.30066 572.133,3010.118 C570.953661,3011.93534 569.426343,3013.46266 567.551,3014.7 C565.675657,3015.93734 563.587678,3016.88466 561.287,3017.542 C558.986322,3018.19934 556.714678,3018.528 554.472,3018.528 C550.605314,3018.528 547.608677,3017.42601 545.482,3015.222 C543.355323,3013.01799 542.292,3010.00202 542.292,3006.174 C542.292,3003.69932 542.813995,3001.22468 543.858,2998.75 C544.902005,2996.27532 546.303658,2993.90701 548.063,2991.645 C549.822342,2989.38299 551.871655,2987.28534 554.211,2985.352 C556.550345,2983.41866 559.01532,2981.73667 561.606,2980.306 C564.19668,2978.87533 566.825987,2977.754 569.494,2976.942 C572.162013,2976.13 574.713988,2975.724 577.15,2975.724 C578.271339,2975.724 579.353995,2975.84 580.398,2976.072 C581.442005,2976.304 582.369996,2976.681 583.182,2977.203 C583.994004,2977.725 584.641664,2978.43066 585.125,2979.32 C585.608336,2980.20934 585.85,2981.31133 585.85,2982.626 C585.85,2984.05667 585.502003,2985.34233 584.806,2986.483 C584.109997,2987.62367 583.211006,2988.58066 582.109,2989.354 C581.006994,2990.12734 579.77934,2990.72666 578.426,2991.152 C577.07266,2991.57734 575.758006,2991.79 574.482,2991.79 C573.669996,2991.79 572.887004,2991.69333 572.133,2991.5 C571.378996,2991.30667 570.712003,2991.007 570.132,2990.601 C569.551997,2990.195 569.078335,2989.673 568.711,2989.035 C568.343665,2988.397 568.16,2987.63334 568.16,2986.744 C568.16,2986.20266 568.237333,2985.66134 568.392,2985.12 C568.546667,2984.57866 568.701333,2984.17267 568.856,2983.902 L569.436,2984.076 Z M571.872,3017.6 L596.174,2977.522 L602.496,2977.232 L583.24,3007.624 L583.356,3007.74 C584.206671,3006.73466 585.163661,3005.56501 586.227,3004.231 C587.290339,3002.89699 588.450327,3001.64034 589.707,3000.461 C590.963673,2999.28166 592.287993,2998.286 593.68,2997.474 C595.072007,2996.662 596.521992,2996.256 598.03,2996.256 C599.26734,2996.256 600.233997,2996.575 600.93,2997.213 C601.626003,2997.851 601.974,2998.80799 601.974,3000.084 C601.974,3001.12801 601.548671,3002.35566 600.698,3003.767 C599.847329,3005.17834 598.919338,3006.61866 597.914,3008.088 C596.908662,3009.55734 595.980671,3010.96866 595.13,3012.322 C594.279329,3013.67534 593.854,3014.816 593.854,3015.744 C593.854,3016.672 594.259996,3017.136 595.072,3017.136 C595.652003,3017.136 596.386662,3016.85567 597.276,3016.295 C598.165338,3015.73433 599.122328,3015.00934 600.147,3014.12 C601.171672,3013.23066 602.215661,3012.22534 603.279,3011.104 C604.342339,3009.98266 605.366995,3008.87101 606.353,3007.769 C607.339005,3006.66699 608.218663,3005.63267 608.992,3004.666 C609.765337,3003.69933 610.364665,3002.926 610.79,3002.346 L611.138,3002.694 C610.132662,3004.00867 608.92434,3005.51666 607.513,3007.218 C606.10166,3008.91934 604.622674,3010.56266 603.076,3012.148 C600.98799,3014.31334 599.209341,3015.86 597.74,3016.788 C596.270659,3017.716 594.762674,3018.18 593.216,3018.18 C591.823993,3018.18 590.809003,3017.774 590.171,3016.962 C589.532997,3016.15 589.214,3015.22201 589.214,3014.178 C589.214,3012.82466 589.639329,3011.46167 590.49,3010.089 C591.340671,3008.71633 592.268662,3007.37267 593.274,3006.058 C594.279338,3004.74333 595.207329,3003.50601 596.058,3002.346 C596.908671,3001.18599 597.334,3000.18067 597.334,2999.33 C597.334,2998.78866 597.179335,2998.373 596.87,2998.083 C596.560665,2997.793 596.212669,2997.648 595.826,2997.648 C594.975329,2997.648 594.018339,2998.00566 592.955,2998.721 C591.891661,2999.43634 590.770339,3000.36433 589.591,3001.505 C588.411661,3002.64567 587.232339,3003.94099 586.053,3005.391 C584.873661,3006.84101 583.752339,3008.29099 582.689,3009.741 C581.625661,3011.19101 580.678337,3012.59266 579.847,3013.946 C579.015663,3015.29934 578.348669,3016.45933 577.846,3017.426 L571.872,3017.6 Z M627.436,2997.532 L633.468,2997.184 C633.119998,2997.88 632.617337,2998.721 631.96,2999.707 C631.302663,3000.693 630.587337,3001.75633 629.814,3002.897 C629.040663,3004.03767 628.257671,3005.21699 627.465,3006.435 C626.672329,3007.65301 625.947337,3008.83233 625.29,3009.973 C624.632663,3011.11367 624.101002,3012.177 623.695,3013.163 C623.288998,3014.149 623.086,3014.99 623.086,3015.686 C623.086,3016.65267 623.569328,3017.136 624.536,3017.136 C625.464005,3017.136 626.720659,3016.59467 628.306,3015.512 C629.891341,3014.42933 631.553991,3012.99868 633.294,3011.22 C634.02867,3010.48533 634.772996,3009.69267 635.527,3008.842 C636.281004,3007.99133 637.005997,3007.15034 637.702,3006.319 C638.398003,3005.48766 639.035997,3004.71434 639.616,3003.999 C640.196003,3003.28366 640.659998,3002.694 641.008,3002.23 L641.414,3002.462 C640.408662,3003.81534 639.248673,3005.31366 637.934,3006.957 C636.619327,3008.60034 635.034009,3010.34999 633.178,3012.206 C631.321991,3014.06201 629.495009,3015.57966 627.697,3016.759 C625.898991,3017.93834 624.110676,3018.528 622.332,3018.528 C621.09466,3018.528 620.13767,3018.209 619.461,3017.571 C618.78433,3016.933 618.446,3016.15 618.446,3015.222 C618.446,3014.91267 618.465333,3014.62267 618.504,3014.352 C618.542667,3014.08133 618.600666,3013.86867 618.678,3013.714 L618.562,3013.714 C617.363327,3015.06734 616.010008,3016.208 614.502,3017.136 C612.993992,3018.064 611.370009,3018.528 609.63,3018.528 C608.701995,3018.528 607.909337,3018.354 607.252,3018.006 C606.594663,3017.658 606.063002,3017.18434 605.657,3016.585 C605.250998,3015.98566 604.951334,3015.309 604.758,3014.555 C604.564666,3013.801 604.468,3013.018 604.468,3012.206 C604.468,3010.31132 604.989995,3008.41668 606.034,3006.522 C607.078005,3004.62732 608.392659,3002.91634 609.978,3001.389 C611.563341,2999.86166 613.332324,2998.62434 615.285,2997.677 C617.237676,2996.72966 619.103324,2996.256 620.882,2996.256 C622.23534,2996.256 623.298663,2996.546 624.072,2997.126 C624.845337,2997.706 625.483331,2998.61466 625.986,2999.852 L627.436,2997.532 Z M610.036,3012.38 C610.036,3013.50134 610.219665,3014.47766 610.587,3015.309 C610.954335,3016.14034 611.737327,3016.556 612.936,3016.556 C613.748004,3016.51733 614.598662,3016.179 615.488,3015.541 C616.377338,3014.903 617.237663,3014.10067 618.069,3013.134 C618.900337,3012.16733 619.692996,3011.09434 620.447,3009.915 C621.201004,3008.73566 621.858331,3007.54667 622.419,3006.348 C622.979669,3005.14933 623.424332,3004.01834 623.753,3002.955 C624.081668,3001.89166 624.246,3000.99267 624.246,3000.258 C624.246,2999.21399 624.052669,2998.402 623.666,2997.822 C623.279331,2997.242 622.525339,2996.952 621.404,2996.952 C620.514662,2996.952 619.615671,2997.22266 618.707,2997.764 C617.798329,2998.30534 616.928337,2999.02066 616.097,2999.91 C615.265663,3000.79934 614.473004,3001.79499 613.719,3002.897 C612.964996,3003.99901 612.317336,3005.12999 611.776,3006.29 C611.234664,3007.45001 610.809335,3008.56166 610.5,3009.625 C610.190665,3010.68834 610.036,3011.60666 610.036,3012.38 L610.036,3012.38 Z M629.93,3017.6 C631.90201,3014.19732 633.90299,3010.81402 635.933,3007.45 C637.96301,3004.08598 639.983323,3000.66402 641.994,2997.184 L648.606,2996.952 L640.95,3007.74 L641.066,3007.856 C642.535341,3006.03866 643.840328,3004.57901 644.981,3003.477 C646.121672,3002.37499 647.117329,3001.476 647.968,3000.78 C648.818671,3000.084 649.533997,2999.55234 650.114,2999.185 C650.694003,2998.81766 651.119332,2998.49867 651.39,2998.228 C651.815335,2997.80266 652.211665,2997.46433 652.579,2997.213 C652.946335,2996.96167 653.381331,2996.76833 653.884,2996.633 C654.386669,2996.49767 654.995663,2996.41067 655.711,2996.372 C656.426337,2996.33333 657.325328,2996.29467 658.408,2996.256 C657.67333,2997.30001 656.99667,2998.39233 656.378,2999.533 C655.75933,3000.67367 655.45,3001.90133 655.45,3003.216 C655.45,3004.87867 656.281325,3005.71 657.944,3005.71 C658.485336,3005.71 659.016997,3005.594 659.539,3005.362 C660.061003,3005.13 660.553998,3004.84 661.018,3004.492 C661.482002,3004.144 661.926665,3003.767 662.352,3003.361 C662.777335,3002.955 663.163998,3002.578 663.512,3002.23 L663.744,3002.52 C662.661328,3003.87334 661.385341,3004.97533 659.916,3005.826 C658.446659,3006.67667 656.842009,3007.102 655.102,3007.102 C653.555326,3007.102 652.337338,3006.696 651.448,3005.884 C650.558662,3005.072 650.114,3003.87334 650.114,3002.288 C650.114,3001.28266 650.403997,3000.33534 650.984,2999.446 L650.868,2999.33 C649.243992,3000.41267 647.697341,3001.66933 646.228,3003.1 C644.758659,3004.53067 643.395673,3006.03866 642.139,3007.624 C640.882327,3009.20934 639.722339,3010.84299 638.659,3012.525 C637.595661,3014.20701 636.638671,3015.84066 635.788,3017.426 L629.93,3017.6 Z M660.09,2998.228 L660.496,2997.184 L664.962,2997.184 L669.312,2989.876 L675.576,2989.644 L670.762,2997.184 L678.128,2997.184 L677.606,2998.228 L670.124,2998.228 C668.383991,3001.08935 666.914673,3003.49632 665.716,3005.449 C664.517327,3007.40168 663.560337,3009.02566 662.845,3010.321 C662.129663,3011.61634 661.607668,3012.65066 661.279,3013.424 C660.950332,3014.19734 660.786,3014.874 660.786,3015.454 C660.786,3015.95667 660.921332,3016.36267 661.192,3016.672 C661.462668,3016.98133 661.849331,3017.136 662.352,3017.136 C663.318672,3017.136 664.594659,3016.643 666.18,3015.657 C667.765341,3014.671 669.466658,3013.30801 671.284,3011.568 C672.52134,3010.33066 673.874659,3008.88067 675.344,3007.218 C676.813341,3005.55533 678.185994,3003.87334 679.462,3002.172 L679.81,3002.462 C678.920662,3003.62201 677.79934,3005.03333 676.446,3006.696 C675.09266,3008.35867 673.604008,3010.00199 671.98,3011.626 C671.090662,3012.51534 670.172338,3013.35633 669.225,3014.149 C668.277662,3014.94167 667.320672,3015.63766 666.354,3016.237 C665.387328,3016.83634 664.440005,3017.31 663.512,3017.658 C662.583995,3018.006 661.675338,3018.18 660.786,3018.18 C659.54866,3018.18 658.466005,3017.89967 657.538,3017.339 C656.609995,3016.77833 656.146,3015.80201 656.146,3014.41 C656.146,3013.40466 656.358665,3012.37034 656.784,3011.307 C657.209335,3010.24366 657.798996,3009.07401 658.553,3007.798 C659.307004,3006.52199 660.186662,3005.11067 661.192,3003.564 C662.197338,3002.01733 663.279994,3000.23868 664.44,2998.228 L660.09,2998.228 Z M703.822,3002.404 C702.623327,3004.02801 701.337674,3005.63266 699.965,3007.218 C698.592326,3008.80334 696.958676,3010.46599 695.064,3012.206 C692.395987,3014.60335 689.834346,3016.25633 687.379,3017.165 C684.923654,3018.07367 682.613344,3018.528 680.448,3018.528 C678.243989,3018.528 676.504006,3017.87067 675.228,3016.556 C673.951994,3015.24133 673.314,3013.54001 673.314,3011.452 C673.314,3009.59599 673.874661,3007.75934 674.996,3005.942 C676.117339,3004.12466 677.528658,3002.50067 679.23,3001.07 C680.931342,2999.63933 682.79699,2998.47934 684.827,2997.59 C686.85701,2996.70066 688.780658,2996.256 690.598,2996.256 C692.260675,2996.256 693.555995,2996.575 694.484,2997.213 C695.412005,2997.851 695.876,2998.74999 695.876,2999.91 C695.876,3000.838 695.557003,3001.68866 694.919,3002.462 C694.280997,3003.23534 693.459338,3003.93133 692.454,3004.55 C691.448662,3005.16867 690.317673,3005.71 689.061,3006.174 C687.804327,3006.638 686.55734,3007.044 685.32,3007.392 C684.08266,3007.74 682.922672,3008.03 681.84,3008.262 C680.757328,3008.494 679.868003,3008.68733 679.172,3008.842 C678.978666,3009.61534 678.882,3010.31133 678.882,3010.93 C678.882,3012.59267 679.345995,3013.94599 680.274,3014.99 C681.202005,3016.03401 682.497325,3016.556 684.16,3016.556 C685.784008,3016.556 687.572324,3016.07267 689.525,3015.106 C691.477676,3014.13933 693.43999,3012.72801 695.412,3010.872 C696.920008,3009.44133 698.369993,3007.94301 699.762,3006.377 C701.154007,3004.81099 702.371995,3003.35134 703.416,3001.998 L703.822,3002.404 Z M691.236,2998.46 C691.236,2997.91866 691.091001,2997.532 690.801,2997.3 C690.510999,2997.068 690.134002,2996.952 689.67,2996.952 C688.703328,2996.952 687.659339,2997.358 686.538,2998.17 C685.416661,2998.982 684.363005,2999.97766 683.377,3001.157 C682.390995,3002.33634 681.521004,3003.57366 680.767,3004.869 C680.012996,3006.16434 679.520001,3007.29533 679.288,3008.262 C680.873341,3007.95267 682.381326,3007.44034 683.812,3006.725 C685.242674,3006.00966 686.508994,3005.19767 687.611,3004.289 C688.713006,3003.38033 689.592663,3002.41367 690.25,3001.389 C690.907337,3000.36433 691.236,2999.388 691.236,2998.46 L691.236,2998.46 Z M742.972,3002.404 C741.773327,3004.02801 740.487674,3005.63266 739.115,3007.218 C737.742326,3008.80334 736.108676,3010.46599 734.214,3012.206 C731.545987,3014.60335 728.984346,3016.25633 726.529,3017.165 C724.073654,3018.07367 721.763344,3018.528 719.598,3018.528 C717.393989,3018.528 715.654006,3017.87067 714.378,3016.556 C713.101994,3015.24133 712.464,3013.54001 712.464,3011.452 C712.464,3009.59599 713.024661,3007.75934 714.146,3005.942 C715.267339,3004.12466 716.678658,3002.50067 718.38,3001.07 C720.081342,2999.63933 721.94699,2998.47934 723.977,2997.59 C726.00701,2996.70066 727.930658,2996.256 729.748,2996.256 C731.410675,2996.256 732.705995,2996.575 733.634,2997.213 C734.562005,2997.851 735.026,2998.74999 735.026,2999.91 C735.026,3000.838 734.707003,3001.68866 734.069,3002.462 C733.430997,3003.23534 732.609338,3003.93133 731.604,3004.55 C730.598662,3005.16867 729.467673,3005.71 728.211,3006.174 C726.954327,3006.638 725.70734,3007.044 724.47,3007.392 C723.23266,3007.74 722.072672,3008.03 720.99,3008.262 C719.907328,3008.494 719.018003,3008.68733 718.322,3008.842 C718.128666,3009.61534 718.032,3010.31133 718.032,3010.93 C718.032,3012.59267 718.495995,3013.94599 719.424,3014.99 C720.352005,3016.03401 721.647325,3016.556 723.31,3016.556 C724.934008,3016.556 726.722324,3016.07267 728.675,3015.106 C730.627676,3014.13933 732.58999,3012.72801 734.562,3010.872 C736.070008,3009.44133 737.519993,3007.94301 738.912,3006.377 C740.304007,3004.81099 741.521995,3003.35134 742.566,3001.998 L742.972,3002.404 Z M730.386,2998.46 C730.386,2997.91866 730.241001,2997.532 729.951,2997.3 C729.660999,2997.068 729.284002,2996.952 728.82,2996.952 C727.853329,2996.952 726.809339,2997.358 725.688,2998.17 C724.566661,2998.982 723.513005,2999.97766 722.527,3001.157 C721.540995,3002.33634 720.671004,3003.57366 719.917,3004.869 C719.162996,3006.16434 718.670001,3007.29533 718.438,3008.262 C720.023341,3007.95267 721.531326,3007.44034 722.962,3006.725 C724.392674,3006.00966 725.658994,3005.19767 726.761,3004.289 C727.863006,3003.38033 728.742663,3002.41367 729.4,3001.389 C730.057337,3000.36433 730.386,2999.388 730.386,2998.46 L730.386,2998.46 Z M738.622,2985.236 C738.622,2986.12534 738.25467,2987.063 737.52,2988.049 C736.78533,2989.035 735.925005,2989.95333 734.939,2990.804 C733.952995,2991.65467 732.996005,2992.35066 732.068,2992.892 C731.139995,2993.43334 730.463335,2993.704 730.038,2993.704 C729.805999,2993.704 729.69,2993.56867 729.69,2993.298 C729.69,2993.10467 729.912331,2992.82434 730.357,2992.457 C730.801669,2992.08966 731.313997,2991.62567 731.894,2991.065 C732.474003,2990.50433 733.044331,2989.876 733.605,2989.18 C734.165669,2988.484 734.542666,2987.71067 734.736,2986.86 C734.813334,2986.55067 734.909999,2986.193 735.026,2985.787 C735.142001,2985.381 735.277333,2985.004 735.432,2984.656 C735.586667,2984.308 735.779999,2984.00833 736.012,2983.757 C736.244001,2983.50567 736.495332,2983.38 736.766,2983.38 C737.346003,2983.38 737.800332,2983.554 738.129,2983.902 C738.457668,2984.25 738.622,2984.69466 738.622,2985.236 L738.622,2985.236 Z M738.97,2998.228 L739.376,2997.184 L743.842,2997.184 L748.192,2989.876 L754.456,2989.644 L749.642,2997.184 L757.008,2997.184 L756.486,2998.228 L749.004,2998.228 C747.263991,3001.08935 745.794673,3003.49632 744.596,3005.449 C743.397327,3007.40168 742.440337,3009.02566 741.725,3010.321 C741.009663,3011.61634 740.487668,3012.65066 740.159,3013.424 C739.830332,3014.19734 739.666,3014.874 739.666,3015.454 C739.666,3015.95667 739.801332,3016.36267 740.072,3016.672 C740.342668,3016.98133 740.729331,3017.136 741.232,3017.136 C742.198672,3017.136 743.474659,3016.643 745.06,3015.657 C746.645341,3014.671 748.346658,3013.30801 750.164,3011.568 C751.40134,3010.33066 752.754659,3008.88067 754.224,3007.218 C755.693341,3005.55533 757.065994,3003.87334 758.342,3002.172 L758.69,3002.462 C757.800662,3003.62201 756.67934,3005.03333 755.326,3006.696 C753.97266,3008.35867 752.484008,3010.00199 750.86,3011.626 C749.970662,3012.51534 749.052338,3013.35633 748.105,3014.149 C747.157662,3014.94167 746.200671,3015.63766 745.234,3016.237 C744.267329,3016.83634 743.320005,3017.31 742.392,3017.658 C741.463995,3018.006 740.555338,3018.18 739.666,3018.18 C738.42866,3018.18 737.346005,3017.89967 736.418,3017.339 C735.489995,3016.77833 735.026,3015.80201 735.026,3014.41 C735.026,3013.40466 735.238665,3012.37034 735.664,3011.307 C736.089335,3010.24366 736.678996,3009.07401 737.433,3007.798 C738.187004,3006.52199 739.066662,3005.11067 740.072,3003.564 C741.077338,3002.01733 742.159994,3000.23868 743.32,2998.228 L738.97,2998.228 Z M747.438,3017.6 L771.74,2977.522 L778.062,2977.232 L758.806,3007.624 L758.922,3007.74 C759.772671,3006.73466 760.729661,3005.56501 761.793,3004.231 C762.856339,3002.89699 764.016327,3001.64034 765.273,3000.461 C766.529673,2999.28166 767.853993,2998.286 769.246,2997.474 C770.638007,2996.662 772.087992,2996.256 773.596,2996.256 C774.83334,2996.256 775.799997,2996.575 776.496,2997.213 C777.192003,2997.851 777.54,2998.80799 777.54,3000.084 C777.54,3001.12801 777.114671,3002.35566 776.264,3003.767 C775.413329,3005.17834 774.485338,3006.61866 773.48,3008.088 C772.474662,3009.55734 771.546671,3010.96866 770.696,3012.322 C769.845329,3013.67534 769.42,3014.816 769.42,3015.744 C769.42,3016.672 769.825996,3017.136 770.638,3017.136 C771.218003,3017.136 771.952662,3016.85567 772.842,3016.295 C773.731338,3015.73433 774.688328,3015.00934 775.713,3014.12 C776.737672,3013.23066 777.781661,3012.22534 778.845,3011.104 C779.908339,3009.98266 780.932995,3008.87101 781.919,3007.769 C782.905005,3006.66699 783.784663,3005.63267 784.558,3004.666 C785.331337,3003.69933 785.930665,3002.926 786.356,3002.346 L786.704,3002.694 C785.698662,3004.00867 784.49034,3005.51666 783.079,3007.218 C781.66766,3008.91934 780.188674,3010.56266 778.642,3012.148 C776.55399,3014.31334 774.775341,3015.86 773.306,3016.788 C771.836659,3017.716 770.328674,3018.18 768.782,3018.18 C767.389993,3018.18 766.375003,3017.774 765.737,3016.962 C765.098997,3016.15 764.78,3015.22201 764.78,3014.178 C764.78,3012.82466 765.205329,3011.46167 766.056,3010.089 C766.906671,3008.71633 767.834662,3007.37267 768.84,3006.058 C769.845338,3004.74333 770.773329,3003.50601 771.624,3002.346 C772.474671,3001.18599 772.9,3000.18067 772.9,2999.33 C772.9,2998.78866 772.745335,2998.373 772.436,2998.083 C772.126665,2997.793 771.778669,2997.648 771.392,2997.648 C770.541329,2997.648 769.584339,2998.00566 768.521,2998.721 C767.457661,2999.43634 766.336339,3000.36433 765.157,3001.505 C763.977661,3002.64567 762.798339,3003.94099 761.619,3005.391 C760.439661,3006.84101 759.318339,3008.29099 758.255,3009.741 C757.191661,3011.19101 756.244337,3012.59266 755.413,3013.946 C754.581663,3015.29934 753.914669,3016.45933 753.412,3017.426 L747.438,3017.6 Z M794.244,2997.184 C792.426658,3000.04535 790.860673,3002.49099 789.546,3004.521 C788.231327,3006.55101 787.158337,3008.28133 786.327,3009.712 C785.495663,3011.14267 784.877002,3012.31233 784.471,3013.221 C784.064998,3014.12967 783.862,3014.874 783.862,3015.454 C783.862,3015.918 783.948999,3016.295 784.123,3016.585 C784.297001,3016.875 784.557998,3017.02 784.906,3017.02 C785.679337,3017.02 786.77166,3016.57534 788.183,3015.686 C789.59434,3014.79666 791.363323,3013.26934 793.49,3011.104 C794.340671,3010.21466 795.171996,3009.335 795.984,3008.465 C796.796004,3007.595 797.559663,3006.754 798.275,3005.942 C798.990337,3005.13 799.628331,3004.39534 800.189,3003.738 C800.749669,3003.08066 801.203998,3002.55867 801.552,3002.172 L802.074,3002.52 C801.609998,3003.13867 801.03967,3003.84433 800.363,3004.637 C799.68633,3005.42967 798.961337,3006.261 798.188,3007.131 C797.414663,3008.001 796.622004,3008.86133 795.81,3009.712 C794.997996,3010.56267 794.205337,3011.37466 793.432,3012.148 C791.189322,3014.39068 789.265675,3015.95666 787.661,3016.846 C786.056325,3017.73534 784.57734,3018.18 783.224,3018.18 C781.947994,3018.18 780.962003,3017.832 780.266,3017.136 C779.569997,3016.44 779.222,3015.53134 779.222,3014.41 C779.222,3013.63666 779.366999,3012.83434 779.657,3012.003 C779.947001,3011.17166 780.439997,3010.13734 781.136,3008.9 C781.832003,3007.66266 782.759994,3006.12568 783.92,3004.289 C785.080006,3002.45232 786.529991,3000.18068 788.27,2997.474 L794.244,2997.184 Z M797.608,2984.308 C798.34267,2984.308 798.990331,2984.57866 799.551,2985.12 C800.111669,2985.66134 800.392,2986.29933 800.392,2987.034 C800.392,2987.80734 800.08267,2988.513 799.464,2989.151 C798.84533,2989.789 798.149337,2990.108 797.376,2990.108 C796.525329,2990.108 795.79067,2989.88567 795.172,2989.441 C794.55333,2988.99633 794.244,2988.32934 794.244,2987.44 C794.244,2986.55066 794.58233,2985.80634 795.259,2985.207 C795.93567,2984.60766 796.718662,2984.308 797.608,2984.308 L797.608,2984.308 Z M800.624,3011.974 C800.624,3012.438 800.662666,3012.92133 800.74,3013.424 C800.817334,3013.92667 800.952666,3014.381 801.146,3014.787 C801.339334,3015.193 801.609998,3015.53133 801.958,3015.802 C802.306002,3016.07267 802.750664,3016.208 803.292,3016.208 C804.181338,3016.208 805.080329,3015.918 805.989,3015.338 C806.897671,3014.758 807.777329,3014.004 808.628,3013.076 C809.478671,3012.148 810.280996,3011.09434 811.035,3009.915 C811.789004,3008.73566 812.436664,3007.53701 812.978,3006.319 C813.519336,3005.10099 813.954332,3003.94101 814.283,3002.839 C814.611668,3001.73699 814.776,3000.78 814.776,2999.968 C814.776,2999.07866 814.582669,2998.35367 814.196,2997.793 C813.809331,2997.23233 813.171338,2996.952 812.282,2996.952 C810.889993,2996.952 809.507674,2997.49333 808.135,2998.576 C806.762326,2999.65867 805.515339,3000.98299 804.394,3002.549 C803.272661,3004.11501 802.364003,3005.75832 801.668,3007.479 C800.971997,3009.19968 800.624,3010.69799 800.624,3011.974 L800.624,3011.974 Z M824.404,2997.068 L811.412,3018.702 C813.50001,3018.08333 815.471991,3017.22301 817.328,3016.121 C819.184009,3015.01899 820.943325,3013.74301 822.606,3012.293 C824.268675,3010.84299 825.844326,3009.25768 827.333,3007.537 C828.821674,3005.81632 830.223327,3004.04734 831.538,3002.23 L831.944,3002.578 C830.745327,3004.16334 829.459674,3005.79699 828.087,3007.479 C826.714326,3009.16101 825.187008,3010.77533 823.505,3012.322 C821.822992,3013.86867 819.957344,3015.27999 817.908,3016.556 C815.858656,3017.83201 813.558013,3018.83733 811.006,3019.572 L801.494,3036.16 L795.114,3036.392 C797.550012,3032.40931 799.947322,3028.46535 802.306,3024.56 C804.664678,3020.65465 807.119987,3016.78802 809.672,3012.96 L809.556,3012.844 C808.279994,3014.27467 806.868674,3015.52166 805.322,3016.585 C803.775326,3017.64834 801.996677,3018.18 799.986,3018.18 C799.096662,3018.18 798.34267,3018.01567 797.724,3017.687 C797.10533,3017.35833 796.593002,3016.92334 796.187,3016.382 C795.780998,3015.84066 795.491001,3015.21234 795.317,3014.497 C795.142999,3013.78166 795.056,3013.03734 795.056,3012.264 C795.056,3010.36932 795.548995,3008.47468 796.535,3006.58 C797.521005,3004.68532 798.787326,3002.97434 800.334,3001.447 C801.880674,2999.91966 803.61099,2998.67267 805.525,2997.706 C807.43901,2996.73933 809.323991,2996.256 811.18,2996.256 C812.804008,2996.256 814.050996,2996.59433 814.921,2997.271 C815.791004,2997.94767 816.399998,2999.07866 816.748,3000.664 L816.864,3000.664 L818.372,2997.416 L824.404,2997.068 Z M852.534,2996.952 C851.025992,2999.46535 849.62434,3001.70799 848.329,3003.68 C847.03366,3005.65201 845.922005,3007.40166 844.994,3008.929 C844.065995,3010.45634 843.341003,3011.78066 842.819,3012.902 C842.296997,3014.02334 842.036,3015.00933 842.036,3015.86 C842.036,3016.71067 842.40333,3017.136 843.138,3017.136 C843.602002,3017.136 844.162663,3016.97167 844.82,3016.643 C845.477337,3016.31433 846.17333,3015.889 846.908,3015.367 C847.64267,3014.845 848.396663,3014.236 849.17,3013.54 C849.943337,3012.844 850.677997,3012.148 851.374,3011.452 C852.224671,3010.56266 853.065663,3009.66367 853.897,3008.755 C854.728337,3007.84633 855.501663,3006.96667 856.217,3006.116 C856.932337,3005.26533 857.579997,3004.48234 858.16,3003.767 C858.740003,3003.05166 859.223331,3002.44267 859.61,3001.94 L860.074,3002.288 C859.145995,3003.52534 857.966674,3005.00432 856.536,3006.725 C855.105326,3008.44568 853.578008,3010.13733 851.954,3011.8 C849.98199,3013.81068 848.164675,3015.37666 846.502,3016.498 C844.839325,3017.61934 843.196008,3018.18 841.572,3018.18 C840.411994,3018.18 839.484003,3017.832 838.788,3017.136 C838.091997,3016.44 837.744,3015.57001 837.744,3014.526 C837.744,3013.79133 837.811666,3013.134 837.947,3012.554 C838.082334,3011.974 838.246666,3011.52933 838.44,3011.22 L838.324,3011.104 C837.627997,3011.83867 836.874004,3012.62166 836.062,3013.453 C835.249996,3014.28434 834.380005,3015.048 833.452,3015.744 C832.523995,3016.44 831.528339,3017.02 830.465,3017.484 C829.401661,3017.948 828.25134,3018.18 827.014,3018.18 C825.815327,3018.18 824.90667,3017.803 824.288,3017.049 C823.66933,3016.295 823.36,3015.41534 823.36,3014.41 C823.36,3012.94066 824.152659,3010.81401 825.738,3008.03 C827.323341,3005.24599 829.46932,3001.63069 832.176,2997.184 L838.324,2996.952 C835.269318,3001.63069 832.78501,3005.46832 830.871,3008.465 C828.95699,3011.46168 828,3013.69466 828,3015.164 C828,3015.628 828.125665,3016.01467 828.377,3016.324 C828.628335,3016.63333 828.966665,3016.788 829.392,3016.788 C830.12667,3016.788 831.006328,3016.47867 832.031,3015.86 C833.055672,3015.24133 834.128661,3014.41001 835.25,3013.366 C836.371339,3012.32199 837.482994,3011.12334 838.585,3009.77 C839.687006,3008.41666 840.682662,3007.00534 841.572,3005.536 L846.56,2997.416 L852.534,2996.952 Z M883.622,3002.404 C882.423327,3004.02801 881.137674,3005.63266 879.765,3007.218 C878.392326,3008.80334 876.758676,3010.46599 874.864,3012.206 C872.195987,3014.60335 869.634346,3016.25633 867.179,3017.165 C864.723654,3018.07367 862.413344,3018.528 860.248,3018.528 C858.043989,3018.528 856.304006,3017.87067 855.028,3016.556 C853.751994,3015.24133 853.114,3013.54001 853.114,3011.452 C853.114,3009.59599 853.674661,3007.75934 854.796,3005.942 C855.917339,3004.12466 857.328658,3002.50067 859.03,3001.07 C860.731342,2999.63933 862.59699,2998.47934 864.627,2997.59 C866.65701,2996.70066 868.580658,2996.256 870.398,2996.256 C872.060675,2996.256 873.355995,2996.575 874.284,2997.213 C875.212005,2997.851 875.676,2998.74999 875.676,2999.91 C875.676,3000.838 875.357003,3001.68866 874.719,3002.462 C874.080997,3003.23534 873.259338,3003.93133 872.254,3004.55 C871.248662,3005.16867 870.117673,3005.71 868.861,3006.174 C867.604327,3006.638 866.35734,3007.044 865.12,3007.392 C863.88266,3007.74 862.722672,3008.03 861.64,3008.262 C860.557328,3008.494 859.668003,3008.68733 858.972,3008.842 C858.778666,3009.61534 858.682,3010.31133 858.682,3010.93 C858.682,3012.59267 859.145995,3013.94599 860.074,3014.99 C861.002005,3016.03401 862.297325,3016.556 863.96,3016.556 C865.584008,3016.556 867.372324,3016.07267 869.325,3015.106 C871.277676,3014.13933 873.23999,3012.72801 875.212,3010.872 C876.720008,3009.44133 878.169993,3007.94301 879.562,3006.377 C880.954007,3004.81099 882.171995,3003.35134 883.216,3001.998 L883.622,3002.404 Z M871.036,2998.46 C871.036,2997.91866 870.891001,2997.532 870.601,2997.3 C870.310999,2997.068 869.934002,2996.952 869.47,2996.952 C868.503329,2996.952 867.459339,2997.358 866.338,2998.17 C865.216661,2998.982 864.163005,2999.97766 863.177,3001.157 C862.190995,3002.33634 861.321004,3003.57366 860.567,3004.869 C859.812996,3006.16434 859.320001,3007.29533 859.088,3008.262 C860.673341,3007.95267 862.181326,3007.44034 863.612,3006.725 C865.042674,3006.00966 866.308994,3005.19767 867.411,3004.289 C868.513006,3003.38033 869.392663,3002.41367 870.05,3001.389 C870.707337,3000.36433 871.036,2999.388 871.036,2998.46 L871.036,2998.46 Z" id="Charte-éthique"></path>
        </g>
    </g>
</svg>