<?xml version="1.0" encoding="UTF-8" standalone="no"?>
<svg width="624px" height="442px" viewBox="0 0 624 442" version="1.1" xmlns="http://www.w3.org/2000/svg" xmlns:xlink="http://www.w3.org/1999/xlink">
    <!-- Generator: Sketch 39 (31667) - http://www.bohemiancoding.com/sketch -->
    <title>Group 3</title>
    <desc>Created with Sketch.</desc>
    <defs></defs>
    <g id="Page-1" stroke="none" stroke-width="1" fill="none" fill-rule="evenodd">
        <g id="Homepage" transform="translate(-408.000000, -2230.000000)">
            <g id="Group-3" transform="translate(408.000000, 2230.000000)">
                <path d="M85.632,417.192 L89.1,417.192 L89.1,437.932 L95.968,437.932 L95.968,441.4 L85.632,441.4 L85.632,417.192 Z M98.212,417.192 L108.548,417.192 L108.548,420.456 L101.68,420.456 L101.68,427.8 L107.664,427.8 L107.664,431.064 L101.68,431.064 L101.68,441.4 L98.212,441.4 L98.212,417.192 Z M122.012,424.162 L118.544,424.162 L118.544,423.38 C118.544,422.586663 118.357002,421.901003 117.983,421.323 C117.608998,420.744997 116.980004,420.456 116.096,420.456 C115.619998,420.456 115.229002,420.546666 114.923,420.728 C114.616998,420.909334 114.379001,421.141665 114.209,421.425 C114.038999,421.708335 113.92,422.036998 113.852,422.411 C113.784,422.785002 113.75,423.175998 113.75,423.584 C113.75,424.060002 113.767,424.462332 113.801,424.791 C113.835,425.119668 113.919999,425.402999 114.056,425.641 C114.192001,425.879001 114.390332,426.088666 114.651,426.27 C114.911668,426.451334 115.268664,426.632666 115.722,426.814 L118.374,427.868 C119.144671,428.162668 119.767998,428.508331 120.244,428.905 C120.720002,429.301669 121.088332,429.766331 121.349,430.299 C121.609668,430.831669 121.785333,431.443663 121.876,432.135 C121.966667,432.826337 122.012,433.613996 122.012,434.498 C122.012,435.518005 121.910001,436.464329 121.706,437.337 C121.501999,438.209671 121.167669,438.957664 120.703,439.581 C120.238331,440.204336 119.620671,440.697332 118.85,441.06 C118.079329,441.422668 117.138672,441.604 116.028,441.604 C115.189329,441.604 114.407337,441.456668 113.682,441.162 C112.956663,440.867332 112.333336,440.465003 111.812,439.955 C111.290664,439.444997 110.877002,438.83867 110.571,438.136 C110.264998,437.43333 110.112,436.674004 110.112,435.858 L110.112,434.566 L113.58,434.566 L113.58,435.654 C113.58,436.28867 113.766998,436.860997 114.141,437.371 C114.515002,437.881003 115.143996,438.136 116.028,438.136 C116.617336,438.136 117.076332,438.051001 117.405,437.881 C117.733668,437.710999 117.982999,437.473002 118.153,437.167 C118.323001,436.860998 118.430666,436.481336 118.476,436.028 C118.521334,435.574664 118.544,435.076003 118.544,434.532 C118.544,433.89733 118.521334,433.376002 118.476,432.968 C118.430666,432.559998 118.334334,432.231335 118.187,431.982 C118.039666,431.732665 117.835668,431.528667 117.575,431.37 C117.314332,431.211333 116.968669,431.041334 116.538,430.86 L114.056,429.84 C112.559993,429.227997 111.557003,428.417672 111.047,427.409 C110.536997,426.400328 110.282,425.136674 110.282,423.618 C110.282,422.711329 110.406665,421.850004 110.656,421.034 C110.905335,420.217996 111.273664,419.515336 111.761,418.926 C112.248336,418.336664 112.865996,417.866335 113.614,417.515 C114.362004,417.163665 115.234662,416.988 116.232,416.988 C117.093338,416.988 117.880996,417.146665 118.595,417.464 C119.309004,417.781335 119.920997,418.200664 120.431,418.722 C120.941003,419.243336 121.331999,419.826997 121.604,420.473 C121.876001,421.119003 122.012,421.781997 122.012,422.462 L122.012,424.162 Z" id="LFS" fill="#2B72B6"></path>
                <path d="M501.91,420.456 L497.898,420.456 L497.898,417.192 L509.39,417.192 L509.39,420.456 L505.378,420.456 L505.378,441.4 L501.91,441.4 L501.91,420.456 Z M510.716,422.904 C510.716,421.929328 510.885998,421.068004 511.226,420.32 C511.566002,419.571996 512.013664,418.954336 512.569,418.467 C513.124336,417.979664 513.747663,417.611335 514.439,417.362 C515.130337,417.112665 515.82733,416.988 516.53,416.988 C517.23267,416.988 517.929663,417.112665 518.621,417.362 C519.312337,417.611335 519.935664,417.979664 520.491,418.467 C521.046336,418.954336 521.493998,419.571996 521.834,420.32 C522.174002,421.068004 522.344,421.929328 522.344,422.904 L522.344,435.688 C522.344,436.685338 522.174002,437.55233 521.834,438.289 C521.493998,439.02567 521.046336,439.637664 520.491,440.125 C519.935664,440.612336 519.312337,440.980665 518.621,441.23 C517.929663,441.479335 517.23267,441.604 516.53,441.604 C515.82733,441.604 515.130337,441.479335 514.439,441.23 C513.747663,440.980665 513.124336,440.612336 512.569,440.125 C512.013664,439.637664 511.566002,439.02567 511.226,438.289 C510.885998,437.55233 510.716,436.685338 510.716,435.688 L510.716,422.904 Z M514.184,435.688 C514.184,436.526671 514.416331,437.144331 514.881,437.541 C515.345669,437.937669 515.89533,438.136 516.53,438.136 C517.16467,438.136 517.714331,437.937669 518.179,437.541 C518.643669,437.144331 518.876,436.526671 518.876,435.688 L518.876,422.904 C518.876,422.065329 518.643669,421.447669 518.179,421.051 C517.714331,420.654331 517.16467,420.456 516.53,420.456 C515.89533,420.456 515.345669,420.654331 514.881,421.051 C514.416331,421.447669 514.184,422.065329 514.184,422.904 L514.184,435.688 Z M525.506,417.192 L528.974,417.192 L528.974,441.4 L525.506,441.4 L525.506,417.192 Z" id="TOI" fill="#2B72B6"></path>
                <path d="M266.864,3.58399943 L269.618,3.58399943 C270.122003,3.58399943 270.565998,3.64999877 270.95,3.78199943 C271.334002,3.91400009 271.681998,4.14799775 271.994,4.48399943 C272.306002,4.82000111 272.521999,5.21299718 272.642,5.66299943 C272.762001,6.11300168 272.822,6.72199559 272.822,7.48999943 C272.822,8.05400225 272.789,8.53699742 272.723,8.93899943 C272.657,9.34100144 272.516001,9.71599769 272.3,10.0639994 C272.047999,10.4840015 271.712002,10.8109983 271.292,11.0449994 C270.871998,11.2790006 270.320003,11.3959994 269.636,11.3959994 L268.7,11.3959994 L268.7,16.3999994 L266.864,16.3999994 L266.864,3.58399943 Z M268.7,9.66799943 L269.582,9.66799943 C269.954002,9.66799943 270.241999,9.61399997 270.446,9.50599943 C270.650001,9.39799889 270.8,9.25100036 270.896,9.06499943 C270.992,8.8789985 271.049,8.65400075 271.067,8.38999943 C271.085,8.12599811 271.094,7.83200105 271.094,7.50799943 C271.094,7.20799793 271.085,6.92300078 271.067,6.65299943 C271.049,6.38299808 270.995,6.14900042 270.905,5.95099943 C270.815,5.75299844 270.674001,5.597 270.482,5.48299943 C270.289999,5.36899886 270.014002,5.31199943 269.654,5.31199943 L268.7,5.31199943 L268.7,9.66799943 Z M276.026,9.30799943 L277.07,9.30799943 C277.394002,9.30799943 277.651999,9.26299988 277.844,9.17299943 C278.036001,9.08299898 278.182999,8.95400027 278.285,8.78599943 C278.387001,8.61799859 278.456,8.41100066 278.492,8.16499943 C278.528,7.9189982 278.546,7.63400105 278.546,7.30999943 C278.546,6.98599781 278.528,6.70100066 278.492,6.45499943 C278.456,6.2089982 278.381001,5.9990003 278.267,5.82499943 C278.152999,5.65099856 277.994001,5.52199985 277.79,5.43799943 C277.585999,5.35399901 277.316002,5.31199943 276.98,5.31199943 L276.026,5.31199943 L276.026,9.30799943 Z M274.19,3.58399943 L277.142,3.58399943 C279.302011,3.58399943 280.382,4.83798689 280.382,7.34599943 C280.382,8.09000315 280.265001,8.72899676 280.031,9.26299943 C279.796999,9.7970021 279.386003,10.2259978 278.798,10.5499994 L280.778,16.3999994 L278.834,16.3999994 L277.124,10.9279994 L276.026,10.9279994 L276.026,16.3999994 L274.19,16.3999994 L274.19,3.58399943 Z M281.75,6.60799943 C281.75,6.09199685 281.839999,5.63600141 282.02,5.23999943 C282.200001,4.84399745 282.436999,4.51700072 282.731,4.25899943 C283.025001,4.00099814 283.354998,3.80600009 283.721,3.67399943 C284.087002,3.54199877 284.455998,3.47599943 284.828,3.47599943 C285.200002,3.47599943 285.568998,3.54199877 285.935,3.67399943 C286.301002,3.80600009 286.630999,4.00099814 286.925,4.25899943 C287.219001,4.51700072 287.455999,4.84399745 287.636,5.23999943 C287.816001,5.63600141 287.906,6.09199685 287.906,6.60799943 L287.906,13.3759994 C287.906,13.9040021 287.816001,14.3629975 287.636,14.7529994 C287.455999,15.1430014 287.219001,15.4669981 286.925,15.7249994 C286.630999,15.9830007 286.301002,16.1779988 285.935,16.3099994 C285.568998,16.4420001 285.200002,16.5079994 284.828,16.5079994 C284.455998,16.5079994 284.087002,16.4420001 283.721,16.3099994 C283.354998,16.1779988 283.025001,15.9830007 282.731,15.7249994 C282.436999,15.4669981 282.200001,15.1430014 282.02,14.7529994 C281.839999,14.3629975 281.75,13.9040021 281.75,13.3759994 L281.75,6.60799943 Z M283.586,13.3759994 C283.586,13.8200016 283.708999,14.1469984 283.955,14.3569994 C284.201001,14.5670005 284.491998,14.6719994 284.828,14.6719994 C285.164002,14.6719994 285.454999,14.5670005 285.701,14.3569994 C285.947001,14.1469984 286.07,13.8200016 286.07,13.3759994 L286.07,6.60799943 C286.07,6.16399721 285.947001,5.83700048 285.701,5.62699943 C285.454999,5.41699838 285.164002,5.31199943 284.828,5.31199943 C284.491998,5.31199943 284.201001,5.41699838 283.955,5.62699943 C283.708999,5.83700048 283.586,6.16399721 283.586,6.60799943 L283.586,13.3759994 Z M293.792,13.3759994 C293.792,13.7960015 293.720001,14.1949975 293.576,14.5729994 C293.431999,14.9510013 293.225001,15.283998 292.955,15.5719994 C292.684999,15.8600009 292.358002,16.0879986 291.974,16.2559994 C291.589998,16.4240003 291.152002,16.5079994 290.66,16.5079994 C290.071997,16.5079994 289.583002,16.3790007 289.193,16.1209994 C288.802998,15.8629981 288.494001,15.6080007 288.266,15.3559994 L289.706,14.2039994 C289.838001,14.3360001 289.990999,14.446999 290.165,14.5369994 C290.339001,14.6269999 290.521999,14.6719994 290.714,14.6719994 C290.822001,14.6719994 290.947999,14.6509996 291.092,14.6089994 C291.236001,14.5669992 291.370999,14.489 291.497,14.3749994 C291.623001,14.2609989 291.731,14.1050004 291.821,13.9069994 C291.911,13.7089984 291.956,13.448001 291.956,13.1239994 L291.956,3.58399943 L293.792,3.58399943 L293.792,13.3759994 Z M295.52,3.58399943 L300.992,3.58399943 L300.992,5.31199943 L297.356,5.31199943 L297.356,9.07399943 L300.524,9.07399943 L300.524,10.8019994 L297.356,10.8019994 L297.356,14.5639994 L300.992,14.5639994 L300.992,16.3999994 L295.52,16.3999994 L295.52,3.58399943 Z M303.386,5.31199943 L301.262,5.31199943 L301.262,3.58399943 L307.346,3.58399943 L307.346,5.31199943 L305.222,5.31199943 L305.222,16.3999994 L303.386,16.3999994 L303.386,5.31199943 Z M311.504,3.58399943 L314.258,3.58399943 C314.762003,3.58399943 315.205998,3.64999877 315.59,3.78199943 C315.974002,3.91400009 316.321998,4.14799775 316.634,4.48399943 C316.946002,4.82000111 317.161999,5.21299718 317.282,5.66299943 C317.402001,6.11300168 317.462,6.72199559 317.462,7.48999943 C317.462,8.05400225 317.429,8.53699742 317.363,8.93899943 C317.297,9.34100144 317.156001,9.71599769 316.94,10.0639994 C316.687999,10.4840015 316.352002,10.8109983 315.932,11.0449994 C315.511998,11.2790006 314.960003,11.3959994 314.276,11.3959994 L313.34,11.3959994 L313.34,16.3999994 L311.504,16.3999994 L311.504,3.58399943 Z M313.34,9.66799943 L314.222,9.66799943 C314.594002,9.66799943 314.881999,9.61399997 315.086,9.50599943 C315.290001,9.39799889 315.44,9.25100036 315.536,9.06499943 C315.632,8.8789985 315.689,8.65400075 315.707,8.38999943 C315.725,8.12599811 315.734,7.83200105 315.734,7.50799943 C315.734,7.20799793 315.725,6.92300078 315.707,6.65299943 C315.689,6.38299808 315.635,6.14900042 315.545,5.95099943 C315.455,5.75299844 315.314001,5.597 315.122,5.48299943 C314.929999,5.36899886 314.654002,5.31199943 314.294,5.31199943 L313.34,5.31199943 L313.34,9.66799943 Z M321.638,7.27399943 L321.602,7.27399943 L320.702,11.9179994 L322.538,11.9179994 L321.638,7.27399943 Z M320.864,3.58399943 L322.394,3.58399943 L325.256,16.3999994 L323.42,16.3999994 L322.88,13.6459994 L320.378,13.6459994 L319.838,16.3999994 L318.002,16.3999994 L320.864,3.58399943 Z M327.992,9.30799943 L329.036,9.30799943 C329.360002,9.30799943 329.617999,9.26299988 329.81,9.17299943 C330.002001,9.08299898 330.148999,8.95400027 330.251,8.78599943 C330.353001,8.61799859 330.422,8.41100066 330.458,8.16499943 C330.494,7.9189982 330.512,7.63400105 330.512,7.30999943 C330.512,6.98599781 330.494,6.70100066 330.458,6.45499943 C330.422,6.2089982 330.347001,5.9990003 330.233,5.82499943 C330.118999,5.65099856 329.960001,5.52199985 329.756,5.43799943 C329.551999,5.35399901 329.282002,5.31199943 328.946,5.31199943 L327.992,5.31199943 L327.992,9.30799943 Z M326.156,3.58399943 L329.108,3.58399943 C331.268011,3.58399943 332.348,4.83798689 332.348,7.34599943 C332.348,8.09000315 332.231001,8.72899676 331.997,9.26299943 C331.762999,9.7970021 331.352003,10.2259978 330.764,10.5499994 L332.744,16.3999994 L330.8,16.3999994 L329.09,10.9279994 L327.992,10.9279994 L327.992,16.3999994 L326.156,16.3999994 L326.156,3.58399943 Z M335.03,5.31199943 L332.906,5.31199943 L332.906,3.58399943 L338.99,3.58399943 L338.99,5.31199943 L336.866,5.31199943 L336.866,16.3999994 L335.03,16.3999994 L335.03,5.31199943 Z M342.608,7.27399943 L342.572,7.27399943 L341.672,11.9179994 L343.508,11.9179994 L342.608,7.27399943 Z M341.834,3.58399943 L343.364,3.58399943 L346.226,16.3999994 L344.39,16.3999994 L343.85,13.6459994 L341.348,13.6459994 L340.808,16.3999994 L338.972,16.3999994 L341.834,3.58399943 Z M347.018,6.60799943 C347.018,6.09199685 347.107999,5.63600141 347.288,5.23999943 C347.468001,4.84399745 347.704999,4.51700072 347.999,4.25899943 C348.293001,4.00099814 348.622998,3.80600009 348.989,3.67399943 C349.355002,3.54199877 349.723998,3.47599943 350.096,3.47599943 C350.468002,3.47599943 350.836998,3.54199877 351.203,3.67399943 C351.569002,3.80600009 351.898999,4.00099814 352.193,4.25899943 C352.487001,4.51700072 352.723999,4.84399745 352.904,5.23999943 C353.084001,5.63600141 353.174,6.09199685 353.174,6.60799943 L353.174,7.25599943 L351.338,7.25599943 L351.338,6.60799943 C351.338,6.16399721 351.215001,5.83700048 350.969,5.62699943 C350.722999,5.41699838 350.432002,5.31199943 350.096,5.31199943 C349.759998,5.31199943 349.469001,5.41699838 349.223,5.62699943 C348.976999,5.83700048 348.854,6.16399721 348.854,6.60799943 L348.854,13.3759994 C348.854,13.8200016 348.976999,14.1469984 349.223,14.3569994 C349.469001,14.5670005 349.759998,14.6719994 350.096,14.6719994 C350.432002,14.6719994 350.722999,14.5670005 350.969,14.3569994 C351.215001,14.1469984 351.338,13.8200016 351.338,13.3759994 L351.338,10.9639994 L349.88,10.9639994 L349.88,9.34399943 L353.174,9.34399943 L353.174,13.3759994 C353.174,13.9040021 353.084001,14.3629975 352.904,14.7529994 C352.723999,15.1430014 352.487001,15.4669981 352.193,15.7249994 C351.898999,15.9830007 351.569002,16.1779988 351.203,16.3099994 C350.836998,16.4420001 350.468002,16.5079994 350.096,16.5079994 C349.723998,16.5079994 349.355002,16.4420001 348.989,16.3099994 C348.622998,16.1779988 348.293001,15.9830007 347.999,15.7249994 C347.704999,15.4669981 347.468001,15.1430014 347.288,14.7529994 C347.107999,14.3629975 347.018,13.9040021 347.018,13.3759994 L347.018,6.60799943 Z M354.794,3.58399943 L360.266,3.58399943 L360.266,5.31199943 L356.63,5.31199943 L356.63,9.07399943 L359.798,9.07399943 L359.798,10.8019994 L356.63,10.8019994 L356.63,14.5639994 L360.266,14.5639994 L360.266,16.3999994 L354.794,16.3999994 L354.794,3.58399943 Z M357.89,0.469999428 L359.834,0.469999428 L357.458,3.00799943 L356.27,3.00799943 L357.89,0.469999428 Z" id="PROJET-PARTAGÉ" fill="#9B9B9B"></path>
                <polygon id="Path-77" fill="#F5A623" points="520.41573 272.089608 518.123596 394 321 281.288723 525 164"></polygon>
                <polygon id="Path-77" fill="#F5A623" points="303 146.2 0 319 0 93.208 105.590909 31"></polygon>
                <polygon id="Path-80" fill="#2DBA9B" transform="translate(53.000000, 212.500000) scale(-1, 1) translate(-53.000000, -212.500000) " points="5.68434189e-14 31 5.68434189e-14 394 106 331.968354 106 93.0316456"></polygon>
                <path d="M312.5,30.5 L312.5,393.534424" id="Line" stroke="#D3D3D3" stroke-width="3" stroke-linecap="square" stroke-dasharray="1,1,1,8"></path>
                <path d="M16.56,102.66 L14.52,102.66 L14.52,102.2 C14.52,101.733331 14.4100011,101.330002 14.19,100.99 C13.9699989,100.649998 13.6000026,100.48 13.08,100.48 C12.7999986,100.48 12.5700009,100.533333 12.39,100.64 C12.2099991,100.746667 12.0700005,100.883333 11.97,101.05 C11.8699995,101.216668 11.8000002,101.409999 11.76,101.63 C11.7199998,101.850001 11.7,102.079999 11.7,102.32 C11.7,102.600002 11.7099999,102.836666 11.73,103.03 C11.7500001,103.223334 11.7999996,103.389999 11.88,103.53 C11.9600004,103.670001 12.0766659,103.793333 12.23,103.9 C12.3833341,104.006667 12.593332,104.113333 12.86,104.22 L14.42,104.84 C14.8733356,105.013334 15.2399986,105.216666 15.52,105.45 C15.8000014,105.683335 16.0166659,105.956665 16.17,106.27 C16.3233341,106.583335 16.4266664,106.943331 16.48,107.35 C16.5333336,107.756669 16.56,108.219998 16.56,108.74 C16.56,109.340003 16.5000006,109.896664 16.38,110.41 C16.2599994,110.923336 16.0633347,111.363332 15.79,111.73 C15.5166653,112.096669 15.1533356,112.386666 14.7,112.6 C14.2466644,112.813335 13.6933366,112.92 13.04,112.92 C12.5466642,112.92 12.0866688,112.833334 11.66,112.66 C11.2333312,112.486666 10.8666682,112.250002 10.56,111.95 C10.2533318,111.649999 10.0100009,111.293336 9.83,110.88 C9.6499991,110.466665 9.56,110.020003 9.56,109.54 L9.56,108.78 L11.6,108.78 L11.6,109.42 C11.6,109.793335 11.7099989,110.129999 11.93,110.43 C12.1500011,110.730002 12.5199974,110.88 13.04,110.88 C13.3866684,110.88 13.6566657,110.830001 13.85,110.73 C14.0433343,110.63 14.1899995,110.490001 14.29,110.31 C14.3900005,110.129999 14.4533332,109.906668 14.48,109.64 C14.5066668,109.373332 14.52,109.080002 14.52,108.76 C14.52,108.386665 14.5066668,108.080001 14.48,107.84 C14.4533332,107.599999 14.3966671,107.406668 14.31,107.26 C14.2233329,107.113333 14.1033341,106.993334 13.95,106.9 C13.7966659,106.806666 13.5933346,106.706667 13.34,106.6 L11.88,106 C10.9999956,105.639998 10.4100015,105.163336 10.11,104.57 C9.8099985,103.976664 9.66,103.233338 9.66,102.34 C9.66,101.806664 9.7333326,101.300003 9.88,100.82 C10.0266674,100.339998 10.2433319,99.9266686 10.53,99.5800002 C10.8166681,99.2333318 11.1799978,98.9566679 11.62,98.7500002 C12.0600022,98.5433325 12.5733304,98.4400002 13.16,98.4400002 C13.6666692,98.4400002 14.1299979,98.5333326 14.55,98.7200002 C14.9700021,98.9066678 15.3299985,99.153332 15.63,99.4600002 C15.9300015,99.7666684 16.1599992,100.109998 16.32,100.49 C16.4800008,100.870002 16.56,101.259998 16.56,101.66 L16.56,102.66 Z M17.96,101.92 C17.96,101.346664 18.059999,100.840002 18.26,100.4 C18.460001,99.959998 18.7233317,99.5966683 19.05,99.3100002 C19.3766683,99.0233321 19.7433313,98.8066676 20.15,98.6600002 C20.5566687,98.5133328 20.9666646,98.4400002 21.38,98.4400002 C21.7933354,98.4400002 22.2033313,98.5133328 22.61,98.6600002 C23.0166687,98.8066676 23.3833317,99.0233321 23.71,99.3100002 C24.0366683,99.5966683 24.299999,99.959998 24.5,100.4 C24.700001,100.840002 24.8,101.346664 24.8,101.92 L24.8,109.44 C24.8,110.02667 24.700001,110.536665 24.5,110.97 C24.299999,111.403336 24.0366683,111.763332 23.71,112.05 C23.3833317,112.336668 23.0166687,112.553333 22.61,112.7 C22.2033313,112.846668 21.7933354,112.92 21.38,112.92 C20.9666646,112.92 20.5566687,112.846668 20.15,112.7 C19.7433313,112.553333 19.3766683,112.336668 19.05,112.05 C18.7233317,111.763332 18.460001,111.403336 18.26,110.97 C18.059999,110.536665 17.96,110.02667 17.96,109.44 L17.96,101.92 Z M20,109.44 C20,109.933336 20.1366653,110.296666 20.41,110.53 C20.6833347,110.763335 21.0066648,110.88 21.38,110.88 C21.7533352,110.88 22.0766653,110.763335 22.35,110.53 C22.6233347,110.296666 22.76,109.933336 22.76,109.44 L22.76,101.92 C22.76,101.426664 22.6233347,101.063335 22.35,100.83 C22.0766653,100.596666 21.7533352,100.48 21.38,100.48 C21.0066648,100.48 20.6833347,100.596666 20.41,100.83 C20.1366653,101.063335 20,101.426664 20,101.92 L20,109.44 Z M33.08,109.62 C33.08,110.060002 32.9966675,110.479998 32.83,110.88 C32.6633325,111.280002 32.4333348,111.629999 32.14,111.93 C31.8466652,112.230002 31.5033353,112.469999 31.11,112.65 C30.7166647,112.830001 30.2933356,112.92 29.84,112.92 C29.4533314,112.92 29.060002,112.866667 28.66,112.76 C28.259998,112.653333 27.9000016,112.470001 27.58,112.21 C27.2599984,111.949999 26.9966677,111.606669 26.79,111.18 C26.5833323,110.753331 26.48,110.213337 26.48,109.56 L26.48,101.72 C26.48,101.253331 26.5599992,100.820002 26.72,100.42 C26.8800008,100.019998 27.1066652,99.673335 27.4,99.3800002 C27.6933348,99.0866654 28.0433313,98.8566677 28.45,98.6900002 C28.8566687,98.5233327 29.3066642,98.4400002 29.8,98.4400002 C30.266669,98.4400002 30.699998,98.5233327 31.1,98.6900002 C31.500002,98.8566677 31.8466652,99.0899987 32.14,99.3900002 C32.4333348,99.6900017 32.6633325,100.049998 32.83,100.47 C32.9966675,100.890002 33.08,101.346664 33.08,101.84 L33.08,102.64 L31.04,102.64 L31.04,101.96 C31.04,101.559998 30.9266678,101.213335 30.7,100.92 C30.4733322,100.626665 30.1666686,100.48 29.78,100.48 C29.2733308,100.48 28.9366675,100.636665 28.77,100.95 C28.6033325,101.263335 28.52,101.659998 28.52,102.14 L28.52,109.42 C28.52,109.833336 28.6099991,110.179999 28.79,110.46 C28.9700009,110.740002 29.293331,110.88 29.76,110.88 C29.893334,110.88 30.0366659,110.856667 30.19,110.81 C30.3433341,110.763333 30.4833327,110.686667 30.61,110.58 C30.7366673,110.473333 30.8399996,110.326668 30.92,110.14 C31.0000004,109.953333 31.04,109.720002 31.04,109.44 L31.04,108.74 L33.08,108.74 L33.08,109.62 Z M34.8,98.5600002 L36.84,98.5600002 L36.84,112.8 L34.8,112.8 L34.8,98.5600002 Z M41.94,102.66 L41.9,102.66 L40.9,107.82 L42.94,107.82 L41.94,102.66 Z M41.08,98.5600002 L42.78,98.5600002 L45.96,112.8 L43.92,112.8 L43.32,109.74 L40.54,109.74 L39.94,112.8 L37.9,112.8 L41.08,98.5600002 Z M46.96,98.5600002 L49,98.5600002 L49,110.76 L53.04,110.76 L53.04,112.8 L46.96,112.8 L46.96,98.5600002 Z M9.96,120.56 L16.04,120.56 L16.04,122.48 L12,122.48 L12,126.66 L15.52,126.66 L15.52,128.58 L12,128.58 L12,132.76 L16.04,132.76 L16.04,134.8 L9.96,134.8 L9.96,120.56 Z M17.28,120.56 L19.24,120.56 L22.32,129.14 L22.36,129.14 L22.36,120.56 L24.4,120.56 L24.4,134.8 L22.48,134.8 L19.36,126.24 L19.32,126.24 L19.32,134.8 L17.28,134.8 L17.28,120.56 Z M26.12,123.92 C26.12,123.346664 26.219999,122.840002 26.42,122.4 C26.620001,121.959998 26.8833317,121.596668 27.21,121.31 C27.5366683,121.023332 27.9033313,120.806668 28.31,120.66 C28.7166687,120.513333 29.1266646,120.44 29.54,120.44 C29.9533354,120.44 30.3633313,120.513333 30.77,120.66 C31.1766687,120.806668 31.5433317,121.023332 31.87,121.31 C32.1966683,121.596668 32.459999,121.959998 32.66,122.4 C32.860001,122.840002 32.96,123.346664 32.96,123.92 L32.96,124.64 L30.92,124.64 L30.92,123.92 C30.92,123.426664 30.7833347,123.063335 30.51,122.83 C30.2366653,122.596666 29.9133352,122.48 29.54,122.48 C29.1666648,122.48 28.8433347,122.596666 28.57,122.83 C28.2966653,123.063335 28.16,123.426664 28.16,123.92 L28.16,131.44 C28.16,131.933336 28.2966653,132.296666 28.57,132.53 C28.8433347,132.763335 29.1666648,132.88 29.54,132.88 C29.9133352,132.88 30.2366653,132.763335 30.51,132.53 C30.7833347,132.296666 30.92,131.933336 30.92,131.44 L30.92,128.76 L29.3,128.76 L29.3,126.96 L32.96,126.96 L32.96,131.44 C32.96,132.02667 32.860001,132.536665 32.66,132.97 C32.459999,133.403336 32.1966683,133.763332 31.87,134.05 C31.5433317,134.336668 31.1766687,134.553333 30.77,134.7 C30.3633313,134.846668 29.9533354,134.92 29.54,134.92 C29.1266646,134.92 28.7166687,134.846668 28.31,134.7 C27.9033313,134.553333 27.5366683,134.336668 27.21,134.05 C26.8833317,133.763332 26.620001,133.403336 26.42,132.97 C26.219999,132.536665 26.12,132.02667 26.12,131.44 L26.12,123.92 Z M37.88,124.66 L37.84,124.66 L36.84,129.82 L38.88,129.82 L37.88,124.66 Z M37.02,120.56 L38.72,120.56 L41.9,134.8 L39.86,134.8 L39.26,131.74 L36.48,131.74 L35.88,134.8 L33.84,134.8 L37.02,120.56 Z M42.78,123.92 C42.78,123.346664 42.879999,122.840002 43.08,122.4 C43.280001,121.959998 43.5433317,121.596668 43.87,121.31 C44.1966683,121.023332 44.5633313,120.806668 44.97,120.66 C45.3766687,120.513333 45.7866646,120.44 46.2,120.44 C46.6133354,120.44 47.0233313,120.513333 47.43,120.66 C47.8366687,120.806668 48.2033317,121.023332 48.53,121.31 C48.8566683,121.596668 49.119999,121.959998 49.32,122.4 C49.520001,122.840002 49.62,123.346664 49.62,123.92 L49.62,124.64 L47.58,124.64 L47.58,123.92 C47.58,123.426664 47.4433347,123.063335 47.17,122.83 C46.8966653,122.596666 46.5733352,122.48 46.2,122.48 C45.8266648,122.48 45.5033347,122.596666 45.23,122.83 C44.9566653,123.063335 44.82,123.426664 44.82,123.92 L44.82,131.44 C44.82,131.933336 44.9566653,132.296666 45.23,132.53 C45.5033347,132.763335 45.8266648,132.88 46.2,132.88 C46.5733352,132.88 46.8966653,132.763335 47.17,132.53 C47.4433347,132.296666 47.58,131.933336 47.58,131.44 L47.58,128.76 L45.96,128.76 L45.96,126.96 L49.62,126.96 L49.62,131.44 C49.62,132.02667 49.520001,132.536665 49.32,132.97 C49.119999,133.403336 48.8566683,133.763332 48.53,134.05 C48.2033317,134.336668 47.8366687,134.553333 47.43,134.7 C47.0233313,134.846668 46.6133354,134.92 46.2,134.92 C45.7866646,134.92 45.3766687,134.846668 44.97,134.7 C44.5633313,134.553333 44.1966683,134.336668 43.87,134.05 C43.5433317,133.763332 43.280001,133.403336 43.08,132.97 C42.879999,132.536665 42.78,132.02667 42.78,131.44 L42.78,123.92 Z M51.42,120.56 L57.5,120.56 L57.5,122.48 L53.46,122.48 L53.46,126.66 L56.98,126.66 L56.98,128.58 L53.46,128.58 L53.46,132.76 L57.5,132.76 L57.5,134.8 L51.42,134.8 L51.42,120.56 Z M58.82,120.56 L60.78,120.56 L63.4,128.1 L63.44,128.1 L66.04,120.56 L68.02,120.56 L68.02,134.8 L65.98,134.8 L65.98,126.14 L65.94,126.14 L63.92,132.26 L62.9,132.26 L60.9,126.14 L60.86,126.14 L60.86,134.8 L58.82,134.8 L58.82,120.56 Z M69.94,120.56 L76.02,120.56 L76.02,122.48 L71.98,122.48 L71.98,126.66 L75.5,126.66 L75.5,128.58 L71.98,128.58 L71.98,132.76 L76.02,132.76 L76.02,134.8 L69.94,134.8 L69.94,120.56 Z M77.26,120.56 L79.22,120.56 L82.3,129.14 L82.34,129.14 L82.34,120.56 L84.38,120.56 L84.38,134.8 L82.46,134.8 L79.34,126.24 L79.3,126.24 L79.3,134.8 L77.26,134.8 L77.26,120.56 Z M87.56,122.48 L85.2,122.48 L85.2,120.56 L91.96,120.56 L91.96,122.48 L89.6,122.48 L89.6,134.8 L87.56,134.8 L87.56,122.48 Z" id="SOCIAL-ENGAGEMENT" fill="#FFFFFF"></path>
                <path d="M312,273.347488 L103.235294,394 L0,331.968354 L312,150.854654 L312,273.347488 Z" id="Combined-Shape" fill="#D4373C"></path>
                <path d="M76.823875,287.385828 L79.271875,287.385828 L79.271875,294.705828 L82.295875,294.705828 L82.295875,287.385828 L84.743875,287.385828 L84.743875,304.473828 L82.295875,304.473828 L82.295875,296.865828 L79.271875,296.865828 L79.271875,304.473828 L76.823875,304.473828 L76.823875,287.385828 Z M87.119875,287.385828 L89.567875,287.385828 L89.567875,304.473828 L87.119875,304.473828 L87.119875,287.385828 Z M99.863875,292.305828 L97.415875,292.305828 L97.415875,291.753828 C97.415875,291.193825 97.2838763,290.70983 97.019875,290.301828 C96.7558737,289.893826 96.3118781,289.689828 95.687875,289.689828 C95.3518733,289.689828 95.0758761,289.753827 94.859875,289.881828 C94.6438739,290.009829 94.4758756,290.173827 94.355875,290.373828 C94.2358744,290.573829 94.1518752,290.805827 94.103875,291.069828 C94.0558748,291.333829 94.031875,291.609827 94.031875,291.897828 C94.031875,292.23383 94.0438749,292.517827 94.067875,292.749828 C94.0918751,292.981829 94.1518745,293.181827 94.247875,293.349828 C94.3438755,293.517829 94.4838741,293.665827 94.667875,293.793828 C94.8518759,293.921829 95.1038734,294.049827 95.423875,294.177828 L97.295875,294.921828 C97.8398777,295.129829 98.2798733,295.373827 98.615875,295.653828 C98.9518767,295.93383 99.2118741,296.261826 99.395875,296.637828 C99.5798759,297.01383 99.7038747,297.445826 99.767875,297.933828 C99.8318753,298.421831 99.863875,298.977825 99.863875,299.601828 C99.863875,300.321832 99.7918757,300.989825 99.647875,301.605828 C99.5038743,302.221831 99.2678766,302.749826 98.939875,303.189828 C98.6118734,303.62983 98.1758777,303.977827 97.631875,304.233828 C97.0878723,304.489829 96.4238789,304.617828 95.639875,304.617828 C95.047872,304.617828 94.4958776,304.513829 93.983875,304.305828 C93.4718724,304.097827 93.0318768,303.81383 92.663875,303.453828 C92.2958732,303.093826 92.0038761,302.665831 91.787875,302.169828 C91.5718739,301.673826 91.463875,301.137831 91.463875,300.561828 L91.463875,299.649828 L93.911875,299.649828 L93.911875,300.417828 C93.911875,300.86583 94.0438737,301.269826 94.307875,301.629828 C94.5718763,301.98983 95.0158719,302.169828 95.639875,302.169828 C96.0558771,302.169828 96.3798738,302.109829 96.611875,301.989828 C96.8438762,301.869828 97.0198744,301.701829 97.139875,301.485828 C97.2598756,301.269827 97.3358748,301.00183 97.367875,300.681828 C97.3998752,300.361827 97.415875,300.00983 97.415875,299.625828 C97.415875,299.177826 97.3998752,298.80983 97.367875,298.521828 C97.3358748,298.233827 97.2678755,298.001829 97.163875,297.825828 C97.0598745,297.649827 96.9158759,297.505829 96.731875,297.393828 C96.5478741,297.281828 96.3038765,297.161829 95.999875,297.033828 L94.247875,296.313828 C93.1918697,295.881826 92.4838768,295.309832 92.123875,294.597828 C91.7638732,293.885825 91.583875,292.993833 91.583875,291.921828 C91.583875,291.281825 91.6718741,290.673831 91.847875,290.097828 C92.0238759,289.521825 92.2838733,289.02583 92.627875,288.609828 C92.9718767,288.193826 93.4078724,287.861829 93.935875,287.613828 C94.4638776,287.365827 95.0798715,287.241828 95.783875,287.241828 C96.391878,287.241828 96.9478725,287.353827 97.451875,287.577828 C97.9558775,287.801829 98.3878732,288.097826 98.747875,288.465828 C99.1078768,288.83383 99.383874,289.245826 99.575875,289.701828 C99.767876,290.15783 99.863875,290.625826 99.863875,291.105828 L99.863875,292.305828 Z M103.295875,289.689828 L100.463875,289.689828 L100.463875,287.385828 L108.575875,287.385828 L108.575875,289.689828 L105.743875,289.689828 L105.743875,304.473828 L103.295875,304.473828 L103.295875,289.689828 Z M109.511875,291.417828 C109.511875,290.729825 109.631874,290.121831 109.871875,289.593828 C110.111876,289.065825 110.427873,288.62983 110.819875,288.285828 C111.211877,287.941826 111.651873,287.681829 112.139875,287.505828 C112.627877,287.329827 113.119873,287.241828 113.615875,287.241828 C114.111877,287.241828 114.603873,287.329827 115.091875,287.505828 C115.579877,287.681829 116.019873,287.941826 116.411875,288.285828 C116.803877,288.62983 117.119874,289.065825 117.359875,289.593828 C117.599876,290.121831 117.719875,290.729825 117.719875,291.417828 L117.719875,300.441828 C117.719875,301.145832 117.599876,301.757826 117.359875,302.277828 C117.119874,302.797831 116.803877,303.229826 116.411875,303.573828 C116.019873,303.91783 115.579877,304.177827 115.091875,304.353828 C114.603873,304.529829 114.111877,304.617828 113.615875,304.617828 C113.119873,304.617828 112.627877,304.529829 112.139875,304.353828 C111.651873,304.177827 111.211877,303.91783 110.819875,303.573828 C110.427873,303.229826 110.111876,302.797831 109.871875,302.277828 C109.631874,301.757826 109.511875,301.145832 109.511875,300.441828 L109.511875,291.417828 Z M111.959875,300.441828 C111.959875,301.033831 112.123873,301.469827 112.451875,301.749828 C112.779877,302.02983 113.167873,302.169828 113.615875,302.169828 C114.063877,302.169828 114.451873,302.02983 114.779875,301.749828 C115.107877,301.469827 115.271875,301.033831 115.271875,300.441828 L115.271875,291.417828 C115.271875,290.825825 115.107877,290.38983 114.779875,290.109828 C114.451873,289.829827 114.063877,289.689828 113.615875,289.689828 C113.167873,289.689828 112.779877,289.829827 112.451875,290.109828 C112.123873,290.38983 111.959875,290.825825 111.959875,291.417828 L111.959875,300.441828 Z M119.951875,287.385828 L122.399875,287.385828 L122.399875,304.473828 L119.951875,304.473828 L119.951875,287.385828 Z M127.223875,295.017828 L128.615875,295.017828 C129.047877,295.017828 129.391874,294.957829 129.647875,294.837828 C129.903876,294.717828 130.099874,294.545829 130.235875,294.321828 C130.371876,294.097827 130.463875,293.82183 130.511875,293.493828 C130.559875,293.165826 130.583875,292.78583 130.583875,292.353828 C130.583875,291.921826 130.559875,291.54183 130.511875,291.213828 C130.463875,290.885826 130.363876,290.605829 130.211875,290.373828 C130.059874,290.141827 129.847876,289.969829 129.575875,289.857828 C129.303874,289.745828 128.943877,289.689828 128.495875,289.689828 L127.223875,289.689828 L127.223875,295.017828 Z M124.775875,287.385828 L128.711875,287.385828 C131.591889,287.385828 133.031875,289.057811 133.031875,292.401828 C133.031875,293.393833 132.875877,294.245825 132.563875,294.957828 C132.251873,295.669832 131.703879,296.241826 130.919875,296.673828 L133.559875,304.473828 L130.967875,304.473828 L128.687875,297.177828 L127.223875,297.177828 L127.223875,304.473828 L124.775875,304.473828 L124.775875,287.385828 Z M134.999875,287.385828 L142.295875,287.385828 L142.295875,289.689828 L137.447875,289.689828 L137.447875,294.705828 L141.671875,294.705828 L141.671875,297.009828 L137.447875,297.009828 L137.447875,302.025828 L142.295875,302.025828 L142.295875,304.473828 L134.999875,304.473828 L134.999875,287.385828 Z M78.431875,316.089828 L75.599875,316.089828 L75.599875,313.785828 L83.711875,313.785828 L83.711875,316.089828 L80.879875,316.089828 L80.879875,330.873828 L78.431875,330.873828 L78.431875,316.089828 Z M87.239875,321.417828 L88.631875,321.417828 C89.0638772,321.417828 89.4078737,321.357829 89.663875,321.237828 C89.9198763,321.117828 90.1158743,320.945829 90.251875,320.721828 C90.3878757,320.497827 90.4798748,320.22183 90.527875,319.893828 C90.5758752,319.565826 90.599875,319.18583 90.599875,318.753828 C90.599875,318.321826 90.5758752,317.94183 90.527875,317.613828 C90.4798748,317.285826 90.3798758,317.005829 90.227875,316.773828 C90.0758742,316.541827 89.8638764,316.369829 89.591875,316.257828 C89.3198736,316.145828 88.9598772,316.089828 88.511875,316.089828 L87.239875,316.089828 L87.239875,321.417828 Z M84.791875,313.785828 L88.727875,313.785828 C91.6078894,313.785828 93.047875,315.457811 93.047875,318.801828 C93.047875,319.793833 92.8918766,320.645825 92.579875,321.357828 C92.2678734,322.069832 91.7198789,322.641826 90.935875,323.073828 L93.575875,330.873828 L90.983875,330.873828 L88.703875,323.577828 L87.239875,323.577828 L87.239875,330.873828 L84.791875,330.873828 L84.791875,313.785828 Z M98.759875,318.705828 L98.711875,318.705828 L97.511875,324.897828 L99.959875,324.897828 L98.759875,318.705828 Z M97.727875,313.785828 L99.767875,313.785828 L103.583875,330.873828 L101.135875,330.873828 L100.415875,327.201828 L97.079875,327.201828 L96.359875,330.873828 L93.911875,330.873828 L97.727875,313.785828 Z M104.783875,313.785828 L108.407875,313.785828 C109.799882,313.785828 110.863871,314.173824 111.599875,314.949828 C112.335879,315.725832 112.703875,316.809821 112.703875,318.201828 L112.703875,326.193828 C112.703875,327.793836 112.315879,328.973824 111.539875,329.733828 C110.763871,330.493832 109.647882,330.873828 108.191875,330.873828 L104.783875,330.873828 L104.783875,313.785828 Z M107.231875,328.569828 L108.359875,328.569828 C109.047878,328.569828 109.535874,328.39783 109.823875,328.053828 C110.111876,327.709826 110.255875,327.169832 110.255875,326.433828 L110.255875,318.201828 C110.255875,317.529825 110.119876,317.00983 109.847875,316.641828 C109.575874,316.273826 109.079879,316.089828 108.359875,316.089828 L107.231875,316.089828 L107.231875,328.569828 Z M115.079875,313.785828 L117.527875,313.785828 L117.527875,330.873828 L115.079875,330.873828 L115.079875,313.785828 Z M121.511875,316.089828 L118.679875,316.089828 L118.679875,313.785828 L126.791875,313.785828 L126.791875,316.089828 L123.959875,316.089828 L123.959875,330.873828 L121.511875,330.873828 L121.511875,316.089828 Z M127.943875,313.785828 L130.391875,313.785828 L130.391875,330.873828 L127.943875,330.873828 L127.943875,313.785828 Z M132.623875,317.817828 C132.623875,317.129825 132.743874,316.521831 132.983875,315.993828 C133.223876,315.465825 133.539873,315.02983 133.931875,314.685828 C134.323877,314.341826 134.763873,314.081829 135.251875,313.905828 C135.739877,313.729827 136.231873,313.641828 136.727875,313.641828 C137.223877,313.641828 137.715873,313.729827 138.203875,313.905828 C138.691877,314.081829 139.131873,314.341826 139.523875,314.685828 C139.915877,315.02983 140.231874,315.465825 140.471875,315.993828 C140.711876,316.521831 140.831875,317.129825 140.831875,317.817828 L140.831875,326.841828 C140.831875,327.545832 140.711876,328.157826 140.471875,328.677828 C140.231874,329.197831 139.915877,329.629826 139.523875,329.973828 C139.131873,330.31783 138.691877,330.577827 138.203875,330.753828 C137.715873,330.929829 137.223877,331.017828 136.727875,331.017828 C136.231873,331.017828 135.739877,330.929829 135.251875,330.753828 C134.763873,330.577827 134.323877,330.31783 133.931875,329.973828 C133.539873,329.629826 133.223876,329.197831 132.983875,328.677828 C132.743874,328.157826 132.623875,327.545832 132.623875,326.841828 L132.623875,317.817828 Z M135.071875,326.841828 C135.071875,327.433831 135.235873,327.869827 135.563875,328.149828 C135.891877,328.42983 136.279873,328.569828 136.727875,328.569828 C137.175877,328.569828 137.563873,328.42983 137.891875,328.149828 C138.219877,327.869827 138.383875,327.433831 138.383875,326.841828 L138.383875,317.817828 C138.383875,317.225825 138.219877,316.78983 137.891875,316.509828 C137.563873,316.229827 137.175877,316.089828 136.727875,316.089828 C136.279873,316.089828 135.891877,316.229827 135.563875,316.509828 C135.235873,316.78983 135.071875,317.225825 135.071875,317.817828 L135.071875,326.841828 Z M142.895875,313.785828 L145.247875,313.785828 L148.943875,324.081828 L148.991875,324.081828 L148.991875,313.785828 L151.439875,313.785828 L151.439875,330.873828 L149.135875,330.873828 L145.391875,320.601828 L145.343875,320.601828 L145.343875,330.873828 L142.895875,330.873828 L142.895875,313.785828 Z M84.599875,353.457828 C84.599875,353.985831 84.499876,354.489826 84.299875,354.969828 C84.099874,355.449831 83.8238768,355.869826 83.471875,356.229828 C83.1198732,356.58983 82.7078774,356.877827 82.235875,357.093828 C81.7638726,357.309829 81.2558777,357.417828 80.711875,357.417828 C80.2478727,357.417828 79.7758774,357.353829 79.295875,357.225828 C78.8158726,357.097827 78.3838769,356.87783 77.999875,356.565828 C77.6158731,356.253827 77.2998762,355.841831 77.051875,355.329828 C76.8038738,354.817826 76.679875,354.169832 76.679875,353.385828 L76.679875,343.977828 C76.679875,343.417825 76.775874,342.897831 76.967875,342.417828 C77.159876,341.937826 77.4318732,341.52183 77.783875,341.169828 C78.1358768,340.817826 78.5558726,340.541829 79.043875,340.341828 C79.5318774,340.141827 80.071872,340.041828 80.663875,340.041828 C81.2238778,340.041828 81.7438726,340.141827 82.223875,340.341828 C82.7038774,340.541829 83.1198732,340.821826 83.471875,341.181828 C83.8238768,341.54183 84.099874,341.973826 84.299875,342.477828 C84.499876,342.981831 84.599875,343.529825 84.599875,344.121828 L84.599875,345.081828 L82.151875,345.081828 L82.151875,344.265828 C82.151875,343.785826 82.0158764,343.36983 81.743875,343.017828 C81.4718736,342.665826 81.1038773,342.489828 80.639875,342.489828 C80.031872,342.489828 79.627876,342.677826 79.427875,343.053828 C79.227874,343.42983 79.127875,343.905825 79.127875,344.481828 L79.127875,353.217828 C79.127875,353.713831 79.2358739,354.129826 79.451875,354.465828 C79.6678761,354.80183 80.0558722,354.969828 80.615875,354.969828 C80.7758758,354.969828 80.9478741,354.941828 81.131875,354.885828 C81.3158759,354.829828 81.4838742,354.737829 81.635875,354.609828 C81.7878758,354.481827 81.9118745,354.305829 82.007875,354.081828 C82.1038755,353.857827 82.151875,353.57783 82.151875,353.241828 L82.151875,352.401828 L84.599875,352.401828 L84.599875,353.457828 Z M94.511875,353.433828 C94.511875,353.993831 94.407876,354.513826 94.199875,354.993828 C93.991874,355.473831 93.7078768,355.893826 93.347875,356.253828 C92.9878732,356.61383 92.5678774,356.897827 92.087875,357.105828 C91.6078726,357.313829 91.0958777,357.417828 90.551875,357.417828 C90.0078723,357.417828 89.4958774,357.313829 89.015875,357.105828 C88.5358726,356.897827 88.1158768,356.61383 87.755875,356.253828 C87.3958732,355.893826 87.111876,355.473831 86.903875,354.993828 C86.695874,354.513826 86.591875,353.993831 86.591875,353.433828 L86.591875,340.185828 L89.039875,340.185828 L89.039875,353.193828 C89.039875,353.801831 89.1838736,354.249827 89.471875,354.537828 C89.7598764,354.82583 90.1198728,354.969828 90.551875,354.969828 C90.9838772,354.969828 91.3438736,354.82583 91.631875,354.537828 C91.9198764,354.249827 92.063875,353.801831 92.063875,353.193828 L92.063875,340.185828 L94.511875,340.185828 L94.511875,353.433828 Z M96.815875,340.185828 L99.263875,340.185828 L99.263875,354.825828 L104.111875,354.825828 L104.111875,357.273828 L96.815875,357.273828 L96.815875,340.185828 Z M107.303875,342.489828 L104.471875,342.489828 L104.471875,340.185828 L112.583875,340.185828 L112.583875,342.489828 L109.751875,342.489828 L109.751875,357.273828 L107.303875,357.273828 L107.303875,342.489828 Z M121.583875,353.433828 C121.583875,353.993831 121.479876,354.513826 121.271875,354.993828 C121.063874,355.473831 120.779877,355.893826 120.419875,356.253828 C120.059873,356.61383 119.639877,356.897827 119.159875,357.105828 C118.679873,357.313829 118.167878,357.417828 117.623875,357.417828 C117.079872,357.417828 116.567877,357.313829 116.087875,357.105828 C115.607873,356.897827 115.187877,356.61383 114.827875,356.253828 C114.467873,355.893826 114.183876,355.473831 113.975875,354.993828 C113.767874,354.513826 113.663875,353.993831 113.663875,353.433828 L113.663875,340.185828 L116.111875,340.185828 L116.111875,353.193828 C116.111875,353.801831 116.255874,354.249827 116.543875,354.537828 C116.831876,354.82583 117.191873,354.969828 117.623875,354.969828 C118.055877,354.969828 118.415874,354.82583 118.703875,354.537828 C118.991876,354.249827 119.135875,353.801831 119.135875,353.193828 L119.135875,340.185828 L121.583875,340.185828 L121.583875,353.433828 Z M126.335875,347.817828 L127.727875,347.817828 C128.159877,347.817828 128.503874,347.757829 128.759875,347.637828 C129.015876,347.517828 129.211874,347.345829 129.347875,347.121828 C129.483876,346.897827 129.575875,346.62183 129.623875,346.293828 C129.671875,345.965826 129.695875,345.58583 129.695875,345.153828 C129.695875,344.721826 129.671875,344.34183 129.623875,344.013828 C129.575875,343.685826 129.475876,343.405829 129.323875,343.173828 C129.171874,342.941827 128.959876,342.769829 128.687875,342.657828 C128.415874,342.545828 128.055877,342.489828 127.607875,342.489828 L126.335875,342.489828 L126.335875,347.817828 Z M123.887875,340.185828 L127.823875,340.185828 C130.703889,340.185828 132.143875,341.857811 132.143875,345.201828 C132.143875,346.193833 131.987877,347.045825 131.675875,347.757828 C131.363873,348.469832 130.815879,349.041826 130.031875,349.473828 L132.671875,357.273828 L130.079875,357.273828 L127.799875,349.977828 L126.335875,349.977828 L126.335875,357.273828 L123.887875,357.273828 L123.887875,340.185828 Z M134.111875,340.185828 L141.407875,340.185828 L141.407875,342.489828 L136.559875,342.489828 L136.559875,347.505828 L140.783875,347.505828 L140.783875,349.809828 L136.559875,349.809828 L136.559875,354.825828 L141.407875,354.825828 L141.407875,357.273828 L134.111875,357.273828 L134.111875,340.185828 Z" id="HISTOIRE-TRADITION-C" fill="#FFFFFF" transform="translate(113.519875, 322.329828) rotate(-31.000000) translate(-113.519875, -322.329828) "></path>
                <path d="M624,152.492833 L415.235294,273.145346 L312,211.1137 L624,30 L624,152.492833 Z" id="Combined-Shape" fill="#3489DB" transform="translate(468.000000, 151.572673) rotate(-180.000000) translate(-468.000000, -151.572673) "></path>
                <polygon id="Path-80" fill="#2DBA9B" points="520.304348 152.740458 518 394 624 331.961832 624 93"></polygon>
                <path d="M279.690617,205.591348 C278.896492,204.288346 279.368684,202.6217 280.742804,201.870147 L339.283087,169.852459 C340.658318,169.100298 342.420243,169.552282 343.211053,170.849844 L344.919466,173.653014 C345.713591,174.956016 345.241399,176.622662 343.86728,177.374215 L285.326996,209.391903 C283.951765,210.144064 282.18984,209.69208 281.39903,208.394518 L279.690617,205.591348" id="Rectangle-468" fill="#FFFFFF"></path>
                <path d="M279.385575,228.103029 C278.591451,226.800027 279.063643,225.13338 280.437762,224.381827 L338.978045,192.36414 C340.353277,191.611979 342.115202,192.063962 342.906011,193.361525 L344.614425,196.164695 C345.408549,197.467696 344.936357,199.134343 343.562238,199.885896 L285.021955,231.903584 C283.646723,232.655745 281.884798,232.203761 281.093989,230.906199 L279.385575,228.103029" id="Rectangle-468-Copy" fill="#FFFFFF"></path>
                <path d="M279.385575,252.103029 C278.591451,250.800027 279.063643,249.13338 280.437762,248.381827 L338.978045,216.36414 C340.353277,215.611979 342.115202,216.063962 342.906011,217.361525 L344.614425,220.164695 C345.408549,221.467696 344.936357,223.134343 343.562238,223.885896 L285.021955,255.903584 C283.646723,256.655745 281.884798,256.203761 281.093989,254.906199 L279.385575,252.103029" id="Rectangle-468-Copy-2" fill="#FFFFFF"></path>
                <path d="M129.590017,181.755695 L136.886017,181.755695 L136.886017,184.059695 L132.038017,184.059695 L132.038017,189.075695 L136.262017,189.075695 L136.262017,191.379695 L132.038017,191.379695 L132.038017,196.395695 L136.886017,196.395695 L136.886017,198.843695 L129.590017,198.843695 L129.590017,181.755695 Z M140.726017,189.891695 L137.534017,181.755695 L140.126017,181.755695 L141.974017,186.819695 L143.846017,181.755695 L146.438017,181.755695 L143.174017,189.891695 L146.702017,198.843695 L144.110017,198.843695 L141.974017,193.083695 L139.862017,198.843695 L137.270017,198.843695 L140.726017,189.891695 Z M155.582017,195.027695 C155.582017,195.555698 155.482018,196.059693 155.282017,196.539695 C155.082016,197.019698 154.806018,197.439693 154.454017,197.799695 C154.102015,198.159697 153.690019,198.447694 153.218017,198.663695 C152.746014,198.879696 152.238019,198.987695 151.694017,198.987695 C151.230014,198.987695 150.758019,198.923696 150.278017,198.795695 C149.798014,198.667695 149.366019,198.447697 148.982017,198.135695 C148.598015,197.823694 148.282018,197.411698 148.034017,196.899695 C147.786015,196.387693 147.662017,195.739699 147.662017,194.955695 L147.662017,185.547695 C147.662017,184.987692 147.758016,184.467698 147.950017,183.987695 C148.142018,183.507693 148.414015,183.091697 148.766017,182.739695 C149.118018,182.387693 149.538014,182.111696 150.026017,181.911695 C150.514019,181.711694 151.054014,181.611695 151.646017,181.611695 C152.20602,181.611695 152.726014,181.711694 153.206017,181.911695 C153.686019,182.111696 154.102015,182.391693 154.454017,182.751695 C154.806018,183.111697 155.082016,183.543693 155.282017,184.047695 C155.482018,184.551698 155.582017,185.099692 155.582017,185.691695 L155.582017,186.651695 L153.134017,186.651695 L153.134017,185.835695 C153.134017,185.355693 152.998018,184.939697 152.726017,184.587695 C152.454015,184.235693 152.086019,184.059695 151.622017,184.059695 C151.014014,184.059695 150.610018,184.247693 150.410017,184.623695 C150.210016,184.999697 150.110017,185.475692 150.110017,186.051695 L150.110017,194.787695 C150.110017,195.283698 150.218016,195.699694 150.434017,196.035695 C150.650018,196.371697 151.038014,196.539695 151.598017,196.539695 C151.758018,196.539695 151.930016,196.511695 152.114017,196.455695 C152.298018,196.399695 152.466016,196.307696 152.618017,196.179695 C152.770017,196.051695 152.894016,195.875696 152.990017,195.651695 C153.086017,195.427694 153.134017,195.147697 153.134017,194.811695 L153.134017,193.971695 L155.582017,193.971695 L155.582017,195.027695 Z M157.574017,181.755695 L164.870017,181.755695 L164.870017,184.059695 L160.022017,184.059695 L160.022017,189.075695 L164.246017,189.075695 L164.246017,191.379695 L160.022017,191.379695 L160.022017,196.395695 L164.870017,196.395695 L164.870017,198.843695 L157.574017,198.843695 L157.574017,181.755695 Z M166.454017,181.755695 L168.902017,181.755695 L168.902017,196.395695 L173.750017,196.395695 L173.750017,198.843695 L166.454017,198.843695 L166.454017,181.755695 Z M175.334017,181.755695 L177.782017,181.755695 L177.782017,196.395695 L182.630017,196.395695 L182.630017,198.843695 L175.334017,198.843695 L175.334017,181.755695 Z M184.214017,181.755695 L191.510017,181.755695 L191.510017,184.059695 L186.662017,184.059695 L186.662017,189.075695 L190.886017,189.075695 L190.886017,191.379695 L186.662017,191.379695 L186.662017,196.395695 L191.510017,196.395695 L191.510017,198.843695 L184.214017,198.843695 L184.214017,181.755695 Z M192.998017,181.755695 L195.350017,181.755695 L199.046017,192.051695 L199.094017,192.051695 L199.094017,181.755695 L201.542017,181.755695 L201.542017,198.843695 L199.238017,198.843695 L195.494017,188.571695 L195.446017,188.571695 L195.446017,198.843695 L192.998017,198.843695 L192.998017,181.755695 Z M211.526017,195.027695 C211.526017,195.555698 211.426018,196.059693 211.226017,196.539695 C211.026016,197.019698 210.750018,197.439693 210.398017,197.799695 C210.046015,198.159697 209.634019,198.447694 209.162017,198.663695 C208.690014,198.879696 208.182019,198.987695 207.638017,198.987695 C207.174014,198.987695 206.702019,198.923696 206.222017,198.795695 C205.742014,198.667695 205.310019,198.447697 204.926017,198.135695 C204.542015,197.823694 204.226018,197.411698 203.978017,196.899695 C203.730015,196.387693 203.606017,195.739699 203.606017,194.955695 L203.606017,185.547695 C203.606017,184.987692 203.702016,184.467698 203.894017,183.987695 C204.086018,183.507693 204.358015,183.091697 204.710017,182.739695 C205.062018,182.387693 205.482014,182.111696 205.970017,181.911695 C206.458019,181.711694 206.998014,181.611695 207.590017,181.611695 C208.15002,181.611695 208.670014,181.711694 209.150017,181.911695 C209.630019,182.111696 210.046015,182.391693 210.398017,182.751695 C210.750018,183.111697 211.026016,183.543693 211.226017,184.047695 C211.426018,184.551698 211.526017,185.099692 211.526017,185.691695 L211.526017,186.651695 L209.078017,186.651695 L209.078017,185.835695 C209.078017,185.355693 208.942018,184.939697 208.670017,184.587695 C208.398015,184.235693 208.030019,184.059695 207.566017,184.059695 C206.958014,184.059695 206.554018,184.247693 206.354017,184.623695 C206.154016,184.999697 206.054017,185.475692 206.054017,186.051695 L206.054017,194.787695 C206.054017,195.283698 206.162016,195.699694 206.378017,196.035695 C206.594018,196.371697 206.982014,196.539695 207.542017,196.539695 C207.702018,196.539695 207.874016,196.511695 208.058017,196.455695 C208.242018,196.399695 208.410016,196.307696 208.562017,196.179695 C208.714017,196.051695 208.838016,195.875696 208.934017,195.651695 C209.030017,195.427694 209.078017,195.147697 209.078017,194.811695 L209.078017,193.971695 L211.526017,193.971695 L211.526017,195.027695 Z M213.518017,181.755695 L220.814017,181.755695 L220.814017,184.059695 L215.966017,184.059695 L215.966017,189.075695 L220.190017,189.075695 L220.190017,191.379695 L215.966017,191.379695 L215.966017,196.395695 L220.814017,196.395695 L220.814017,198.843695 L213.518017,198.843695 L213.518017,181.755695 Z" id="EXCELLENCE" fill="#FFFFFF" transform="translate(175.418017, 190.299695) rotate(-29.000000) translate(-175.418017, -190.299695) "></path>
                <path d="M409.471984,318.493545 L416.767984,318.493545 L416.767984,320.797545 L411.919984,320.797545 L411.919984,325.813545 L416.143984,325.813545 L416.143984,328.117545 L411.919984,328.117545 L411.919984,333.133545 L416.767984,333.133545 L416.767984,335.581545 L409.471984,335.581545 L409.471984,318.493545 Z M420.607984,326.629545 L417.415984,318.493545 L420.007984,318.493545 L421.855984,323.557545 L423.727984,318.493545 L426.319984,318.493545 L423.055984,326.629545 L426.583984,335.581545 L423.991984,335.581545 L421.855984,329.821545 L419.743984,335.581545 L417.151984,335.581545 L420.607984,326.629545 Z M435.463984,331.765545 C435.463984,332.293548 435.363985,332.797543 435.163984,333.277545 C434.963983,333.757548 434.687985,334.177543 434.335984,334.537545 C433.983982,334.897547 433.571986,335.185544 433.099984,335.401545 C432.627981,335.617546 432.119986,335.725545 431.575984,335.725545 C431.111981,335.725545 430.639986,335.661546 430.159984,335.533545 C429.679981,335.405544 429.247985,335.185547 428.863984,334.873545 C428.479982,334.561544 428.163985,334.149548 427.915984,333.637545 C427.667982,333.125543 427.543984,332.477549 427.543984,331.693545 L427.543984,322.285545 C427.543984,321.725542 427.639983,321.205548 427.831984,320.725545 C428.023985,320.245543 428.295982,319.829547 428.647984,319.477545 C428.999985,319.125543 429.419981,318.849546 429.907984,318.649545 C430.395986,318.449544 430.935981,318.349545 431.527984,318.349545 C432.087986,318.349545 432.607981,318.449544 433.087984,318.649545 C433.567986,318.849546 433.983982,319.129543 434.335984,319.489545 C434.687985,319.849547 434.963983,320.281543 435.163984,320.785545 C435.363985,321.289548 435.463984,321.837542 435.463984,322.429545 L435.463984,323.389545 L433.015984,323.389545 L433.015984,322.573545 C433.015984,322.093543 432.879985,321.677547 432.607984,321.325545 C432.335982,320.973543 431.967986,320.797545 431.503984,320.797545 C430.895981,320.797545 430.491985,320.985543 430.291984,321.361545 C430.091983,321.737547 429.991984,322.213542 429.991984,322.789545 L429.991984,331.525545 C429.991984,332.021548 430.099982,332.437543 430.315984,332.773545 C430.531985,333.109547 430.919981,333.277545 431.479984,333.277545 C431.639984,333.277545 431.811983,333.249545 431.995984,333.193545 C432.179984,333.137545 432.347983,333.045546 432.499984,332.917545 C432.651984,332.789544 432.775983,332.613546 432.871984,332.389545 C432.967984,332.165544 433.015984,331.885547 433.015984,331.549545 L433.015984,330.709545 L435.463984,330.709545 L435.463984,331.765545 Z M437.455984,318.493545 L444.751984,318.493545 L444.751984,320.797545 L439.903984,320.797545 L439.903984,325.813545 L444.127984,325.813545 L444.127984,328.117545 L439.903984,328.117545 L439.903984,333.133545 L444.751984,333.133545 L444.751984,335.581545 L437.455984,335.581545 L437.455984,318.493545 Z M446.335984,318.493545 L448.783984,318.493545 L448.783984,333.133545 L453.631984,333.133545 L453.631984,335.581545 L446.335984,335.581545 L446.335984,318.493545 Z M455.215984,318.493545 L457.663984,318.493545 L457.663984,333.133545 L462.511984,333.133545 L462.511984,335.581545 L455.215984,335.581545 L455.215984,318.493545 Z M464.095984,318.493545 L471.391984,318.493545 L471.391984,320.797545 L466.543984,320.797545 L466.543984,325.813545 L470.767984,325.813545 L470.767984,328.117545 L466.543984,328.117545 L466.543984,333.133545 L471.391984,333.133545 L471.391984,335.581545 L464.095984,335.581545 L464.095984,318.493545 Z M472.879984,318.493545 L475.231984,318.493545 L478.927984,328.789545 L478.975984,328.789545 L478.975984,318.493545 L481.423984,318.493545 L481.423984,335.581545 L479.119984,335.581545 L475.375984,325.309545 L475.327984,325.309545 L475.327984,335.581545 L472.879984,335.581545 L472.879984,318.493545 Z M491.407984,331.765545 C491.407984,332.293548 491.307985,332.797543 491.107984,333.277545 C490.907983,333.757548 490.631985,334.177543 490.279984,334.537545 C489.927982,334.897547 489.515986,335.185544 489.043984,335.401545 C488.571981,335.617546 488.063986,335.725545 487.519984,335.725545 C487.055981,335.725545 486.583986,335.661546 486.103984,335.533545 C485.623981,335.405544 485.191985,335.185547 484.807984,334.873545 C484.423982,334.561544 484.107985,334.149548 483.859984,333.637545 C483.611982,333.125543 483.487984,332.477549 483.487984,331.693545 L483.487984,322.285545 C483.487984,321.725542 483.583983,321.205548 483.775984,320.725545 C483.967985,320.245543 484.239982,319.829547 484.591984,319.477545 C484.943985,319.125543 485.363981,318.849546 485.851984,318.649545 C486.339986,318.449544 486.879981,318.349545 487.471984,318.349545 C488.031986,318.349545 488.551981,318.449544 489.031984,318.649545 C489.511986,318.849546 489.927982,319.129543 490.279984,319.489545 C490.631985,319.849547 490.907983,320.281543 491.107984,320.785545 C491.307985,321.289548 491.407984,321.837542 491.407984,322.429545 L491.407984,323.389545 L488.959984,323.389545 L488.959984,322.573545 C488.959984,322.093543 488.823985,321.677547 488.551984,321.325545 C488.279982,320.973543 487.911986,320.797545 487.447984,320.797545 C486.839981,320.797545 486.435985,320.985543 486.235984,321.361545 C486.035983,321.737547 485.935984,322.213542 485.935984,322.789545 L485.935984,331.525545 C485.935984,332.021548 486.043982,332.437543 486.259984,332.773545 C486.475985,333.109547 486.863981,333.277545 487.423984,333.277545 C487.583984,333.277545 487.755983,333.249545 487.939984,333.193545 C488.123984,333.137545 488.291983,333.045546 488.443984,332.917545 C488.595984,332.789544 488.719983,332.613546 488.815984,332.389545 C488.911984,332.165544 488.959984,331.885547 488.959984,331.549545 L488.959984,330.709545 L491.407984,330.709545 L491.407984,331.765545 Z M493.399984,318.493545 L500.695984,318.493545 L500.695984,320.797545 L495.847984,320.797545 L495.847984,325.813545 L500.071984,325.813545 L500.071984,328.117545 L495.847984,328.117545 L495.847984,333.133545 L500.695984,333.133545 L500.695984,335.581545 L493.399984,335.581545 L493.399984,318.493545 Z" id="EXCELLENCE" fill="#FFFFFF" transform="translate(455.299984, 327.037545) rotate(30.000000) translate(-455.299984, -327.037545) "></path>
                <path d="M538.56,158.66 L536.52,158.66 L536.52,158.2 C536.52,157.733331 536.410001,157.330002 536.19,156.99 C535.969999,156.649998 535.600003,156.48 535.08,156.48 C534.799999,156.48 534.570001,156.533333 534.39,156.64 C534.209999,156.746667 534.07,156.883333 533.97,157.05 C533.869999,157.216668 533.8,157.409999 533.76,157.63 C533.72,157.850001 533.7,158.079999 533.7,158.32 C533.7,158.600002 533.71,158.836666 533.73,159.03 C533.75,159.223334 533.8,159.389999 533.88,159.53 C533.96,159.670001 534.076666,159.793333 534.23,159.9 C534.383334,160.006667 534.593332,160.113333 534.86,160.22 L536.42,160.84 C536.873336,161.013334 537.239999,161.216666 537.52,161.45 C537.800001,161.683335 538.016666,161.956665 538.17,162.27 C538.323334,162.583335 538.426666,162.943331 538.48,163.35 C538.533334,163.756669 538.56,164.219998 538.56,164.74 C538.56,165.340003 538.500001,165.896664 538.38,166.41 C538.259999,166.923336 538.063335,167.363332 537.79,167.73 C537.516665,168.096669 537.153336,168.386666 536.7,168.6 C536.246664,168.813335 535.693337,168.92 535.04,168.92 C534.546664,168.92 534.086669,168.833334 533.66,168.66 C533.233331,168.486666 532.866668,168.250002 532.56,167.95 C532.253332,167.649999 532.010001,167.293336 531.83,166.88 C531.649999,166.466665 531.56,166.020003 531.56,165.54 L531.56,164.78 L533.6,164.78 L533.6,165.42 C533.6,165.793335 533.709999,166.129999 533.93,166.43 C534.150001,166.730002 534.519997,166.88 535.04,166.88 C535.386668,166.88 535.656666,166.830001 535.85,166.73 C536.043334,166.63 536.189999,166.490001 536.29,166.31 C536.390001,166.129999 536.453333,165.906668 536.48,165.64 C536.506667,165.373332 536.52,165.080002 536.52,164.76 C536.52,164.386665 536.506667,164.080001 536.48,163.84 C536.453333,163.599999 536.396667,163.406668 536.31,163.26 C536.223333,163.113333 536.103334,162.993334 535.95,162.9 C535.796666,162.806666 535.593335,162.706667 535.34,162.6 L533.88,162 C532.999996,161.639998 532.410002,161.163336 532.11,160.57 C531.809999,159.976664 531.66,159.233338 531.66,158.34 C531.66,157.806664 531.733333,157.300003 531.88,156.82 C532.026667,156.339998 532.243332,155.926669 532.53,155.58 C532.816668,155.233332 533.179998,154.956668 533.62,154.75 C534.060002,154.543332 534.57333,154.44 535.16,154.44 C535.666669,154.44 536.129998,154.533333 536.55,154.72 C536.970002,154.906668 537.329998,155.153332 537.63,155.46 C537.930002,155.766668 538.159999,156.109998 538.32,156.49 C538.480001,156.870002 538.56,157.259998 538.56,157.66 L538.56,158.66 Z M539.96,157.92 C539.96,157.346664 540.059999,156.840002 540.26,156.4 C540.460001,155.959998 540.723332,155.596668 541.05,155.31 C541.376668,155.023332 541.743331,154.806668 542.15,154.66 C542.556669,154.513333 542.966665,154.44 543.38,154.44 C543.793335,154.44 544.203331,154.513333 544.61,154.66 C545.016669,154.806668 545.383332,155.023332 545.71,155.31 C546.036668,155.596668 546.299999,155.959998 546.5,156.4 C546.700001,156.840002 546.8,157.346664 546.8,157.92 L546.8,165.44 C546.8,166.02667 546.700001,166.536665 546.5,166.97 C546.299999,167.403336 546.036668,167.763332 545.71,168.05 C545.383332,168.336668 545.016669,168.553333 544.61,168.7 C544.203331,168.846668 543.793335,168.92 543.38,168.92 C542.966665,168.92 542.556669,168.846668 542.15,168.7 C541.743331,168.553333 541.376668,168.336668 541.05,168.05 C540.723332,167.763332 540.460001,167.403336 540.26,166.97 C540.059999,166.536665 539.96,166.02667 539.96,165.44 L539.96,157.92 Z M542,165.44 C542,165.933336 542.136665,166.296666 542.41,166.53 C542.683335,166.763335 543.006665,166.88 543.38,166.88 C543.753335,166.88 544.076665,166.763335 544.35,166.53 C544.623335,166.296666 544.76,165.933336 544.76,165.44 L544.76,157.92 C544.76,157.426664 544.623335,157.063335 544.35,156.83 C544.076665,156.596666 543.753335,156.48 543.38,156.48 C543.006665,156.48 542.683335,156.596666 542.41,156.83 C542.136665,157.063335 542,157.426664 542,157.92 L542,165.44 Z M555.08,165.62 C555.08,166.060002 554.996668,166.479998 554.83,166.88 C554.663333,167.280002 554.433335,167.629999 554.14,167.93 C553.846665,168.230002 553.503335,168.469999 553.11,168.65 C552.716665,168.830001 552.293336,168.92 551.84,168.92 C551.453331,168.92 551.060002,168.866667 550.66,168.76 C550.259998,168.653333 549.900002,168.470001 549.58,168.21 C549.259998,167.949999 548.996668,167.606669 548.79,167.18 C548.583332,166.753331 548.48,166.213337 548.48,165.56 L548.48,157.72 C548.48,157.253331 548.559999,156.820002 548.72,156.42 C548.880001,156.019998 549.106665,155.673335 549.4,155.38 C549.693335,155.086665 550.043331,154.856668 550.45,154.69 C550.856669,154.523333 551.306664,154.44 551.8,154.44 C552.266669,154.44 552.699998,154.523333 553.1,154.69 C553.500002,154.856668 553.846665,155.089999 554.14,155.39 C554.433335,155.690002 554.663333,156.049998 554.83,156.47 C554.996668,156.890002 555.08,157.346664 555.08,157.84 L555.08,158.64 L553.04,158.64 L553.04,157.96 C553.04,157.559998 552.926668,157.213335 552.7,156.92 C552.473332,156.626665 552.166669,156.48 551.78,156.48 C551.273331,156.48 550.936667,156.636665 550.77,156.95 C550.603332,157.263335 550.52,157.659998 550.52,158.14 L550.52,165.42 C550.52,165.833336 550.609999,166.179999 550.79,166.46 C550.970001,166.740002 551.293331,166.88 551.76,166.88 C551.893334,166.88 552.036666,166.856667 552.19,166.81 C552.343334,166.763333 552.483333,166.686667 552.61,166.58 C552.736667,166.473333 552.84,166.326668 552.92,166.14 C553,165.953333 553.04,165.720002 553.04,165.44 L553.04,164.74 L555.08,164.74 L555.08,165.62 Z M556.8,154.56 L558.84,154.56 L558.84,168.8 L556.8,168.8 L556.8,154.56 Z M563.94,158.66 L563.9,158.66 L562.9,163.82 L564.94,163.82 L563.94,158.66 Z M563.08,154.56 L564.78,154.56 L567.96,168.8 L565.92,168.8 L565.32,165.74 L562.54,165.74 L561.94,168.8 L559.9,168.8 L563.08,154.56 Z M568.96,154.56 L571,154.56 L571,166.76 L575.04,166.76 L575.04,168.8 L568.96,168.8 L568.96,154.56 Z M531.96,176.56 L538.04,176.56 L538.04,178.48 L534,178.48 L534,182.66 L537.52,182.66 L537.52,184.58 L534,184.58 L534,188.76 L538.04,188.76 L538.04,190.8 L531.96,190.8 L531.96,176.56 Z M539.28,176.56 L541.24,176.56 L544.32,185.14 L544.36,185.14 L544.36,176.56 L546.4,176.56 L546.4,190.8 L544.48,190.8 L541.36,182.24 L541.32,182.24 L541.32,190.8 L539.28,190.8 L539.28,176.56 Z M548.12,179.92 C548.12,179.346664 548.219999,178.840002 548.42,178.4 C548.620001,177.959998 548.883332,177.596668 549.21,177.31 C549.536668,177.023332 549.903331,176.806668 550.31,176.66 C550.716669,176.513333 551.126665,176.44 551.54,176.44 C551.953335,176.44 552.363331,176.513333 552.77,176.66 C553.176669,176.806668 553.543332,177.023332 553.87,177.31 C554.196668,177.596668 554.459999,177.959998 554.66,178.4 C554.860001,178.840002 554.96,179.346664 554.96,179.92 L554.96,180.64 L552.92,180.64 L552.92,179.92 C552.92,179.426664 552.783335,179.063335 552.51,178.83 C552.236665,178.596666 551.913335,178.48 551.54,178.48 C551.166665,178.48 550.843335,178.596666 550.57,178.83 C550.296665,179.063335 550.16,179.426664 550.16,179.92 L550.16,187.44 C550.16,187.933336 550.296665,188.296666 550.57,188.53 C550.843335,188.763335 551.166665,188.88 551.54,188.88 C551.913335,188.88 552.236665,188.763335 552.51,188.53 C552.783335,188.296666 552.92,187.933336 552.92,187.44 L552.92,184.76 L551.3,184.76 L551.3,182.96 L554.96,182.96 L554.96,187.44 C554.96,188.02667 554.860001,188.536665 554.66,188.97 C554.459999,189.403336 554.196668,189.763332 553.87,190.05 C553.543332,190.336668 553.176669,190.553333 552.77,190.7 C552.363331,190.846668 551.953335,190.92 551.54,190.92 C551.126665,190.92 550.716669,190.846668 550.31,190.7 C549.903331,190.553333 549.536668,190.336668 549.21,190.05 C548.883332,189.763332 548.620001,189.403336 548.42,188.97 C548.219999,188.536665 548.12,188.02667 548.12,187.44 L548.12,179.92 Z M559.88,180.66 L559.84,180.66 L558.84,185.82 L560.88,185.82 L559.88,180.66 Z M559.02,176.56 L560.72,176.56 L563.9,190.8 L561.86,190.8 L561.26,187.74 L558.48,187.74 L557.88,190.8 L555.84,190.8 L559.02,176.56 Z M564.78,179.92 C564.78,179.346664 564.879999,178.840002 565.08,178.4 C565.280001,177.959998 565.543332,177.596668 565.87,177.31 C566.196668,177.023332 566.563331,176.806668 566.97,176.66 C567.376669,176.513333 567.786665,176.44 568.2,176.44 C568.613335,176.44 569.023331,176.513333 569.43,176.66 C569.836669,176.806668 570.203332,177.023332 570.53,177.31 C570.856668,177.596668 571.119999,177.959998 571.32,178.4 C571.520001,178.840002 571.62,179.346664 571.62,179.92 L571.62,180.64 L569.58,180.64 L569.58,179.92 C569.58,179.426664 569.443335,179.063335 569.17,178.83 C568.896665,178.596666 568.573335,178.48 568.2,178.48 C567.826665,178.48 567.503335,178.596666 567.23,178.83 C566.956665,179.063335 566.82,179.426664 566.82,179.92 L566.82,187.44 C566.82,187.933336 566.956665,188.296666 567.23,188.53 C567.503335,188.763335 567.826665,188.88 568.2,188.88 C568.573335,188.88 568.896665,188.763335 569.17,188.53 C569.443335,188.296666 569.58,187.933336 569.58,187.44 L569.58,184.76 L567.96,184.76 L567.96,182.96 L571.62,182.96 L571.62,187.44 C571.62,188.02667 571.520001,188.536665 571.32,188.97 C571.119999,189.403336 570.856668,189.763332 570.53,190.05 C570.203332,190.336668 569.836669,190.553333 569.43,190.7 C569.023331,190.846668 568.613335,190.92 568.2,190.92 C567.786665,190.92 567.376669,190.846668 566.97,190.7 C566.563331,190.553333 566.196668,190.336668 565.87,190.05 C565.543332,189.763332 565.280001,189.403336 565.08,188.97 C564.879999,188.536665 564.78,188.02667 564.78,187.44 L564.78,179.92 Z M573.42,176.56 L579.5,176.56 L579.5,178.48 L575.46,178.48 L575.46,182.66 L578.98,182.66 L578.98,184.58 L575.46,184.58 L575.46,188.76 L579.5,188.76 L579.5,190.8 L573.42,190.8 L573.42,176.56 Z M580.82,176.56 L582.78,176.56 L585.4,184.1 L585.44,184.1 L588.04,176.56 L590.02,176.56 L590.02,190.8 L587.98,190.8 L587.98,182.14 L587.94,182.14 L585.92,188.26 L584.9,188.26 L582.9,182.14 L582.86,182.14 L582.86,190.8 L580.82,190.8 L580.82,176.56 Z M591.94,176.56 L598.02,176.56 L598.02,178.48 L593.98,178.48 L593.98,182.66 L597.5,182.66 L597.5,184.58 L593.98,184.58 L593.98,188.76 L598.02,188.76 L598.02,190.8 L591.94,190.8 L591.94,176.56 Z M599.26,176.56 L601.22,176.56 L604.3,185.14 L604.34,185.14 L604.34,176.56 L606.38,176.56 L606.38,190.8 L604.46,190.8 L601.34,182.24 L601.3,182.24 L601.3,190.8 L599.26,190.8 L599.26,176.56 Z M609.56,178.48 L607.2,178.48 L607.2,176.56 L613.96,176.56 L613.96,178.48 L611.6,178.48 L611.6,190.8 L609.56,190.8 L609.56,178.48 Z" id="SOCIAL-" fill="#FFFFFF"></path>
                <path d="M454.620173,66.635385 L457.068173,66.635385 L457.068173,73.955385 L460.092173,73.955385 L460.092173,66.635385 L462.540173,66.635385 L462.540173,83.723385 L460.092173,83.723385 L460.092173,76.115385 L457.068173,76.115385 L457.068173,83.723385 L454.620173,83.723385 L454.620173,66.635385 Z M464.916173,66.635385 L467.364173,66.635385 L467.364173,83.723385 L464.916173,83.723385 L464.916173,66.635385 Z M477.660173,71.555385 L475.212173,71.555385 L475.212173,71.003385 C475.212173,70.4433822 475.080175,69.959387 474.816173,69.551385 C474.552172,69.1433829 474.108176,68.939385 473.484173,68.939385 C473.148172,68.939385 472.872174,69.0033843 472.656173,69.131385 C472.440172,69.2593856 472.272174,69.423384 472.152173,69.623385 C472.032173,69.823386 471.948173,70.0553837 471.900173,70.319385 C471.852173,70.5833863 471.828173,70.8593835 471.828173,71.147385 C471.828173,71.4833867 471.840173,71.7673838 471.864173,71.999385 C471.888173,72.2313861 471.948173,72.4313841 472.044173,72.599385 C472.140174,72.7673858 472.280172,72.9153843 472.464173,73.043385 C472.648174,73.1713856 472.900172,73.2993843 473.220173,73.427385 L475.092173,74.171385 C475.636176,74.379386 476.076172,74.6233836 476.412173,74.903385 C476.748175,75.1833864 477.008172,75.5113831 477.192173,75.887385 C477.376174,76.2633869 477.500173,76.6953825 477.564173,77.183385 C477.628174,77.6713874 477.660173,78.2273819 477.660173,78.851385 C477.660173,79.5713886 477.588174,80.2393819 477.444173,80.855385 C477.300173,81.4713881 477.064175,81.9993828 476.736173,82.439385 C476.408172,82.8793872 475.972176,83.2273837 475.428173,83.483385 C474.884171,83.7393863 474.220177,83.867385 473.436173,83.867385 C472.84417,83.867385 472.292176,83.763386 471.780173,83.555385 C471.268171,83.3473839 470.828175,83.0633868 470.460173,82.703385 C470.092171,82.3433832 469.800174,81.9153875 469.584173,81.419385 C469.368172,80.9233825 469.260173,80.3873879 469.260173,79.811385 L469.260173,78.899385 L471.708173,78.899385 L471.708173,79.667385 C471.708173,80.1153872 471.840172,80.5193832 472.104173,80.879385 C472.368175,81.2393868 472.81217,81.419385 473.436173,81.419385 C473.852175,81.419385 474.176172,81.3593856 474.408173,81.239385 C474.640174,81.1193844 474.816173,80.9513861 474.936173,80.735385 C475.056174,80.5193839 475.132173,80.2513866 475.164173,79.931385 C475.196173,79.6113834 475.212173,79.2593869 475.212173,78.875385 C475.212173,78.4273827 475.196173,78.0593864 475.164173,77.771385 C475.132173,77.4833835 475.064174,77.2513859 474.960173,77.075385 C474.856173,76.8993841 474.712174,76.7553855 474.528173,76.643385 C474.344172,76.5313844 474.100175,76.4113856 473.796173,76.283385 L472.044173,75.563385 C470.988168,75.1313828 470.280175,74.5593885 469.920173,73.847385 C469.560171,73.1353814 469.380173,72.2433903 469.380173,71.171385 C469.380173,70.5313818 469.468172,69.9233879 469.644173,69.347385 C469.820174,68.7713821 470.080172,68.2753871 470.424173,67.859385 C470.768175,67.4433829 471.204171,67.1113862 471.732173,66.863385 C472.260176,66.6153837 472.87617,66.491385 473.580173,66.491385 C474.188176,66.491385 474.744171,66.6033839 475.248173,66.827385 C475.752176,67.0513861 476.184171,67.3473831 476.544173,67.715385 C476.904175,68.0833868 477.180172,68.4953827 477.372173,68.951385 C477.564174,69.4073873 477.660173,69.8753826 477.660173,70.355385 L477.660173,71.555385 Z M481.092173,68.939385 L478.260173,68.939385 L478.260173,66.635385 L486.372173,66.635385 L486.372173,68.939385 L483.540173,68.939385 L483.540173,83.723385 L481.092173,83.723385 L481.092173,68.939385 Z M487.308173,70.667385 C487.308173,69.9793815 487.428172,69.3713876 487.668173,68.843385 C487.908174,68.3153823 488.224171,67.8793867 488.616173,67.535385 C489.008175,67.1913833 489.448171,66.9313859 489.936173,66.755385 C490.424176,66.5793841 490.916171,66.491385 491.412173,66.491385 C491.908176,66.491385 492.400171,66.5793841 492.888173,66.755385 C493.376176,66.9313859 493.816171,67.1913833 494.208173,67.535385 C494.600175,67.8793867 494.916172,68.3153823 495.156173,68.843385 C495.396174,69.3713876 495.516173,69.9793815 495.516173,70.667385 L495.516173,79.691385 C495.516173,80.3953885 495.396174,81.0073824 495.156173,81.527385 C494.916172,82.0473876 494.600175,82.4793833 494.208173,82.823385 C493.816171,83.1673867 493.376176,83.4273841 492.888173,83.603385 C492.400171,83.7793859 491.908176,83.867385 491.412173,83.867385 C490.916171,83.867385 490.424176,83.7793859 489.936173,83.603385 C489.448171,83.4273841 489.008175,83.1673867 488.616173,82.823385 C488.224171,82.4793833 487.908174,82.0473876 487.668173,81.527385 C487.428172,81.0073824 487.308173,80.3953885 487.308173,79.691385 L487.308173,70.667385 Z M489.756173,79.691385 C489.756173,80.2833879 489.920172,80.7193836 490.248173,80.999385 C490.576175,81.2793864 490.964171,81.419385 491.412173,81.419385 C491.860175,81.419385 492.248172,81.2793864 492.576173,80.999385 C492.904175,80.7193836 493.068173,80.2833879 493.068173,79.691385 L493.068173,70.667385 C493.068173,70.075382 492.904175,69.6393864 492.576173,69.359385 C492.248172,69.0793836 491.860175,68.939385 491.412173,68.939385 C490.964171,68.939385 490.576175,69.0793836 490.248173,69.359385 C489.920172,69.6393864 489.756173,70.075382 489.756173,70.667385 L489.756173,79.691385 Z M497.748173,66.635385 L500.196173,66.635385 L500.196173,83.723385 L497.748173,83.723385 L497.748173,66.635385 Z M505.020173,74.267385 L506.412173,74.267385 C506.844175,74.267385 507.188172,74.2073856 507.444173,74.087385 C507.700175,73.9673844 507.896173,73.7953861 508.032173,73.571385 C508.168174,73.3473839 508.260173,73.0713866 508.308173,72.743385 C508.356173,72.4153833 508.380173,72.0353871 508.380173,71.603385 C508.380173,71.1713828 508.356173,70.7913866 508.308173,70.463385 C508.260173,70.1353833 508.160174,69.8553861 508.008173,69.623385 C507.856172,69.3913838 507.644175,69.2193855 507.372173,69.107385 C507.100172,68.9953844 506.740175,68.939385 506.292173,68.939385 L505.020173,68.939385 L505.020173,74.267385 Z M502.572173,66.635385 L506.508173,66.635385 C509.388188,66.635385 510.828173,68.3073683 510.828173,71.651385 C510.828173,72.6433899 510.672175,73.4953814 510.360173,74.207385 C510.048172,74.9193885 509.500177,75.4913828 508.716173,75.923385 L511.356173,83.723385 L508.764173,83.723385 L506.484173,76.427385 L505.020173,76.427385 L505.020173,83.723385 L502.572173,83.723385 L502.572173,66.635385 Z M512.796173,66.635385 L520.092173,66.635385 L520.092173,68.939385 L515.244173,68.939385 L515.244173,73.955385 L519.468173,73.955385 L519.468173,76.259385 L515.244173,76.259385 L515.244173,81.275385 L520.092173,81.275385 L520.092173,83.723385 L512.796173,83.723385 L512.796173,66.635385 Z M456.228173,95.339385 L453.396173,95.339385 L453.396173,93.035385 L461.508173,93.035385 L461.508173,95.339385 L458.676173,95.339385 L458.676173,110.123385 L456.228173,110.123385 L456.228173,95.339385 Z M465.036173,100.667385 L466.428173,100.667385 C466.860175,100.667385 467.204172,100.607386 467.460173,100.487385 C467.716175,100.367384 467.912173,100.195386 468.048173,99.971385 C468.184174,99.7473839 468.276173,99.4713866 468.324173,99.143385 C468.372173,98.8153833 468.396173,98.4353871 468.396173,98.003385 C468.396173,97.5713828 468.372173,97.1913866 468.324173,96.863385 C468.276173,96.5353833 468.176174,96.2553861 468.024173,96.023385 C467.872172,95.7913838 467.660175,95.6193855 467.388173,95.507385 C467.116172,95.3953844 466.756175,95.339385 466.308173,95.339385 L465.036173,95.339385 L465.036173,100.667385 Z M462.588173,93.035385 L466.524173,93.035385 C469.404188,93.035385 470.844173,94.7073683 470.844173,98.051385 C470.844173,99.0433899 470.688175,99.8953814 470.376173,100.607385 C470.064172,101.319389 469.516177,101.891383 468.732173,102.323385 L471.372173,110.123385 L468.780173,110.123385 L466.500173,102.827385 L465.036173,102.827385 L465.036173,110.123385 L462.588173,110.123385 L462.588173,93.035385 Z M476.556173,97.955385 L476.508173,97.955385 L475.308173,104.147385 L477.756173,104.147385 L476.556173,97.955385 Z M475.524173,93.035385 L477.564173,93.035385 L481.380173,110.123385 L478.932173,110.123385 L478.212173,106.451385 L474.876173,106.451385 L474.156173,110.123385 L471.708173,110.123385 L475.524173,93.035385 Z M482.580173,93.035385 L486.204173,93.035385 C487.59618,93.035385 488.66017,93.4233811 489.396173,94.199385 C490.132177,94.9753889 490.500173,96.059378 490.500173,97.451385 L490.500173,105.443385 C490.500173,107.043393 490.112177,108.223381 489.336173,108.983385 C488.560169,109.743389 487.444181,110.123385 485.988173,110.123385 L482.580173,110.123385 L482.580173,93.035385 Z M485.028173,107.819385 L486.156173,107.819385 C486.844177,107.819385 487.332172,107.647387 487.620173,107.303385 C487.908175,106.959383 488.052173,106.419389 488.052173,105.683385 L488.052173,97.451385 C488.052173,96.7793816 487.916175,96.2593868 487.644173,95.891385 C487.372172,95.5233831 486.876177,95.339385 486.156173,95.339385 L485.028173,95.339385 L485.028173,107.819385 Z M492.876173,93.035385 L495.324173,93.035385 L495.324173,110.123385 L492.876173,110.123385 L492.876173,93.035385 Z M499.308173,95.339385 L496.476173,95.339385 L496.476173,93.035385 L504.588173,93.035385 L504.588173,95.339385 L501.756173,95.339385 L501.756173,110.123385 L499.308173,110.123385 L499.308173,95.339385 Z M505.740173,93.035385 L508.188173,93.035385 L508.188173,110.123385 L505.740173,110.123385 L505.740173,93.035385 Z M510.420173,97.067385 C510.420173,96.3793815 510.540172,95.7713876 510.780173,95.243385 C511.020174,94.7153823 511.336171,94.2793867 511.728173,93.935385 C512.120175,93.5913833 512.560171,93.3313859 513.048173,93.155385 C513.536176,92.9793841 514.028171,92.891385 514.524173,92.891385 C515.020176,92.891385 515.512171,92.9793841 516.000173,93.155385 C516.488176,93.3313859 516.928171,93.5913833 517.320173,93.935385 C517.712175,94.2793867 518.028172,94.7153823 518.268173,95.243385 C518.508174,95.7713876 518.628173,96.3793815 518.628173,97.067385 L518.628173,106.091385 C518.628173,106.795389 518.508174,107.407382 518.268173,107.927385 C518.028172,108.447388 517.712175,108.879383 517.320173,109.223385 C516.928171,109.567387 516.488176,109.827384 516.000173,110.003385 C515.512171,110.179386 515.020176,110.267385 514.524173,110.267385 C514.028171,110.267385 513.536176,110.179386 513.048173,110.003385 C512.560171,109.827384 512.120175,109.567387 511.728173,109.223385 C511.336171,108.879383 511.020174,108.447388 510.780173,107.927385 C510.540172,107.407382 510.420173,106.795389 510.420173,106.091385 L510.420173,97.067385 Z M512.868173,106.091385 C512.868173,106.683388 513.032172,107.119384 513.360173,107.399385 C513.688175,107.679386 514.076171,107.819385 514.524173,107.819385 C514.972175,107.819385 515.360172,107.679386 515.688173,107.399385 C516.016175,107.119384 516.180173,106.683388 516.180173,106.091385 L516.180173,97.067385 C516.180173,96.475382 516.016175,96.0393864 515.688173,95.759385 C515.360172,95.4793836 514.972175,95.339385 514.524173,95.339385 C514.076171,95.339385 513.688175,95.4793836 513.360173,95.759385 C513.032172,96.0393864 512.868173,96.475382 512.868173,97.067385 L512.868173,106.091385 Z M520.692173,93.035385 L523.044173,93.035385 L526.740173,103.331385 L526.788173,103.331385 L526.788173,93.035385 L529.236173,93.035385 L529.236173,110.123385 L526.932173,110.123385 L523.188173,99.851385 L523.140173,99.851385 L523.140173,110.123385 L520.692173,110.123385 L520.692173,93.035385 Z M462.396173,132.707385 C462.396173,133.235388 462.296174,133.739383 462.096173,134.219385 C461.896172,134.699387 461.620175,135.119383 461.268173,135.479385 C460.916171,135.839387 460.504176,136.127384 460.032173,136.343385 C459.560171,136.559386 459.052176,136.667385 458.508173,136.667385 C458.044171,136.667385 457.572176,136.603386 457.092173,136.475385 C456.612171,136.347384 456.180175,136.127387 455.796173,135.815385 C455.412171,135.503383 455.096174,135.091388 454.848173,134.579385 C454.600172,134.067382 454.476173,133.419389 454.476173,132.635385 L454.476173,123.227385 C454.476173,122.667382 454.572172,122.147387 454.764173,121.667385 C454.956174,121.187383 455.228171,120.771387 455.580173,120.419385 C455.932175,120.067383 456.352171,119.791386 456.840173,119.591385 C457.328176,119.391384 457.86817,119.291385 458.460173,119.291385 C459.020176,119.291385 459.540171,119.391384 460.020173,119.591385 C460.500176,119.791386 460.916171,120.071383 461.268173,120.431385 C461.620175,120.791387 461.896172,121.223382 462.096173,121.727385 C462.296174,122.231388 462.396173,122.779382 462.396173,123.371385 L462.396173,124.331385 L459.948173,124.331385 L459.948173,123.515385 C459.948173,123.035383 459.812175,122.619387 459.540173,122.267385 C459.268172,121.915383 458.900176,121.739385 458.436173,121.739385 C457.82817,121.739385 457.424174,121.927383 457.224173,122.303385 C457.024172,122.679387 456.924173,123.155382 456.924173,123.731385 L456.924173,132.467385 C456.924173,132.963387 457.032172,133.379383 457.248173,133.715385 C457.464174,134.051387 457.85217,134.219385 458.412173,134.219385 C458.572174,134.219385 458.744172,134.191385 458.928173,134.135385 C459.112174,134.079385 459.280172,133.987386 459.432173,133.859385 C459.584174,133.731384 459.708173,133.555386 459.804173,133.331385 C459.900174,133.107384 459.948173,132.827387 459.948173,132.491385 L459.948173,131.651385 L462.396173,131.651385 L462.396173,132.707385 Z M472.308173,132.683385 C472.308173,133.243388 472.204174,133.763383 471.996173,134.243385 C471.788172,134.723387 471.504175,135.143383 471.144173,135.503385 C470.784171,135.863387 470.364176,136.147384 469.884173,136.355385 C469.404171,136.563386 468.892176,136.667385 468.348173,136.667385 C467.804171,136.667385 467.292176,136.563386 466.812173,136.355385 C466.332171,136.147384 465.912175,135.863387 465.552173,135.503385 C465.192171,135.143383 464.908174,134.723387 464.700173,134.243385 C464.492172,133.763383 464.388173,133.243388 464.388173,132.683385 L464.388173,119.435385 L466.836173,119.435385 L466.836173,132.443385 C466.836173,133.051388 466.980172,133.499384 467.268173,133.787385 C467.556175,134.075386 467.916171,134.219385 468.348173,134.219385 C468.780175,134.219385 469.140172,134.075386 469.428173,133.787385 C469.716175,133.499384 469.860173,133.051388 469.860173,132.443385 L469.860173,119.435385 L472.308173,119.435385 L472.308173,132.683385 Z M474.612173,119.435385 L477.060173,119.435385 L477.060173,134.075385 L481.908173,134.075385 L481.908173,136.523385 L474.612173,136.523385 L474.612173,119.435385 Z M485.100173,121.739385 L482.268173,121.739385 L482.268173,119.435385 L490.380173,119.435385 L490.380173,121.739385 L487.548173,121.739385 L487.548173,136.523385 L485.100173,136.523385 L485.100173,121.739385 Z M499.380173,132.683385 C499.380173,133.243388 499.276174,133.763383 499.068173,134.243385 C498.860172,134.723387 498.576175,135.143383 498.216173,135.503385 C497.856171,135.863387 497.436176,136.147384 496.956173,136.355385 C496.476171,136.563386 495.964176,136.667385 495.420173,136.667385 C494.876171,136.667385 494.364176,136.563386 493.884173,136.355385 C493.404171,136.147384 492.984175,135.863387 492.624173,135.503385 C492.264171,135.143383 491.980174,134.723387 491.772173,134.243385 C491.564172,133.763383 491.460173,133.243388 491.460173,132.683385 L491.460173,119.435385 L493.908173,119.435385 L493.908173,132.443385 C493.908173,133.051388 494.052172,133.499384 494.340173,133.787385 C494.628175,134.075386 494.988171,134.219385 495.420173,134.219385 C495.852175,134.219385 496.212172,134.075386 496.500173,133.787385 C496.788175,133.499384 496.932173,133.051388 496.932173,132.443385 L496.932173,119.435385 L499.380173,119.435385 L499.380173,132.683385 Z M504.132173,127.067385 L505.524173,127.067385 C505.956175,127.067385 506.300172,127.007386 506.556173,126.887385 C506.812175,126.767384 507.008173,126.595386 507.144173,126.371385 C507.280174,126.147384 507.372173,125.871387 507.420173,125.543385 C507.468173,125.215383 507.492173,124.835387 507.492173,124.403385 C507.492173,123.971383 507.468173,123.591387 507.420173,123.263385 C507.372173,122.935383 507.272174,122.655386 507.120173,122.423385 C506.968172,122.191384 506.756175,122.019386 506.484173,121.907385 C506.212172,121.795384 505.852175,121.739385 505.404173,121.739385 L504.132173,121.739385 L504.132173,127.067385 Z M501.684173,119.435385 L505.620173,119.435385 C508.500188,119.435385 509.940173,121.107368 509.940173,124.451385 C509.940173,125.44339 509.784175,126.295381 509.472173,127.007385 C509.160172,127.719389 508.612177,128.291383 507.828173,128.723385 L510.468173,136.523385 L507.876173,136.523385 L505.596173,129.227385 L504.132173,129.227385 L504.132173,136.523385 L501.684173,136.523385 L501.684173,119.435385 Z M511.908173,119.435385 L519.204173,119.435385 L519.204173,121.739385 L514.356173,121.739385 L514.356173,126.755385 L518.580173,126.755385 L518.580173,129.059385 L514.356173,129.059385 L514.356173,134.075385 L519.204173,134.075385 L519.204173,136.523385 L511.908173,136.523385 L511.908173,119.435385 Z" id="HISTOIRE-TRADITION-C" fill="#FFFFFF" transform="translate(491.316173, 101.579385) rotate(-31.000000) translate(-491.316173, -101.579385) "></path>
            </g>
        </g>
    </g>
</svg>