<?xml version="1.0" encoding="UTF-8" standalone="no"?>
<svg width="369px" height="44px" viewBox="0 0 369 44" version="1.1" xmlns="http://www.w3.org/2000/svg" xmlns:xlink="http://www.w3.org/1999/xlink">
    <!-- Generator: Sketch 39 (31667) - http://www.bohemiancoding.com/sketch -->
    <title>Ethical Charter</title>
    <desc>Created with Sketch.</desc>
    <defs></defs>
    <g id="Page-1" stroke="none" stroke-width="1" fill="none" fill-rule="evenodd">
        <g id="Homepage" transform="translate(-541.000000, -2975.000000)" fill="#FFFFFF">
            <path d="M567,2989.112 C567.850671,2989.42133 568.739995,2989.576 569.668,2989.576 C572.104012,2989.576 574.02766,2988.93801 575.439,2987.662 C576.85034,2986.38599 577.556,2984.47201 577.556,2981.92 C577.556,2980.10266 577.072671,2978.68167 576.106,2977.657 C575.139329,2976.63233 573.728009,2976.12 571.872,2976.12 C570.750661,2976.12 569.735671,2976.34233 568.827,2976.787 C567.918329,2977.23167 567.135337,2977.82133 566.478,2978.556 C565.820663,2979.29067 565.289002,2980.14133 564.883,2981.108 C564.476998,2982.07467 564.196667,2983.06066 564.042,2984.066 C563.809999,2985.41934 563.587668,2986.59866 563.375,2987.604 C563.162332,2988.60934 562.833669,2989.50833 562.389,2990.301 C561.944331,2991.09367 561.335337,2991.809 560.562,2992.447 C559.788663,2993.085 558.72534,2993.73266 557.372,2994.39 C555.825326,2995.12467 554.414006,2995.869 553.138,2996.623 C551.861994,2997.377 550.779338,2998.247 549.89,2999.233 C549.000662,3000.219 548.304669,3001.38866 547.802,3002.742 C547.299331,3004.09534 547.048,3005.73866 547.048,3007.672 C547.048,3009.21867 547.366997,3010.58166 548.005,3011.761 C548.643003,3012.94034 549.483995,3013.936 550.528,3014.748 C551.572005,3015.56 552.760993,3016.169 554.095,3016.575 C555.429007,3016.981 556.811326,3017.184 558.242,3017.184 C559.750008,3017.184 561.18066,3016.96167 562.534,3016.517 C563.88734,3016.07233 565.085995,3015.415 566.13,3014.545 C567.174005,3013.675 568.00533,3012.60201 568.624,3011.326 C569.24267,3010.04999 569.552,3008.60001 569.552,3006.976 C569.552,3005.35199 569.136337,3004.076 568.305,3003.148 C567.473663,3002.22 566.246008,3001.756 564.622,3001.756 C563.191326,3001.756 561.905672,3002.12333 560.765,3002.858 C559.624328,3003.59267 558.590005,3004.46266 557.662,3005.468 L557.256,3005.178 C558.648007,3003.74733 560.107659,3002.64534 561.635,3001.872 C563.162341,3001.09866 564.950656,3000.712 567,3000.712 C568.044005,3000.712 569.010662,3000.857 569.9,3001.147 C570.789338,3001.437 571.57233,3001.86233 572.249,3002.423 C572.92567,3002.98367 573.457331,3003.67966 573.844,3004.511 C574.230669,3005.34234 574.424,3006.27999 574.424,3007.324 C574.424,3009.33468 573.728007,3011.03599 572.336,3012.428 C570.943993,3013.82001 569.23301,3014.951 567.203,3015.821 C565.17299,3016.691 563.036678,3017.30966 560.794,3017.677 C558.551322,3018.04434 556.579342,3018.228 554.878,3018.228 C553.292659,3018.228 551.678342,3018.06367 550.035,3017.735 C548.391658,3017.40633 546.912673,3016.85534 545.598,3016.082 C544.283327,3015.30866 543.210337,3014.28401 542.379,3013.008 C541.547663,3011.73199 541.132,3010.12734 541.132,3008.194 C541.132,3006.29932 541.518663,3004.72367 542.292,3003.467 C543.065337,3002.21033 544.041661,3001.13734 545.221,3000.248 C546.400339,2999.35866 547.676326,2998.58534 549.049,2997.928 C550.421674,2997.27066 551.707327,2996.594 552.906,2995.898 C554.104673,2995.202 555.109996,2994.42867 555.922,2993.578 C556.734004,2992.72733 557.178666,2991.66401 557.256,2990.388 C557.410667,2987.60399 557.903663,2985.25501 558.735,2983.341 C559.566337,2981.42699 560.65866,2979.89001 562.012,2978.73 C563.36534,2977.56999 564.931324,2976.729 566.71,2976.207 C568.488676,2975.685 570.36399,2975.424 572.336,2975.424 C573.380005,2975.424 574.462661,2975.52067 575.584,2975.714 C576.705339,2975.90733 577.720329,2976.25533 578.629,2976.758 C579.537671,2977.26067 580.281997,2977.93733 580.862,2978.788 C581.442003,2979.63867 581.732,2980.70199 581.732,2981.978 C581.732,2983.37001 581.413003,2984.57833 580.775,2985.603 C580.136997,2986.62767 579.315338,2987.488 578.31,2988.184 C577.304662,2988.88 576.18334,2989.402 574.946,2989.75 C573.70866,2990.098 572.47134,2990.272 571.234,2990.272 C570.49933,2990.272 569.774337,2990.22367 569.059,2990.127 C568.343663,2990.03033 567.638003,2989.866 566.942,2989.634 L567,2989.112 Z M580.572,2997.928 L580.978,2996.884 L585.444,2996.884 L589.794,2989.576 L596.058,2989.344 L591.244,2996.884 L598.61,2996.884 L598.088,2997.928 L590.606,2997.928 C588.865991,3000.78935 587.396673,3003.19632 586.198,3005.149 C584.999327,3007.10168 584.042337,3008.72566 583.327,3010.021 C582.611663,3011.31634 582.089668,3012.35066 581.761,3013.124 C581.432332,3013.89734 581.268,3014.574 581.268,3015.154 C581.268,3015.65667 581.403332,3016.06267 581.674,3016.372 C581.944668,3016.68133 582.331331,3016.836 582.834,3016.836 C583.800672,3016.836 585.076659,3016.343 586.662,3015.357 C588.247341,3014.371 589.948658,3013.00801 591.766,3011.268 C593.00334,3010.03066 594.356659,3008.58067 595.826,3006.918 C597.295341,3005.25533 598.667994,3003.57334 599.944,3001.872 L600.292,3002.162 C599.402662,3003.32201 598.28134,3004.73333 596.928,3006.396 C595.57466,3008.05867 594.086008,3009.70199 592.462,3011.326 C591.572662,3012.21534 590.654338,3013.05633 589.707,3013.849 C588.759662,3014.64167 587.802671,3015.33766 586.836,3015.937 C585.869329,3016.53634 584.922005,3017.01 583.994,3017.358 C583.065995,3017.706 582.157338,3017.88 581.268,3017.88 C580.03066,3017.88 578.948005,3017.59967 578.02,3017.039 C577.091995,3016.47833 576.628,3015.50201 576.628,3014.11 C576.628,3013.10466 576.840665,3012.07034 577.266,3011.007 C577.691335,3009.94366 578.280996,3008.77401 579.035,3007.498 C579.789004,3006.22199 580.668662,3004.81067 581.674,3003.264 C582.679338,3001.71733 583.761994,2999.93868 584.922,2997.928 L580.572,2997.928 Z M589.04,3017.3 L613.342,2977.222 L619.664,2976.932 L600.408,3007.324 L600.524,3007.44 C601.374671,3006.43466 602.331661,3005.26501 603.395,3003.931 C604.458339,3002.59699 605.618327,3001.34034 606.875,3000.161 C608.131673,2998.98166 609.455993,2997.986 610.848,2997.174 C612.240007,2996.362 613.689992,2995.956 615.198,2995.956 C616.43534,2995.956 617.401997,2996.275 618.098,2996.913 C618.794003,2997.551 619.142,2998.50799 619.142,2999.784 C619.142,3000.82801 618.716671,3002.05566 617.866,3003.467 C617.015329,3004.87834 616.087338,3006.31866 615.082,3007.788 C614.076662,3009.25734 613.148671,3010.66866 612.298,3012.022 C611.447329,3013.37534 611.022,3014.516 611.022,3015.444 C611.022,3016.372 611.427996,3016.836 612.24,3016.836 C612.820003,3016.836 613.554662,3016.55567 614.444,3015.995 C615.333338,3015.43433 616.290328,3014.70934 617.315,3013.82 C618.339672,3012.93066 619.383661,3011.92534 620.447,3010.804 C621.510339,3009.68266 622.534995,3008.57101 623.521,3007.469 C624.507005,3006.36699 625.386663,3005.33267 626.16,3004.366 C626.933337,3003.39933 627.532665,3002.626 627.958,3002.046 L628.306,3002.394 C627.300662,3003.70867 626.09234,3005.21666 624.681,3006.918 C623.26966,3008.61934 621.790674,3010.26266 620.244,3011.848 C618.15599,3014.01334 616.377341,3015.56 614.908,3016.488 C613.438659,3017.416 611.930674,3017.88 610.384,3017.88 C608.991993,3017.88 607.977003,3017.474 607.339,3016.662 C606.700997,3015.85 606.382,3014.92201 606.382,3013.878 C606.382,3012.52466 606.807329,3011.16167 607.658,3009.789 C608.508671,3008.41633 609.436662,3007.07267 610.442,3005.758 C611.447338,3004.44333 612.375329,3003.20601 613.226,3002.046 C614.076671,3000.88599 614.502,2999.88067 614.502,2999.03 C614.502,2998.48866 614.347335,2998.073 614.038,2997.783 C613.728665,2997.493 613.380669,2997.348 612.994,2997.348 C612.143329,2997.348 611.186339,2997.70566 610.123,2998.421 C609.059661,2999.13634 607.938339,3000.06433 606.759,3001.205 C605.579661,3002.34567 604.400339,3003.64099 603.221,3005.091 C602.041661,3006.54101 600.920339,3007.99099 599.857,3009.441 C598.793661,3010.89101 597.846337,3012.29266 597.015,3013.646 C596.183663,3014.99934 595.516669,3016.15933 595.014,3017.126 L589.04,3017.3 Z M635.846,2996.884 C634.028658,2999.74535 632.462673,3002.19099 631.148,3004.221 C629.833327,3006.25101 628.760337,3007.98133 627.929,3009.412 C627.097663,3010.84267 626.479002,3012.01233 626.073,3012.921 C625.666998,3013.82967 625.464,3014.574 625.464,3015.154 C625.464,3015.618 625.550999,3015.995 625.725,3016.285 C625.899001,3016.575 626.159998,3016.72 626.508,3016.72 C627.281337,3016.72 628.37366,3016.27534 629.785,3015.386 C631.19634,3014.49666 632.965323,3012.96934 635.092,3010.804 C635.942671,3009.91466 636.773996,3009.035 637.586,3008.165 C638.398004,3007.295 639.161663,3006.454 639.877,3005.642 C640.592337,3004.83 641.230331,3004.09534 641.791,3003.438 C642.351669,3002.78066 642.805998,3002.25867 643.154,3001.872 L643.676,3002.22 C643.211998,3002.83867 642.64167,3003.54433 641.965,3004.337 C641.28833,3005.12967 640.563337,3005.961 639.79,3006.831 C639.016663,3007.701 638.224004,3008.56133 637.412,3009.412 C636.599996,3010.26267 635.807337,3011.07466 635.034,3011.848 C632.791322,3014.09068 630.867675,3015.65666 629.263,3016.546 C627.658325,3017.43534 626.17934,3017.88 624.826,3017.88 C623.549994,3017.88 622.564003,3017.532 621.868,3016.836 C621.171997,3016.14 620.824,3015.23134 620.824,3014.11 C620.824,3013.33666 620.968999,3012.53434 621.259,3011.703 C621.549001,3010.87166 622.041997,3009.83734 622.738,3008.6 C623.434003,3007.36266 624.361994,3005.82568 625.522,3003.989 C626.682006,3002.15232 628.131991,2999.88068 629.872,2997.174 L635.846,2996.884 Z M639.21,2984.008 C639.94467,2984.008 640.592331,2984.27866 641.153,2984.82 C641.713669,2985.36134 641.994,2985.99933 641.994,2986.734 C641.994,2987.50734 641.68467,2988.213 641.066,2988.851 C640.44733,2989.489 639.751337,2989.808 638.978,2989.808 C638.127329,2989.808 637.39267,2989.58567 636.774,2989.141 C636.15533,2988.69633 635.846,2988.02934 635.846,2987.14 C635.846,2986.25066 636.18433,2985.50634 636.861,2984.907 C637.53767,2984.30766 638.320662,2984.008 639.21,2984.008 L639.21,2984.008 Z M667.224,3002.336 C665.793326,3004.07601 664.246675,3005.88366 662.584,3007.759 C660.921325,3009.63434 659.13301,3011.34533 657.219,3012.892 C655.30499,3014.43867 653.255678,3015.71466 651.071,3016.72 C648.886322,3017.72534 646.576012,3018.228 644.14,3018.228 C641.819988,3018.228 640.04134,3017.59967 638.804,3016.343 C637.56666,3015.08633 636.948,3013.24001 636.948,3010.804 C636.948,3008.94799 637.489328,3007.13068 638.572,3005.352 C639.654672,3003.57332 641.046658,3001.98801 642.748,3000.596 C644.449342,2999.20399 646.324656,2998.08267 648.374,2997.232 C650.423344,2996.38133 652.414657,2995.956 654.348,2995.956 C656.126676,2995.956 657.537995,2996.31366 658.582,2997.029 C659.626005,2997.74434 660.148,2998.62399 660.148,2999.668 C660.148,3000.40267 660.003001,3001.06966 659.713,3001.669 C659.422999,3002.26834 659.046002,3002.771 658.582,3003.177 C658.117998,3003.583 657.596003,3003.89233 657.016,3004.105 C656.435997,3004.31767 655.856003,3004.424 655.276,3004.424 C654.773331,3004.424 654.328669,3004.38533 653.942,3004.308 C654.212668,3003.41866 654.502665,3002.51 654.812,3001.582 C655.121335,3000.654 655.276,2999.726 655.276,2998.798 C655.276,2998.14066 655.121335,2997.61867 654.812,2997.232 C654.502665,2996.84533 654.077336,2996.652 653.536,2996.652 C652.530662,2996.652 651.390006,2997.04833 650.114,2997.841 C648.837994,2998.63367 647.639339,2999.69699 646.518,3001.031 C645.396661,3002.36501 644.449337,3003.89232 643.676,3005.613 C642.902663,3007.33368 642.516,3009.12199 642.516,3010.978 C642.516,3012.44734 642.960662,3013.69433 643.85,3014.719 C644.739338,3015.74367 645.976659,3016.256 647.562,3016.256 C649.456676,3016.256 651.341657,3015.73401 653.217,3014.69 C655.092343,3013.64599 656.870992,3012.37967 658.553,3010.891 C660.235008,3009.40233 661.771993,3007.85567 663.164,3006.251 C664.556007,3004.64633 665.735329,3003.26401 666.702,3002.104 L667.224,3002.336 Z M683.232,2997.232 L689.264,2996.884 C688.915998,2997.58 688.413337,2998.421 687.756,2999.407 C687.098663,3000.393 686.383337,3001.45633 685.61,3002.597 C684.836663,3003.73767 684.053671,3004.91699 683.261,3006.135 C682.468329,3007.35301 681.743337,3008.53233 681.086,3009.673 C680.428663,3010.81367 679.897002,3011.877 679.491,3012.863 C679.084998,3013.849 678.882,3014.69 678.882,3015.386 C678.882,3016.35267 679.365329,3016.836 680.332,3016.836 C681.260005,3016.836 682.516659,3016.29467 684.102,3015.212 C685.687341,3014.12933 687.349991,3012.69868 689.09,3010.92 C689.82467,3010.18533 690.568996,3009.39267 691.323,3008.542 C692.077004,3007.69133 692.801997,3006.85034 693.498,3006.019 C694.194003,3005.18766 694.831997,3004.41434 695.412,3003.699 C695.992003,3002.98366 696.455998,3002.394 696.804,3001.93 L697.21,3002.162 C696.204662,3003.51534 695.044673,3005.01366 693.73,3006.657 C692.415327,3008.30034 690.830009,3010.04999 688.974,3011.906 C687.117991,3013.76201 685.291009,3015.27966 683.493,3016.459 C681.694991,3017.63834 679.906676,3018.228 678.128,3018.228 C676.89066,3018.228 675.93367,3017.909 675.257,3017.271 C674.58033,3016.633 674.242,3015.85 674.242,3014.922 C674.242,3014.61267 674.261333,3014.32267 674.3,3014.052 C674.338667,3013.78133 674.396666,3013.56867 674.474,3013.414 L674.358,3013.414 C673.159327,3014.76734 671.806008,3015.908 670.298,3016.836 C668.789992,3017.764 667.166009,3018.228 665.426,3018.228 C664.497995,3018.228 663.705337,3018.054 663.048,3017.706 C662.390663,3017.358 661.859002,3016.88434 661.453,3016.285 C661.046998,3015.68566 660.747334,3015.009 660.554,3014.255 C660.360666,3013.501 660.264,3012.718 660.264,3011.906 C660.264,3010.01132 660.785995,3008.11668 661.83,3006.222 C662.874005,3004.32732 664.188659,3002.61634 665.774,3001.089 C667.359341,2999.56166 669.128324,2998.32434 671.081,2997.377 C673.033676,2996.42966 674.899324,2995.956 676.678,2995.956 C678.03134,2995.956 679.094663,2996.246 679.868,2996.826 C680.641337,2997.406 681.279331,2998.31466 681.782,2999.552 L683.232,2997.232 Z M665.832,3012.08 C665.832,3013.20134 666.015665,3014.17766 666.383,3015.009 C666.750335,3015.84034 667.533327,3016.256 668.732,3016.256 C669.544004,3016.21733 670.394662,3015.879 671.284,3015.241 C672.173338,3014.603 673.033663,3013.80067 673.865,3012.834 C674.696337,3011.86733 675.488996,3010.79434 676.243,3009.615 C676.997004,3008.43566 677.654331,3007.24667 678.215,3006.048 C678.775669,3004.84933 679.220332,3003.71834 679.549,3002.655 C679.877668,3001.59166 680.042,3000.69267 680.042,2999.958 C680.042,2998.91399 679.848669,2998.102 679.462,2997.522 C679.075331,2996.942 678.321339,2996.652 677.2,2996.652 C676.310662,2996.652 675.411671,2996.92266 674.503,2997.464 C673.594329,2998.00534 672.724337,2998.72066 671.893,2999.61 C671.061663,3000.49934 670.269004,3001.49499 669.515,3002.597 C668.760996,3003.69901 668.113336,3004.82999 667.572,3005.99 C667.030664,3007.15001 666.605335,3008.26166 666.296,3009.325 C665.986665,3010.38834 665.832,3011.30666 665.832,3012.08 L665.832,3012.08 Z M716.93,2976.758 L699.008,3005.294 C697.499992,3007.73001 696.301338,3009.75033 695.412,3011.355 C694.522662,3012.95967 694.078,3014.26466 694.078,3015.27 C694.078,3016.31401 694.503329,3016.836 695.354,3016.836 C696.166004,3016.836 697.267993,3016.39134 698.66,3015.502 C700.052007,3014.61266 701.540659,3013.37534 703.126,3011.79 C704.595341,3010.32066 706.045326,3008.75467 707.476,3007.092 C708.906674,3005.42933 710.29866,3003.70868 711.652,3001.93 L712.174,3002.104 C711.709998,3002.72267 711.178336,3003.41866 710.579,3004.192 C709.979664,3004.96534 709.351337,3005.74833 708.694,3006.541 C708.036663,3007.33367 707.36967,3008.12633 706.693,3008.919 C706.01633,3009.71167 705.349337,3010.43666 704.692,3011.094 C702.449322,3013.37534 700.467675,3015.07666 698.747,3016.198 C697.026325,3017.31934 695.238009,3017.88 693.382,3017.88 C690.752654,3017.88 689.438,3016.72001 689.438,3014.4 C689.438,3013.31733 689.834329,3011.95434 690.627,3010.311 C691.419671,3008.66766 692.647325,3006.45401 694.31,3003.67 L710.492,2977.106 L716.93,2976.758 Z M752.484,2983.776 C752.290666,2984.124 752.145667,2984.54933 752.049,2985.052 C751.952333,2985.55467 751.904,2986.01866 751.904,2986.444 C751.904,2987.68134 752.290663,2988.65766 753.064,2989.373 C753.837337,2990.08834 754.823327,2990.446 756.022,2990.446 C757.25934,2990.446 758.448328,2990.13667 759.589,2989.518 C760.729672,2988.89933 761.734996,2988.097 762.605,2987.111 C763.475004,2986.125 764.161331,2985.02301 764.664,2983.805 C765.166669,2982.58699 765.418,2981.37867 765.418,2980.18 C765.418,2979.32933 765.234335,2978.643 764.867,2978.121 C764.499665,2977.599 764.035669,2977.193 763.475,2976.903 C762.914331,2976.613 762.334336,2976.41 761.735,2976.294 C761.135664,2976.178 760.604002,2976.12 760.14,2976.12 C758.129323,2976.12 756.022011,2976.56466 753.818,2977.454 C751.613989,2978.34334 749.439011,2979.55166 747.293,2981.079 C745.146989,2982.60634 743.107343,2984.39466 741.174,2986.444 C739.240657,2988.49334 737.539341,2990.69732 736.07,2993.056 C734.600659,2995.41468 733.431004,2997.85065 732.561,3000.364 C731.690996,3002.87735 731.256,3005.35199 731.256,3007.788 C731.256,3009.21867 731.420332,3010.52366 731.749,3011.703 C732.077668,3012.88234 732.570663,3013.907 733.228,3014.777 C733.885337,3015.647 734.697329,3016.32366 735.664,3016.807 C736.630672,3017.29034 737.751994,3017.532 739.028,3017.532 C740.690675,3017.532 742.314659,3017.16467 743.9,3016.43 C745.485341,3015.69533 746.906327,3014.69967 748.163,3013.443 C749.419673,3012.18633 750.424996,3010.73634 751.179,3009.093 C751.933004,3007.44966 752.31,3005.73868 752.31,3003.96 C752.31,3002.37466 751.981337,3001.04067 751.324,2999.958 C750.666663,2998.87533 749.487342,2998.334 747.786,2998.334 C746.896662,2998.334 746.046004,2998.566 745.234,2999.03 C744.421996,2999.494 743.64867,3000.06433 742.914,3000.741 C742.17933,3001.41767 741.522003,3002.133 740.942,3002.887 C740.361997,3003.641 739.859335,3004.32733 739.434,3004.946 L738.854,3004.656 C739.511337,3003.65066 740.226663,3002.69367 741,3001.785 C741.773337,3000.87633 742.614329,3000.05467 743.523,2999.32 C744.431671,2998.58533 745.427328,2998.00534 746.51,2997.58 C747.592672,2997.15466 748.791327,2996.942 750.106,2996.942 C752.116677,2996.942 753.759994,2997.55099 755.036,2998.769 C756.312006,2999.98701 756.95,3001.58199 756.95,3003.554 C756.95,3005.91268 756.360339,3008.00066 755.181,3009.818 C754.001661,3011.63534 752.474343,3013.16266 750.599,3014.4 C748.723657,3015.63734 746.635678,3016.58466 744.335,3017.242 C742.034322,3017.89934 739.762678,3018.228 737.52,3018.228 C733.653314,3018.228 730.656677,3017.12601 728.53,3014.922 C726.403323,3012.71799 725.34,3009.70202 725.34,3005.874 C725.34,3003.39932 725.861995,3000.92468 726.906,2998.45 C727.950005,2995.97532 729.351658,2993.60701 731.111,2991.345 C732.870342,2989.08299 734.919655,2986.98534 737.259,2985.052 C739.598345,2983.11866 742.06332,2981.43667 744.654,2980.006 C747.24468,2978.57533 749.873987,2977.454 752.542,2976.642 C755.210013,2975.83 757.761988,2975.424 760.198,2975.424 C761.319339,2975.424 762.401995,2975.54 763.446,2975.772 C764.490005,2976.004 765.417996,2976.381 766.23,2976.903 C767.042004,2977.425 767.689664,2978.13066 768.173,2979.02 C768.656336,2979.90934 768.898,2981.01133 768.898,2982.326 C768.898,2983.75667 768.550003,2985.04233 767.854,2986.183 C767.157997,2987.32367 766.259006,2988.28066 765.157,2989.054 C764.054994,2989.82734 762.82734,2990.42666 761.474,2990.852 C760.12066,2991.27734 758.806006,2991.49 757.53,2991.49 C756.717996,2991.49 755.935004,2991.39333 755.181,2991.2 C754.426996,2991.00667 753.760003,2990.707 753.18,2990.301 C752.599997,2989.895 752.126335,2989.373 751.759,2988.735 C751.391665,2988.097 751.208,2987.33334 751.208,2986.444 C751.208,2985.90266 751.285333,2985.36134 751.44,2984.82 C751.594667,2984.27866 751.749333,2983.87267 751.904,2983.602 L752.484,2983.776 Z M754.92,3017.3 L779.222,2977.222 L785.544,2976.932 L766.288,3007.324 L766.404,3007.44 C767.254671,3006.43466 768.211661,3005.26501 769.275,3003.931 C770.338339,3002.59699 771.498327,3001.34034 772.755,3000.161 C774.011673,2998.98166 775.335993,2997.986 776.728,2997.174 C778.120007,2996.362 779.569992,2995.956 781.078,2995.956 C782.31534,2995.956 783.281997,2996.275 783.978,2996.913 C784.674003,2997.551 785.022,2998.50799 785.022,2999.784 C785.022,3000.82801 784.596671,3002.05566 783.746,3003.467 C782.895329,3004.87834 781.967338,3006.31866 780.962,3007.788 C779.956662,3009.25734 779.028671,3010.66866 778.178,3012.022 C777.327329,3013.37534 776.902,3014.516 776.902,3015.444 C776.902,3016.372 777.307996,3016.836 778.12,3016.836 C778.700003,3016.836 779.434662,3016.55567 780.324,3015.995 C781.213338,3015.43433 782.170328,3014.70934 783.195,3013.82 C784.219672,3012.93066 785.263661,3011.92534 786.327,3010.804 C787.390339,3009.68266 788.414995,3008.57101 789.401,3007.469 C790.387005,3006.36699 791.266663,3005.33267 792.04,3004.366 C792.813337,3003.39933 793.412665,3002.626 793.838,3002.046 L794.186,3002.394 C793.180662,3003.70867 791.97234,3005.21666 790.561,3006.918 C789.14966,3008.61934 787.670674,3010.26266 786.124,3011.848 C784.03599,3014.01334 782.257341,3015.56 780.788,3016.488 C779.318659,3017.416 777.810674,3017.88 776.264,3017.88 C774.871993,3017.88 773.857003,3017.474 773.219,3016.662 C772.580997,3015.85 772.262,3014.92201 772.262,3013.878 C772.262,3012.52466 772.687329,3011.16167 773.538,3009.789 C774.388671,3008.41633 775.316662,3007.07267 776.322,3005.758 C777.327338,3004.44333 778.255329,3003.20601 779.106,3002.046 C779.956671,3000.88599 780.382,2999.88067 780.382,2999.03 C780.382,2998.48866 780.227335,2998.073 779.918,2997.783 C779.608665,2997.493 779.260669,2997.348 778.874,2997.348 C778.023329,2997.348 777.066339,2997.70566 776.003,2998.421 C774.939661,2999.13634 773.818339,3000.06433 772.639,3001.205 C771.459661,3002.34567 770.280339,3003.64099 769.101,3005.091 C767.921661,3006.54101 766.800339,3007.99099 765.737,3009.441 C764.673661,3010.89101 763.726337,3012.29266 762.895,3013.646 C762.063663,3014.99934 761.396669,3016.15933 760.894,3017.126 L754.92,3017.3 Z M810.484,2997.232 L816.516,2996.884 C816.167998,2997.58 815.665337,2998.421 815.008,2999.407 C814.350663,3000.393 813.635337,3001.45633 812.862,3002.597 C812.088663,3003.73767 811.305671,3004.91699 810.513,3006.135 C809.720329,3007.35301 808.995337,3008.53233 808.338,3009.673 C807.680663,3010.81367 807.149002,3011.877 806.743,3012.863 C806.336998,3013.849 806.134,3014.69 806.134,3015.386 C806.134,3016.35267 806.617328,3016.836 807.584,3016.836 C808.512005,3016.836 809.768659,3016.29467 811.354,3015.212 C812.939341,3014.12933 814.601991,3012.69868 816.342,3010.92 C817.07667,3010.18533 817.820996,3009.39267 818.575,3008.542 C819.329004,3007.69133 820.053997,3006.85034 820.75,3006.019 C821.446003,3005.18766 822.083997,3004.41434 822.664,3003.699 C823.244003,3002.98366 823.707998,3002.394 824.056,3001.93 L824.462,3002.162 C823.456662,3003.51534 822.296673,3005.01366 820.982,3006.657 C819.667327,3008.30034 818.082009,3010.04999 816.226,3011.906 C814.369991,3013.76201 812.543009,3015.27966 810.745,3016.459 C808.946991,3017.63834 807.158676,3018.228 805.38,3018.228 C804.14266,3018.228 803.18567,3017.909 802.509,3017.271 C801.83233,3016.633 801.494,3015.85 801.494,3014.922 C801.494,3014.61267 801.513333,3014.32267 801.552,3014.052 C801.590667,3013.78133 801.648666,3013.56867 801.726,3013.414 L801.61,3013.414 C800.411327,3014.76734 799.058008,3015.908 797.55,3016.836 C796.041992,3017.764 794.418009,3018.228 792.678,3018.228 C791.749995,3018.228 790.957337,3018.054 790.3,3017.706 C789.642663,3017.358 789.111002,3016.88434 788.705,3016.285 C788.298998,3015.68566 787.999334,3015.009 787.806,3014.255 C787.612666,3013.501 787.516,3012.718 787.516,3011.906 C787.516,3010.01132 788.037995,3008.11668 789.082,3006.222 C790.126005,3004.32732 791.440659,3002.61634 793.026,3001.089 C794.611341,2999.56166 796.380324,2998.32434 798.333,2997.377 C800.285676,2996.42966 802.151324,2995.956 803.93,2995.956 C805.28334,2995.956 806.346663,2996.246 807.12,2996.826 C807.893337,2997.406 808.531331,2998.31466 809.034,2999.552 L810.484,2997.232 Z M793.084,3012.08 C793.084,3013.20134 793.267665,3014.17766 793.635,3015.009 C794.002335,3015.84034 794.785327,3016.256 795.984,3016.256 C796.796004,3016.21733 797.646662,3015.879 798.536,3015.241 C799.425338,3014.603 800.285663,3013.80067 801.117,3012.834 C801.948337,3011.86733 802.740996,3010.79434 803.495,3009.615 C804.249004,3008.43566 804.906331,3007.24667 805.467,3006.048 C806.027669,3004.84933 806.472332,3003.71834 806.801,3002.655 C807.129668,3001.59166 807.294,3000.69267 807.294,2999.958 C807.294,2998.91399 807.100669,2998.102 806.714,2997.522 C806.327331,2996.942 805.573339,2996.652 804.452,2996.652 C803.562662,2996.652 802.663671,2996.92266 801.755,2997.464 C800.846329,2998.00534 799.976337,2998.72066 799.145,2999.61 C798.313663,3000.49934 797.521004,3001.49499 796.767,3002.597 C796.012996,3003.69901 795.365336,3004.82999 794.824,3005.99 C794.282664,3007.15001 793.857335,3008.26166 793.548,3009.325 C793.238665,3010.38834 793.084,3011.30666 793.084,3012.08 L793.084,3012.08 Z M812.978,3017.3 C814.95001,3013.89732 816.95099,3010.51402 818.981,3007.15 C821.01101,3003.78598 823.031323,3000.36402 825.042,2996.884 L831.654,2996.652 L823.998,3007.44 L824.114,3007.556 C825.583341,3005.73866 826.888328,3004.27901 828.029,3003.177 C829.169672,3002.07499 830.165329,3001.176 831.016,3000.48 C831.866671,2999.784 832.581997,2999.25234 833.162,2998.885 C833.742003,2998.51766 834.167332,2998.19867 834.438,2997.928 C834.863335,2997.50266 835.259665,2997.16433 835.627,2996.913 C835.994335,2996.66167 836.429331,2996.46833 836.932,2996.333 C837.434669,2996.19767 838.043663,2996.11067 838.759,2996.072 C839.474337,2996.03333 840.373328,2995.99467 841.456,2995.956 C840.72133,2997.00001 840.04467,2998.09233 839.426,2999.233 C838.80733,3000.37367 838.498,3001.60133 838.498,3002.916 C838.498,3004.57867 839.329325,3005.41 840.992,3005.41 C841.533336,3005.41 842.064997,3005.294 842.587,3005.062 C843.109003,3004.83 843.601998,3004.54 844.066,3004.192 C844.530002,3003.844 844.974665,3003.467 845.4,3003.061 C845.825335,3002.655 846.211998,3002.278 846.56,3001.93 L846.792,3002.22 C845.709328,3003.57334 844.433341,3004.67533 842.964,3005.526 C841.494659,3006.37667 839.890009,3006.802 838.15,3006.802 C836.603326,3006.802 835.385338,3006.396 834.496,3005.584 C833.606662,3004.772 833.162,3003.57334 833.162,3001.988 C833.162,3000.98266 833.451997,3000.03534 834.032,2999.146 L833.916,2999.03 C832.291992,3000.11267 830.745341,3001.36933 829.276,3002.8 C827.806659,3004.23067 826.443673,3005.73866 825.187,3007.324 C823.930327,3008.90934 822.770339,3010.54299 821.707,3012.225 C820.643661,3013.90701 819.686671,3015.54066 818.836,3017.126 L812.978,3017.3 Z M843.138,2997.928 L843.544,2996.884 L848.01,2996.884 L852.36,2989.576 L858.624,2989.344 L853.81,2996.884 L861.176,2996.884 L860.654,2997.928 L853.172,2997.928 C851.431991,3000.78935 849.962673,3003.19632 848.764,3005.149 C847.565327,3007.10168 846.608337,3008.72566 845.893,3010.021 C845.177663,3011.31634 844.655668,3012.35066 844.327,3013.124 C843.998332,3013.89734 843.834,3014.574 843.834,3015.154 C843.834,3015.65667 843.969332,3016.06267 844.24,3016.372 C844.510668,3016.68133 844.897331,3016.836 845.4,3016.836 C846.366672,3016.836 847.642659,3016.343 849.228,3015.357 C850.813341,3014.371 852.514658,3013.00801 854.332,3011.268 C855.56934,3010.03066 856.922659,3008.58067 858.392,3006.918 C859.861341,3005.25533 861.233994,3003.57334 862.51,3001.872 L862.858,3002.162 C861.968662,3003.32201 860.84734,3004.73333 859.494,3006.396 C858.14066,3008.05867 856.652008,3009.70199 855.028,3011.326 C854.138662,3012.21534 853.220338,3013.05633 852.273,3013.849 C851.325662,3014.64167 850.368672,3015.33766 849.402,3015.937 C848.435329,3016.53634 847.488005,3017.01 846.56,3017.358 C845.631995,3017.706 844.723338,3017.88 843.834,3017.88 C842.59666,3017.88 841.514005,3017.59967 840.586,3017.039 C839.657995,3016.47833 839.194,3015.50201 839.194,3014.11 C839.194,3013.10466 839.406665,3012.07034 839.832,3011.007 C840.257335,3009.94366 840.846996,3008.77401 841.601,3007.498 C842.355004,3006.22199 843.234662,3004.81067 844.24,3003.264 C845.245338,3001.71733 846.327994,2999.93868 847.488,2997.928 L843.138,2997.928 Z M886.87,3002.104 C885.671327,3003.72801 884.385674,3005.33266 883.013,3006.918 C881.640326,3008.50334 880.006676,3010.16599 878.112,3011.906 C875.443987,3014.30335 872.882346,3015.95633 870.427,3016.865 C867.971654,3017.77367 865.661344,3018.228 863.496,3018.228 C861.291989,3018.228 859.552006,3017.57067 858.276,3016.256 C856.999994,3014.94133 856.362,3013.24001 856.362,3011.152 C856.362,3009.29599 856.922661,3007.45934 858.044,3005.642 C859.165339,3003.82466 860.576658,3002.20067 862.278,3000.77 C863.979342,2999.33933 865.84499,2998.17934 867.875,2997.29 C869.90501,2996.40066 871.828658,2995.956 873.646,2995.956 C875.308675,2995.956 876.603995,2996.275 877.532,2996.913 C878.460005,2997.551 878.924,2998.44999 878.924,2999.61 C878.924,3000.538 878.605003,3001.38866 877.967,3002.162 C877.328997,3002.93534 876.507338,3003.63133 875.502,3004.25 C874.496662,3004.86867 873.365673,3005.41 872.109,3005.874 C870.852327,3006.338 869.60534,3006.744 868.368,3007.092 C867.13066,3007.44 865.970672,3007.73 864.888,3007.962 C863.805328,3008.194 862.916003,3008.38733 862.22,3008.542 C862.026666,3009.31534 861.93,3010.01133 861.93,3010.63 C861.93,3012.29267 862.393995,3013.64599 863.322,3014.69 C864.250005,3015.73401 865.545325,3016.256 867.208,3016.256 C868.832008,3016.256 870.620324,3015.77267 872.573,3014.806 C874.525676,3013.83933 876.48799,3012.42801 878.46,3010.572 C879.968008,3009.14133 881.417993,3007.64301 882.81,3006.077 C884.202007,3004.51099 885.419995,3003.05134 886.464,3001.698 L886.87,3002.104 Z M874.284,2998.16 C874.284,2997.61866 874.139001,2997.232 873.849,2997 C873.558999,2996.768 873.182002,2996.652 872.718,2996.652 C871.751328,2996.652 870.707339,2997.058 869.586,2997.87 C868.464661,2998.682 867.411005,2999.67766 866.425,3000.857 C865.438995,3002.03634 864.569004,3003.27366 863.815,3004.569 C863.060996,3005.86434 862.568001,3006.99533 862.336,3007.962 C863.921341,3007.65267 865.429326,3007.14034 866.86,3006.425 C868.290674,3005.70966 869.556994,3004.89767 870.659,3003.989 C871.761006,3003.08033 872.640663,3002.11367 873.298,3001.089 C873.955337,3000.06433 874.284,2999.088 874.284,2998.16 L874.284,2998.16 Z M875.27,3017.3 C877.24201,3013.89732 879.24299,3010.51402 881.273,3007.15 C883.30301,3003.78598 885.323323,3000.36402 887.334,2996.884 L893.946,2996.652 L886.29,3007.44 L886.406,3007.556 C887.875341,3005.73866 889.180328,3004.27901 890.321,3003.177 C891.461672,3002.07499 892.457329,3001.176 893.308,3000.48 C894.158671,2999.784 894.873997,2999.25234 895.454,2998.885 C896.034003,2998.51766 896.459332,2998.19867 896.73,2997.928 C897.155335,2997.50266 897.551665,2997.16433 897.919,2996.913 C898.286335,2996.66167 898.721331,2996.46833 899.224,2996.333 C899.726669,2996.19767 900.335663,2996.11067 901.051,2996.072 C901.766337,2996.03333 902.665328,2995.99467 903.748,2995.956 C903.01333,2997.00001 902.33667,2998.09233 901.718,2999.233 C901.09933,3000.37367 900.79,3001.60133 900.79,3002.916 C900.79,3004.57867 901.621325,3005.41 903.284,3005.41 C903.825336,3005.41 904.356997,3005.294 904.879,3005.062 C905.401003,3004.83 905.893998,3004.54 906.358,3004.192 C906.822002,3003.844 907.266665,3003.467 907.692,3003.061 C908.117335,3002.655 908.503998,3002.278 908.852,3001.93 L909.084,3002.22 C908.001328,3003.57334 906.725341,3004.67533 905.256,3005.526 C903.786659,3006.37667 902.182009,3006.802 900.442,3006.802 C898.895326,3006.802 897.677338,3006.396 896.788,3005.584 C895.898662,3004.772 895.454,3003.57334 895.454,3001.988 C895.454,3000.98266 895.743997,3000.03534 896.324,2999.146 L896.208,2999.03 C894.583992,3000.11267 893.037341,3001.36933 891.568,3002.8 C890.098659,3004.23067 888.735673,3005.73866 887.479,3007.324 C886.222327,3008.90934 885.062339,3010.54299 883.999,3012.225 C882.935661,3013.90701 881.978671,3015.54066 881.128,3017.126 L875.27,3017.3 Z" id="Ethical-Charter"></path>
        </g>
    </g>
</svg>