<?xml version="1.0" encoding="UTF-8" standalone="no"?>
<svg width="624px" height="439px" viewBox="0 0 624 439" version="1.1" xmlns="http://www.w3.org/2000/svg" xmlns:xlink="http://www.w3.org/1999/xlink">
    <!-- Generator: Sketch 39 (31667) - http://www.bohemiancoding.com/sketch -->
    <title>Group 7</title>
    <desc>Created with Sketch.</desc>
    <defs></defs>
    <g id="Page-1" stroke="none" stroke-width="1" fill="none" fill-rule="evenodd">
        <g id="Homepage" transform="translate(-408.000000, -2233.000000)">
            <g id="Group-7" transform="translate(408.000000, 2233.000000)">
                <path d="M85.632,414.192 L89.1,414.192 L89.1,434.932 L95.968,434.932 L95.968,438.4 L85.632,438.4 L85.632,414.192 Z M98.212,414.192 L108.548,414.192 L108.548,417.456 L101.68,417.456 L101.68,424.8 L107.664,424.8 L107.664,428.064 L101.68,428.064 L101.68,438.4 L98.212,438.4 L98.212,414.192 Z M122.012,421.162 L118.544,421.162 L118.544,420.38 C118.544,419.586663 118.357002,418.901003 117.983,418.323 C117.608998,417.744997 116.980004,417.456 116.096,417.456 C115.619998,417.456 115.229002,417.546666 114.923,417.728 C114.616998,417.909334 114.379001,418.141665 114.209,418.425 C114.038999,418.708335 113.92,419.036998 113.852,419.411 C113.784,419.785002 113.75,420.175998 113.75,420.584 C113.75,421.060002 113.767,421.462332 113.801,421.791 C113.835,422.119668 113.919999,422.402999 114.056,422.641 C114.192001,422.879001 114.390332,423.088666 114.651,423.27 C114.911668,423.451334 115.268664,423.632666 115.722,423.814 L118.374,424.868 C119.144671,425.162668 119.767998,425.508331 120.244,425.905 C120.720002,426.301669 121.088332,426.766331 121.349,427.299 C121.609668,427.831669 121.785333,428.443663 121.876,429.135 C121.966667,429.826337 122.012,430.613996 122.012,431.498 C122.012,432.518005 121.910001,433.464329 121.706,434.337 C121.501999,435.209671 121.167669,435.957664 120.703,436.581 C120.238331,437.204336 119.620671,437.697332 118.85,438.06 C118.079329,438.422668 117.138672,438.604 116.028,438.604 C115.189329,438.604 114.407337,438.456668 113.682,438.162 C112.956663,437.867332 112.333336,437.465003 111.812,436.955 C111.290664,436.444997 110.877002,435.83867 110.571,435.136 C110.264998,434.43333 110.112,433.674004 110.112,432.858 L110.112,431.566 L113.58,431.566 L113.58,432.654 C113.58,433.28867 113.766998,433.860997 114.141,434.371 C114.515002,434.881003 115.143996,435.136 116.028,435.136 C116.617336,435.136 117.076332,435.051001 117.405,434.881 C117.733668,434.710999 117.982999,434.473002 118.153,434.167 C118.323001,433.860998 118.430666,433.481336 118.476,433.028 C118.521334,432.574664 118.544,432.076003 118.544,431.532 C118.544,430.89733 118.521334,430.376002 118.476,429.968 C118.430666,429.559998 118.334334,429.231335 118.187,428.982 C118.039666,428.732665 117.835668,428.528667 117.575,428.37 C117.314332,428.211333 116.968669,428.041334 116.538,427.86 L114.056,426.84 C112.559993,426.227997 111.557003,425.417672 111.047,424.409 C110.536997,423.400328 110.282,422.136674 110.282,420.618 C110.282,419.711329 110.406665,418.850004 110.656,418.034 C110.905335,417.217996 111.273664,416.515336 111.761,415.926 C112.248336,415.336664 112.865996,414.866335 113.614,414.515 C114.362004,414.163665 115.234662,413.988 116.232,413.988 C117.093338,413.988 117.880996,414.146665 118.595,414.464 C119.309004,414.781335 119.920997,415.200664 120.431,415.722 C120.941003,416.243336 121.331999,416.826997 121.604,417.473 C121.876001,418.119003 122.012,418.781997 122.012,419.462 L122.012,421.162 Z" id="LFS" fill="#2B72B6"></path>
                <path d="M272.804,4.27399943 L270.968,4.27399943 L270.968,3.85999943 C270.968,3.43999733 270.869001,3.07700096 270.671,2.77099943 C270.472999,2.4649979 270.140002,2.31199943 269.672,2.31199943 C269.419999,2.31199943 269.213001,2.35999895 269.051,2.45599943 C268.888999,2.55199991 268.763,2.67499868 268.673,2.82499943 C268.583,2.97500018 268.52,3.14899844 268.484,3.34699943 C268.448,3.54500042 268.43,3.75199835 268.43,3.96799943 C268.43,4.22000069 268.439,4.43299856 268.457,4.60699943 C268.475,4.7810003 268.52,4.9309988 268.592,5.05699943 C268.664,5.18300006 268.768999,5.29399895 268.907,5.38999943 C269.045001,5.48599991 269.233999,5.58199895 269.474,5.67799943 L270.878,6.23599943 C271.286002,6.39200021 271.615999,6.57499838 271.868,6.78499943 C272.120001,6.99500048 272.314999,7.24099802 272.453,7.52299943 C272.591001,7.80500084 272.684,8.1289976 272.732,8.49499943 C272.78,8.86100126 272.804,9.27799709 272.804,9.74599943 C272.804,10.2860021 272.750001,10.7869971 272.642,11.2489994 C272.533999,11.7110017 272.357001,12.1069978 272.111,12.4369994 C271.864999,12.7670011 271.538002,13.0279985 271.13,13.2199994 C270.721998,13.4120004 270.224003,13.5079994 269.636,13.5079994 C269.191998,13.5079994 268.778002,13.4300002 268.394,13.2739994 C268.009998,13.1179986 267.680001,12.9050008 267.404,12.6349994 C267.127999,12.3649981 266.909001,12.0440013 266.747,11.6719994 C266.584999,11.2999976 266.504,10.8980016 266.504,10.4659994 L266.504,9.78199943 L268.34,9.78199943 L268.34,10.3579994 C268.34,10.6940011 268.438999,10.9969981 268.637,11.2669994 C268.835001,11.5370008 269.167998,11.6719994 269.636,11.6719994 C269.948002,11.6719994 270.190999,11.6269999 270.365,11.5369994 C270.539001,11.446999 270.671,11.3210002 270.761,11.1589994 C270.851,10.9969986 270.908,10.7960006 270.932,10.5559994 C270.956,10.3159982 270.968,10.0520009 270.968,9.76399943 C270.968,9.42799775 270.956,9.15200051 270.932,8.93599943 C270.908,8.71999835 270.857,8.54600009 270.779,8.41399943 C270.701,8.28199877 270.593001,8.17399985 270.455,8.08999943 C270.316999,8.00599901 270.134001,7.91599991 269.906,7.81999943 L268.592,7.27999943 C267.799996,6.95599781 267.269001,6.5270021 266.999,5.99299943 C266.728999,5.45899676 266.594,4.79000345 266.594,3.98599943 C266.594,3.50599703 266.659999,3.05000159 266.792,2.61799943 C266.924001,2.18599727 267.118999,1.81400099 267.377,1.50199943 C267.635001,1.18999787 267.961998,0.941000358 268.358,0.754999428 C268.754002,0.568998498 269.215997,0.475999428 269.744,0.475999428 C270.200002,0.475999428 270.616998,0.559998588 270.995,0.727999428 C271.373002,0.896000268 271.696999,1.11799805 271.967,1.39399943 C272.237001,1.67000081 272.443999,1.97899772 272.588,2.32099943 C272.732001,2.66300114 272.804,3.01399763 272.804,3.37399943 L272.804,4.27399943 Z M274.172,0.583999428 L276.008,0.583999428 L276.008,6.07399943 L278.276,6.07399943 L278.276,0.583999428 L280.112,0.583999428 L280.112,13.3999994 L278.276,13.3999994 L278.276,7.69399943 L276.008,7.69399943 L276.008,13.3999994 L274.172,13.3999994 L274.172,0.583999428 Z M284.648,4.27399943 L284.612,4.27399943 L283.712,8.91799943 L285.548,8.91799943 L284.648,4.27399943 Z M283.874,0.583999428 L285.404,0.583999428 L288.266,13.3999994 L286.43,13.3999994 L285.89,10.6459994 L283.388,10.6459994 L282.848,13.3999994 L281.012,13.3999994 L283.874,0.583999428 Z M291.002,6.30799943 L292.046,6.30799943 C292.370002,6.30799943 292.627999,6.26299988 292.82,6.17299943 C293.012001,6.08299898 293.158999,5.95400027 293.261,5.78599943 C293.363001,5.61799859 293.432,5.41100066 293.468,5.16499943 C293.504,4.9189982 293.522,4.63400105 293.522,4.30999943 C293.522,3.98599781 293.504,3.70100066 293.468,3.45499943 C293.432,3.2089982 293.357001,2.9990003 293.243,2.82499943 C293.128999,2.65099856 292.970001,2.52199985 292.766,2.43799943 C292.561999,2.35399901 292.292002,2.31199943 291.956,2.31199943 L291.002,2.31199943 L291.002,6.30799943 Z M289.166,0.583999428 L292.118,0.583999428 C294.278011,0.583999428 295.358,1.83798689 295.358,4.34599943 C295.358,5.09000315 295.241001,5.72899676 295.007,6.26299943 C294.772999,6.7970021 294.362003,7.22599781 293.774,7.54999943 L295.754,13.3999994 L293.81,13.3999994 L292.1,7.92799943 L291.002,7.92799943 L291.002,13.3999994 L289.166,13.3999994 L289.166,0.583999428 Z M296.834,0.583999428 L302.306,0.583999428 L302.306,2.31199943 L298.67,2.31199943 L298.67,6.07399943 L301.838,6.07399943 L301.838,7.80199943 L298.67,7.80199943 L298.67,11.5639994 L302.306,11.5639994 L302.306,13.3999994 L296.834,13.3999994 L296.834,0.583999428 Z M303.494,0.583999428 L306.212,0.583999428 C307.256005,0.583999428 308.053997,0.874996518 308.606,1.45699943 C309.158003,2.03900234 309.434,2.85199421 309.434,3.89599943 L309.434,9.88999943 C309.434,11.0900054 309.143003,11.9749966 308.561,12.5449994 C307.978997,13.1150023 307.142005,13.3999994 306.05,13.3999994 L303.494,13.3999994 L303.494,0.583999428 Z M305.33,11.6719994 L306.176,11.6719994 C306.692003,11.6719994 307.057999,11.5430007 307.274,11.2849994 C307.490001,11.0269981 307.598,10.6220022 307.598,10.0699994 L307.598,3.89599943 C307.598,3.39199691 307.496001,3.00200081 307.292,2.72599943 C307.087999,2.44999805 306.716003,2.31199943 306.176,2.31199943 L305.33,2.31199943 L305.33,11.6719994 Z M314.51,0.583999428 L317.264,0.583999428 C317.768003,0.583999428 318.211998,0.649998768 318.596,0.781999428 C318.980002,0.914000088 319.327998,1.14799775 319.64,1.48399943 C319.952002,1.82000111 320.167999,2.21299718 320.288,2.66299943 C320.408001,3.11300168 320.468,3.72199559 320.468,4.48999943 C320.468,5.05400225 320.435,5.53699742 320.369,5.93899943 C320.303,6.34100144 320.162001,6.71599769 319.946,7.06399943 C319.693999,7.48400153 319.358002,7.81099826 318.938,8.04499943 C318.517998,8.2790006 317.966003,8.39599943 317.282,8.39599943 L316.346,8.39599943 L316.346,13.3999994 L314.51,13.3999994 L314.51,0.583999428 Z M316.346,6.66799943 L317.228,6.66799943 C317.600002,6.66799943 317.887999,6.61399997 318.092,6.50599943 C318.296001,6.39799889 318.446,6.25100036 318.542,6.06499943 C318.638,5.8789985 318.695,5.65400075 318.713,5.38999943 C318.731,5.12599811 318.74,4.83200105 318.74,4.50799943 C318.74,4.20799793 318.731,3.92300078 318.713,3.65299943 C318.695,3.38299808 318.641,3.14900042 318.551,2.95099943 C318.461,2.75299844 318.320001,2.597 318.128,2.48299943 C317.935999,2.36899886 317.660002,2.31199943 317.3,2.31199943 L316.346,2.31199943 L316.346,6.66799943 Z M323.672,6.30799943 L324.716,6.30799943 C325.040002,6.30799943 325.297999,6.26299988 325.49,6.17299943 C325.682001,6.08299898 325.828999,5.95400027 325.931,5.78599943 C326.033001,5.61799859 326.102,5.41100066 326.138,5.16499943 C326.174,4.9189982 326.192,4.63400105 326.192,4.30999943 C326.192,3.98599781 326.174,3.70100066 326.138,3.45499943 C326.102,3.2089982 326.027001,2.9990003 325.913,2.82499943 C325.798999,2.65099856 325.640001,2.52199985 325.436,2.43799943 C325.231999,2.35399901 324.962002,2.31199943 324.626,2.31199943 L323.672,2.31199943 L323.672,6.30799943 Z M321.836,0.583999428 L324.788,0.583999428 C326.948011,0.583999428 328.028,1.83798689 328.028,4.34599943 C328.028,5.09000315 327.911001,5.72899676 327.677,6.26299943 C327.442999,6.7970021 327.032003,7.22599781 326.444,7.54999943 L328.424,13.3999994 L326.48,13.3999994 L324.77,7.92799943 L323.672,7.92799943 L323.672,13.3999994 L321.836,13.3999994 L321.836,0.583999428 Z M329.396,3.60799943 C329.396,3.09199685 329.485999,2.63600141 329.666,2.23999943 C329.846001,1.84399745 330.082999,1.51700072 330.377,1.25899943 C330.671001,1.00099814 331.000998,0.806000088 331.367,0.673999428 C331.733002,0.541998768 332.101998,0.475999428 332.474,0.475999428 C332.846002,0.475999428 333.214998,0.541998768 333.581,0.673999428 C333.947002,0.806000088 334.276999,1.00099814 334.571,1.25899943 C334.865001,1.51700072 335.101999,1.84399745 335.282,2.23999943 C335.462001,2.63600141 335.552,3.09199685 335.552,3.60799943 L335.552,10.3759994 C335.552,10.9040021 335.462001,11.3629975 335.282,11.7529994 C335.101999,12.1430014 334.865001,12.4669981 334.571,12.7249994 C334.276999,12.9830007 333.947002,13.1779988 333.581,13.3099994 C333.214998,13.4420001 332.846002,13.5079994 332.474,13.5079994 C332.101998,13.5079994 331.733002,13.4420001 331.367,13.3099994 C331.000998,13.1779988 330.671001,12.9830007 330.377,12.7249994 C330.082999,12.4669981 329.846001,12.1430014 329.666,11.7529994 C329.485999,11.3629975 329.396,10.9040021 329.396,10.3759994 L329.396,3.60799943 Z M331.232,10.3759994 C331.232,10.8200016 331.354999,11.1469984 331.601,11.3569994 C331.847001,11.5670005 332.137998,11.6719994 332.474,11.6719994 C332.810002,11.6719994 333.100999,11.5670005 333.347,11.3569994 C333.593001,11.1469984 333.716,10.8200016 333.716,10.3759994 L333.716,3.60799943 C333.716,3.16399721 333.593001,2.83700048 333.347,2.62699943 C333.100999,2.41699838 332.810002,2.31199943 332.474,2.31199943 C332.137998,2.31199943 331.847001,2.41699838 331.601,2.62699943 C331.354999,2.83700048 331.232,3.16399721 331.232,3.60799943 L331.232,10.3759994 Z M341.438,10.3759994 C341.438,10.7960015 341.366001,11.1949975 341.222,11.5729994 C341.077999,11.9510013 340.871001,12.283998 340.601,12.5719994 C340.330999,12.8600009 340.004002,13.0879986 339.62,13.2559994 C339.235998,13.4240003 338.798002,13.5079994 338.306,13.5079994 C337.717997,13.5079994 337.229002,13.3790007 336.839,13.1209994 C336.448998,12.8629981 336.140001,12.6080007 335.912,12.3559994 L337.352,11.2039994 C337.484001,11.3360001 337.636999,11.446999 337.811,11.5369994 C337.985001,11.6269999 338.167999,11.6719994 338.36,11.6719994 C338.468001,11.6719994 338.593999,11.6509996 338.738,11.6089994 C338.882001,11.5669992 339.016999,11.489 339.143,11.3749994 C339.269001,11.2609989 339.377,11.1050004 339.467,10.9069994 C339.557,10.7089984 339.602,10.448001 339.602,10.1239994 L339.602,0.583999428 L341.438,0.583999428 L341.438,10.3759994 Z M343.166,0.583999428 L348.638,0.583999428 L348.638,2.31199943 L345.002,2.31199943 L345.002,6.07399943 L348.17,6.07399943 L348.17,7.80199943 L345.002,7.80199943 L345.002,11.5639994 L348.638,11.5639994 L348.638,13.3999994 L343.166,13.3999994 L343.166,0.583999428 Z M355.658,10.5379994 C355.658,10.9340014 355.583001,11.3119976 355.433,11.6719994 C355.282999,12.0320012 355.076001,12.3469981 354.812,12.6169994 C354.547999,12.8870008 354.239002,13.1029986 353.885,13.2649994 C353.530998,13.4270002 353.150002,13.5079994 352.742,13.5079994 C352.393998,13.5079994 352.040002,13.4599999 351.68,13.3639994 C351.319998,13.2679989 350.996001,13.1030006 350.708,12.8689994 C350.419999,12.6349983 350.183001,12.3260013 349.997,11.9419994 C349.810999,11.5579975 349.718,11.0720024 349.718,10.4839994 L349.718,3.42799943 C349.718,3.00799733 349.789999,2.61800123 349.934,2.25799943 C350.078001,1.89799763 350.281999,1.58600075 350.546,1.32199943 C350.810001,1.05799811 351.124998,0.851000178 351.491,0.700999428 C351.857002,0.550998678 352.261998,0.475999428 352.706,0.475999428 C353.126002,0.475999428 353.515998,0.550998678 353.876,0.700999428 C354.236002,0.851000178 354.547999,1.06099808 354.812,1.33099943 C355.076001,1.60100078 355.282999,1.92499754 355.433,2.30299943 C355.583001,2.68100132 355.658,3.09199721 355.658,3.53599943 L355.658,4.25599943 L353.822,4.25599943 L353.822,3.64399943 C353.822,3.28399763 353.720001,2.97200075 353.516,2.70799943 C353.311999,2.44399811 353.036002,2.31199943 352.688,2.31199943 C352.231998,2.31199943 351.929001,2.45299802 351.779,2.73499943 C351.628999,3.01700084 351.554,3.37399727 351.554,3.80599943 L351.554,10.3579994 C351.554,10.7300013 351.634999,11.0419982 351.797,11.2939994 C351.959001,11.5460007 352.249998,11.6719994 352.67,11.6719994 C352.790001,11.6719994 352.918999,11.6509996 353.057,11.6089994 C353.195001,11.5669992 353.320999,11.4979999 353.435,11.4019994 C353.549001,11.3059989 353.642,11.1740003 353.714,11.0059994 C353.786,10.8379986 353.822,10.6280007 353.822,10.3759994 L353.822,9.74599943 L355.658,9.74599943 L355.658,10.5379994 Z M358.358,2.31199943 L356.234,2.31199943 L356.234,0.583999428 L362.318,0.583999428 L362.318,2.31199943 L360.194,2.31199943 L360.194,13.3999994 L358.358,13.3999994 L358.358,2.31199943 Z" id="SHARED-PROJECT" fill="#9B9B9B"></path>
                <path d="M502.862,428.166 L498.102,414.192 L501.774,414.192 L504.562,423.814 L504.63,423.814 L507.418,414.192 L511.09,414.192 L506.33,428.166 L506.33,438.4 L502.862,438.4 L502.862,428.166 Z M512.62,419.904 C512.62,418.929328 512.789998,418.068004 513.13,417.32 C513.470002,416.571996 513.917664,415.954336 514.473,415.467 C515.028336,414.979664 515.651663,414.611335 516.343,414.362 C517.034337,414.112665 517.73133,413.988 518.434,413.988 C519.13667,413.988 519.833663,414.112665 520.525,414.362 C521.216337,414.611335 521.839664,414.979664 522.395,415.467 C522.950336,415.954336 523.397998,416.571996 523.738,417.32 C524.078002,418.068004 524.248,418.929328 524.248,419.904 L524.248,432.688 C524.248,433.685338 524.078002,434.55233 523.738,435.289 C523.397998,436.02567 522.950336,436.637664 522.395,437.125 C521.839664,437.612336 521.216337,437.980665 520.525,438.23 C519.833663,438.479335 519.13667,438.604 518.434,438.604 C517.73133,438.604 517.034337,438.479335 516.343,438.23 C515.651663,437.980665 515.028336,437.612336 514.473,437.125 C513.917664,436.637664 513.470002,436.02567 513.13,435.289 C512.789998,434.55233 512.62,433.685338 512.62,432.688 L512.62,419.904 Z M516.088,432.688 C516.088,433.526671 516.320331,434.144331 516.785,434.541 C517.249669,434.937669 517.79933,435.136 518.434,435.136 C519.06867,435.136 519.618331,434.937669 520.083,434.541 C520.547669,434.144331 520.78,433.526671 520.78,432.688 L520.78,419.904 C520.78,419.065329 520.547669,418.447669 520.083,418.051 C519.618331,417.654331 519.06867,417.456 518.434,417.456 C517.79933,417.456 517.249669,417.654331 516.785,418.051 C516.320331,418.447669 516.088,419.065329 516.088,419.904 L516.088,432.688 Z M538.528,432.96 C538.528,433.753337 538.380668,434.489997 538.086,435.17 C537.791332,435.850003 537.389003,436.444997 536.879,436.955 C536.368997,437.465003 535.774003,437.867332 535.094,438.162 C534.413997,438.456668 533.688671,438.604 532.918,438.604 C532.147329,438.604 531.422003,438.456668 530.742,438.162 C530.061997,437.867332 529.467003,437.465003 528.957,436.955 C528.446997,436.444997 528.044668,435.850003 527.75,435.17 C527.455332,434.489997 527.308,433.753337 527.308,432.96 L527.308,414.192 L530.776,414.192 L530.776,432.62 C530.776,433.481338 530.979998,434.115998 531.388,434.524 C531.796002,434.932002 532.305997,435.136 532.918,435.136 C533.530003,435.136 534.039998,434.932002 534.448,434.524 C534.856002,434.115998 535.06,433.481338 535.06,432.62 L535.06,414.192 L538.528,414.192 L538.528,432.96 Z" id="YOU" fill="#2B72B6"></path>
                <polygon id="Path-77" fill="#F5A623" points="520.41573 269.089608 518.123596 391 321 278.288723 525 161"></polygon>
                <polygon id="Path-77" fill="#F5A623" points="303 143.2 0 316 0 90.208 105.590909 28"></polygon>
                <polygon id="Path-80" fill="#2DBA9B" transform="translate(53.000000, 209.500000) scale(-1, 1) translate(-53.000000, -209.500000) " points="5.68434189e-14 28 5.68434189e-14 391 106 328.968354 106 90.0316456"></polygon>
                <path d="M312.5,27.5 L312.5,390.534424" id="Line" stroke="#D3D3D3" stroke-width="3" stroke-linecap="square" stroke-dasharray="1,1,1,8"></path>
                <path d="M16.56,99.6600002 L14.52,99.6600002 L14.52,99.2000002 C14.52,98.7333312 14.4100011,98.3300019 14.19,97.9900002 C13.9699989,97.6499985 13.6000026,97.4800002 13.08,97.4800002 C12.7999986,97.4800002 12.5700009,97.533333 12.39,97.6400002 C12.2099991,97.7466674 12.0700005,97.8833327 11.97,98.0500002 C11.8699995,98.2166677 11.8000002,98.4099991 11.76,98.6300002 C11.7199998,98.8500013 11.7,99.079999 11.7,99.3200002 C11.7,99.6000016 11.7099999,99.8366659 11.73,100.03 C11.7500001,100.223334 11.7999996,100.389999 11.88,100.53 C11.9600004,100.670001 12.0766659,100.793333 12.23,100.9 C12.3833341,101.006667 12.593332,101.113333 12.86,101.22 L14.42,101.84 C14.8733356,102.013334 15.2399986,102.216666 15.52,102.45 C15.8000014,102.683335 16.0166659,102.956665 16.17,103.27 C16.3233341,103.583335 16.4266664,103.943331 16.48,104.35 C16.5333336,104.756669 16.56,105.219998 16.56,105.74 C16.56,106.340003 16.5000006,106.896664 16.38,107.41 C16.2599994,107.923336 16.0633347,108.363332 15.79,108.73 C15.5166653,109.096669 15.1533356,109.386666 14.7,109.6 C14.2466644,109.813335 13.6933366,109.92 13.04,109.92 C12.5466642,109.92 12.0866688,109.833334 11.66,109.66 C11.2333312,109.486666 10.8666682,109.250002 10.56,108.95 C10.2533318,108.649999 10.0100009,108.293336 9.83,107.88 C9.6499991,107.466665 9.56,107.020003 9.56,106.54 L9.56,105.78 L11.6,105.78 L11.6,106.42 C11.6,106.793335 11.7099989,107.129999 11.93,107.43 C12.1500011,107.730002 12.5199974,107.88 13.04,107.88 C13.3866684,107.88 13.6566657,107.830001 13.85,107.73 C14.0433343,107.63 14.1899995,107.490001 14.29,107.31 C14.3900005,107.129999 14.4533332,106.906668 14.48,106.64 C14.5066668,106.373332 14.52,106.080002 14.52,105.76 C14.52,105.386665 14.5066668,105.080001 14.48,104.84 C14.4533332,104.599999 14.3966671,104.406668 14.31,104.26 C14.2233329,104.113333 14.1033341,103.993334 13.95,103.9 C13.7966659,103.806666 13.5933346,103.706667 13.34,103.6 L11.88,103 C10.9999956,102.639998 10.4100015,102.163336 10.11,101.57 C9.8099985,100.976664 9.66,100.233338 9.66,99.3400002 C9.66,98.8066642 9.7333326,98.3000026 9.88,97.8200002 C10.0266674,97.3399978 10.2433319,96.9266686 10.53,96.5800002 C10.8166681,96.2333318 11.1799978,95.9566679 11.62,95.7500002 C12.0600022,95.5433325 12.5733304,95.4400002 13.16,95.4400002 C13.6666692,95.4400002 14.1299979,95.5333326 14.55,95.7200002 C14.9700021,95.9066678 15.3299985,96.153332 15.63,96.4600002 C15.9300015,96.7666684 16.1599992,97.1099983 16.32,97.4900002 C16.4800008,97.8700021 16.56,98.2599982 16.56,98.6600002 L16.56,99.6600002 Z M17.96,98.9200002 C17.96,98.346664 18.059999,97.8400024 18.26,97.4000002 C18.460001,96.959998 18.7233317,96.5966683 19.05,96.3100002 C19.3766683,96.0233321 19.7433313,95.8066676 20.15,95.6600002 C20.5566687,95.5133328 20.9666646,95.4400002 21.38,95.4400002 C21.7933354,95.4400002 22.2033313,95.5133328 22.61,95.6600002 C23.0166687,95.8066676 23.3833317,96.0233321 23.71,96.3100002 C24.0366683,96.5966683 24.299999,96.959998 24.5,97.4000002 C24.700001,97.8400024 24.8,98.346664 24.8,98.9200002 L24.8,106.44 C24.8,107.02667 24.700001,107.536665 24.5,107.97 C24.299999,108.403336 24.0366683,108.763332 23.71,109.05 C23.3833317,109.336668 23.0166687,109.553333 22.61,109.7 C22.2033313,109.846668 21.7933354,109.92 21.38,109.92 C20.9666646,109.92 20.5566687,109.846668 20.15,109.7 C19.7433313,109.553333 19.3766683,109.336668 19.05,109.05 C18.7233317,108.763332 18.460001,108.403336 18.26,107.97 C18.059999,107.536665 17.96,107.02667 17.96,106.44 L17.96,98.9200002 Z M20,106.44 C20,106.933336 20.1366653,107.296666 20.41,107.53 C20.6833347,107.763335 21.0066648,107.88 21.38,107.88 C21.7533352,107.88 22.0766653,107.763335 22.35,107.53 C22.6233347,107.296666 22.76,106.933336 22.76,106.44 L22.76,98.9200002 C22.76,98.4266644 22.6233347,98.0633347 22.35,97.8300002 C22.0766653,97.5966657 21.7533352,97.4800002 21.38,97.4800002 C21.0066648,97.4800002 20.6833347,97.5966657 20.41,97.8300002 C20.1366653,98.0633347 20,98.4266644 20,98.9200002 L20,106.44 Z M33.08,106.62 C33.08,107.060002 32.9966675,107.479998 32.83,107.88 C32.6633325,108.280002 32.4333348,108.629999 32.14,108.93 C31.8466652,109.230002 31.5033353,109.469999 31.11,109.65 C30.7166647,109.830001 30.2933356,109.92 29.84,109.92 C29.4533314,109.92 29.060002,109.866667 28.66,109.76 C28.259998,109.653333 27.9000016,109.470001 27.58,109.21 C27.2599984,108.949999 26.9966677,108.606669 26.79,108.18 C26.5833323,107.753331 26.48,107.213337 26.48,106.56 L26.48,98.7200002 C26.48,98.2533312 26.5599992,97.8200022 26.72,97.4200002 C26.8800008,97.0199982 27.1066652,96.673335 27.4,96.3800002 C27.6933348,96.0866654 28.0433313,95.8566677 28.45,95.6900002 C28.8566687,95.5233327 29.3066642,95.4400002 29.8,95.4400002 C30.266669,95.4400002 30.699998,95.5233327 31.1,95.6900002 C31.500002,95.8566677 31.8466652,96.0899987 32.14,96.3900002 C32.4333348,96.6900017 32.6633325,97.0499981 32.83,97.4700002 C32.9966675,97.8900023 33.08,98.3466644 33.08,98.8400002 L33.08,99.6400002 L31.04,99.6400002 L31.04,98.9600002 C31.04,98.5599982 30.9266678,98.213335 30.7,97.9200002 C30.4733322,97.6266654 30.1666686,97.4800002 29.78,97.4800002 C29.2733308,97.4800002 28.9366675,97.6366653 28.77,97.9500002 C28.6033325,98.2633351 28.52,98.6599978 28.52,99.1400002 L28.52,106.42 C28.52,106.833336 28.6099991,107.179999 28.79,107.46 C28.9700009,107.740002 29.293331,107.88 29.76,107.88 C29.893334,107.88 30.0366659,107.856667 30.19,107.81 C30.3433341,107.763333 30.4833327,107.686667 30.61,107.58 C30.7366673,107.473333 30.8399996,107.326668 30.92,107.14 C31.0000004,106.953333 31.04,106.720002 31.04,106.44 L31.04,105.74 L33.08,105.74 L33.08,106.62 Z M34.8,95.5600002 L36.84,95.5600002 L36.84,109.8 L34.8,109.8 L34.8,95.5600002 Z M41.94,99.6600002 L41.9,99.6600002 L40.9,104.82 L42.94,104.82 L41.94,99.6600002 Z M41.08,95.5600002 L42.78,95.5600002 L45.96,109.8 L43.92,109.8 L43.32,106.74 L40.54,106.74 L39.94,109.8 L37.9,109.8 L41.08,95.5600002 Z M46.96,95.5600002 L49,95.5600002 L49,107.76 L53.04,107.76 L53.04,109.8 L46.96,109.8 L46.96,95.5600002 Z M9.96,117.56 L16.04,117.56 L16.04,119.48 L12,119.48 L12,123.66 L15.52,123.66 L15.52,125.58 L12,125.58 L12,129.76 L16.04,129.76 L16.04,131.8 L9.96,131.8 L9.96,117.56 Z M17.28,117.56 L19.24,117.56 L22.32,126.14 L22.36,126.14 L22.36,117.56 L24.4,117.56 L24.4,131.8 L22.48,131.8 L19.36,123.24 L19.32,123.24 L19.32,131.8 L17.28,131.8 L17.28,117.56 Z M26.12,120.92 C26.12,120.346664 26.219999,119.840002 26.42,119.4 C26.620001,118.959998 26.8833317,118.596668 27.21,118.31 C27.5366683,118.023332 27.9033313,117.806668 28.31,117.66 C28.7166687,117.513333 29.1266646,117.44 29.54,117.44 C29.9533354,117.44 30.3633313,117.513333 30.77,117.66 C31.1766687,117.806668 31.5433317,118.023332 31.87,118.31 C32.1966683,118.596668 32.459999,118.959998 32.66,119.4 C32.860001,119.840002 32.96,120.346664 32.96,120.92 L32.96,121.64 L30.92,121.64 L30.92,120.92 C30.92,120.426664 30.7833347,120.063335 30.51,119.83 C30.2366653,119.596666 29.9133352,119.48 29.54,119.48 C29.1666648,119.48 28.8433347,119.596666 28.57,119.83 C28.2966653,120.063335 28.16,120.426664 28.16,120.92 L28.16,128.44 C28.16,128.933336 28.2966653,129.296666 28.57,129.53 C28.8433347,129.763335 29.1666648,129.88 29.54,129.88 C29.9133352,129.88 30.2366653,129.763335 30.51,129.53 C30.7833347,129.296666 30.92,128.933336 30.92,128.44 L30.92,125.76 L29.3,125.76 L29.3,123.96 L32.96,123.96 L32.96,128.44 C32.96,129.02667 32.860001,129.536665 32.66,129.97 C32.459999,130.403336 32.1966683,130.763332 31.87,131.05 C31.5433317,131.336668 31.1766687,131.553333 30.77,131.7 C30.3633313,131.846668 29.9533354,131.92 29.54,131.92 C29.1266646,131.92 28.7166687,131.846668 28.31,131.7 C27.9033313,131.553333 27.5366683,131.336668 27.21,131.05 C26.8833317,130.763332 26.620001,130.403336 26.42,129.97 C26.219999,129.536665 26.12,129.02667 26.12,128.44 L26.12,120.92 Z M37.88,121.66 L37.84,121.66 L36.84,126.82 L38.88,126.82 L37.88,121.66 Z M37.02,117.56 L38.72,117.56 L41.9,131.8 L39.86,131.8 L39.26,128.74 L36.48,128.74 L35.88,131.8 L33.84,131.8 L37.02,117.56 Z M42.78,120.92 C42.78,120.346664 42.879999,119.840002 43.08,119.4 C43.280001,118.959998 43.5433317,118.596668 43.87,118.31 C44.1966683,118.023332 44.5633313,117.806668 44.97,117.66 C45.3766687,117.513333 45.7866646,117.44 46.2,117.44 C46.6133354,117.44 47.0233313,117.513333 47.43,117.66 C47.8366687,117.806668 48.2033317,118.023332 48.53,118.31 C48.8566683,118.596668 49.119999,118.959998 49.32,119.4 C49.520001,119.840002 49.62,120.346664 49.62,120.92 L49.62,121.64 L47.58,121.64 L47.58,120.92 C47.58,120.426664 47.4433347,120.063335 47.17,119.83 C46.8966653,119.596666 46.5733352,119.48 46.2,119.48 C45.8266648,119.48 45.5033347,119.596666 45.23,119.83 C44.9566653,120.063335 44.82,120.426664 44.82,120.92 L44.82,128.44 C44.82,128.933336 44.9566653,129.296666 45.23,129.53 C45.5033347,129.763335 45.8266648,129.88 46.2,129.88 C46.5733352,129.88 46.8966653,129.763335 47.17,129.53 C47.4433347,129.296666 47.58,128.933336 47.58,128.44 L47.58,125.76 L45.96,125.76 L45.96,123.96 L49.62,123.96 L49.62,128.44 C49.62,129.02667 49.520001,129.536665 49.32,129.97 C49.119999,130.403336 48.8566683,130.763332 48.53,131.05 C48.2033317,131.336668 47.8366687,131.553333 47.43,131.7 C47.0233313,131.846668 46.6133354,131.92 46.2,131.92 C45.7866646,131.92 45.3766687,131.846668 44.97,131.7 C44.5633313,131.553333 44.1966683,131.336668 43.87,131.05 C43.5433317,130.763332 43.280001,130.403336 43.08,129.97 C42.879999,129.536665 42.78,129.02667 42.78,128.44 L42.78,120.92 Z M51.42,117.56 L57.5,117.56 L57.5,119.48 L53.46,119.48 L53.46,123.66 L56.98,123.66 L56.98,125.58 L53.46,125.58 L53.46,129.76 L57.5,129.76 L57.5,131.8 L51.42,131.8 L51.42,117.56 Z M58.82,117.56 L60.78,117.56 L63.4,125.1 L63.44,125.1 L66.04,117.56 L68.02,117.56 L68.02,131.8 L65.98,131.8 L65.98,123.14 L65.94,123.14 L63.92,129.26 L62.9,129.26 L60.9,123.14 L60.86,123.14 L60.86,131.8 L58.82,131.8 L58.82,117.56 Z M69.94,117.56 L76.02,117.56 L76.02,119.48 L71.98,119.48 L71.98,123.66 L75.5,123.66 L75.5,125.58 L71.98,125.58 L71.98,129.76 L76.02,129.76 L76.02,131.8 L69.94,131.8 L69.94,117.56 Z M77.26,117.56 L79.22,117.56 L82.3,126.14 L82.34,126.14 L82.34,117.56 L84.38,117.56 L84.38,131.8 L82.46,131.8 L79.34,123.24 L79.3,123.24 L79.3,131.8 L77.26,131.8 L77.26,117.56 Z M87.56,119.48 L85.2,119.48 L85.2,117.56 L91.96,117.56 L91.96,119.48 L89.6,119.48 L89.6,131.8 L87.56,131.8 L87.56,119.48 Z" id="SOCIAL-" fill="#FFFFFF"></path>
                <path d="M312,270.347488 L103.235294,391 L0,328.968354 L312,147.854654 L312,270.347488 Z" id="Combined-Shape" fill="#D4373C"></path>
                <path d="M76.823875,285.985828 L79.271875,285.985828 L79.271875,293.305828 L82.295875,293.305828 L82.295875,285.985828 L84.743875,285.985828 L84.743875,303.073828 L82.295875,303.073828 L82.295875,295.465828 L79.271875,295.465828 L79.271875,303.073828 L76.823875,303.073828 L76.823875,285.985828 Z M87.119875,285.985828 L89.567875,285.985828 L89.567875,303.073828 L87.119875,303.073828 L87.119875,285.985828 Z M99.863875,290.905828 L97.415875,290.905828 L97.415875,290.353828 C97.415875,289.793825 97.2838763,289.30983 97.019875,288.901828 C96.7558737,288.493826 96.3118781,288.289828 95.687875,288.289828 C95.3518733,288.289828 95.0758761,288.353827 94.859875,288.481828 C94.6438739,288.609829 94.4758756,288.773827 94.355875,288.973828 C94.2358744,289.173829 94.1518752,289.405827 94.103875,289.669828 C94.0558748,289.933829 94.031875,290.209827 94.031875,290.497828 C94.031875,290.83383 94.0438749,291.117827 94.067875,291.349828 C94.0918751,291.581829 94.1518745,291.781827 94.247875,291.949828 C94.3438755,292.117829 94.4838741,292.265827 94.667875,292.393828 C94.8518759,292.521829 95.1038734,292.649827 95.423875,292.777828 L97.295875,293.521828 C97.8398777,293.729829 98.2798733,293.973827 98.615875,294.253828 C98.9518767,294.53383 99.2118741,294.861826 99.395875,295.237828 C99.5798759,295.61383 99.7038747,296.045826 99.767875,296.533828 C99.8318753,297.021831 99.863875,297.577825 99.863875,298.201828 C99.863875,298.921832 99.7918757,299.589825 99.647875,300.205828 C99.5038743,300.821831 99.2678766,301.349826 98.939875,301.789828 C98.6118734,302.22983 98.1758777,302.577827 97.631875,302.833828 C97.0878723,303.089829 96.4238789,303.217828 95.639875,303.217828 C95.047872,303.217828 94.4958776,303.113829 93.983875,302.905828 C93.4718724,302.697827 93.0318768,302.41383 92.663875,302.053828 C92.2958732,301.693826 92.0038761,301.265831 91.787875,300.769828 C91.5718739,300.273826 91.463875,299.737831 91.463875,299.161828 L91.463875,298.249828 L93.911875,298.249828 L93.911875,299.017828 C93.911875,299.46583 94.0438737,299.869826 94.307875,300.229828 C94.5718763,300.58983 95.0158719,300.769828 95.639875,300.769828 C96.0558771,300.769828 96.3798738,300.709829 96.611875,300.589828 C96.8438762,300.469828 97.0198744,300.301829 97.139875,300.085828 C97.2598756,299.869827 97.3358748,299.60183 97.367875,299.281828 C97.3998752,298.961827 97.415875,298.60983 97.415875,298.225828 C97.415875,297.777826 97.3998752,297.40983 97.367875,297.121828 C97.3358748,296.833827 97.2678755,296.601829 97.163875,296.425828 C97.0598745,296.249827 96.9158759,296.105829 96.731875,295.993828 C96.5478741,295.881828 96.3038765,295.761829 95.999875,295.633828 L94.247875,294.913828 C93.1918697,294.481826 92.4838768,293.909832 92.123875,293.197828 C91.7638732,292.485825 91.583875,291.593833 91.583875,290.521828 C91.583875,289.881825 91.6718741,289.273831 91.847875,288.697828 C92.0238759,288.121825 92.2838733,287.62583 92.627875,287.209828 C92.9718767,286.793826 93.4078724,286.461829 93.935875,286.213828 C94.4638776,285.965827 95.0798715,285.841828 95.783875,285.841828 C96.391878,285.841828 96.9478725,285.953827 97.451875,286.177828 C97.9558775,286.401829 98.3878732,286.697826 98.747875,287.065828 C99.1078768,287.43383 99.383874,287.845826 99.575875,288.301828 C99.767876,288.75783 99.863875,289.225826 99.863875,289.705828 L99.863875,290.905828 Z M103.295875,288.289828 L100.463875,288.289828 L100.463875,285.985828 L108.575875,285.985828 L108.575875,288.289828 L105.743875,288.289828 L105.743875,303.073828 L103.295875,303.073828 L103.295875,288.289828 Z M109.511875,290.017828 C109.511875,289.329825 109.631874,288.721831 109.871875,288.193828 C110.111876,287.665825 110.427873,287.22983 110.819875,286.885828 C111.211877,286.541826 111.651873,286.281829 112.139875,286.105828 C112.627877,285.929827 113.119873,285.841828 113.615875,285.841828 C114.111877,285.841828 114.603873,285.929827 115.091875,286.105828 C115.579877,286.281829 116.019873,286.541826 116.411875,286.885828 C116.803877,287.22983 117.119874,287.665825 117.359875,288.193828 C117.599876,288.721831 117.719875,289.329825 117.719875,290.017828 L117.719875,299.041828 C117.719875,299.745832 117.599876,300.357826 117.359875,300.877828 C117.119874,301.397831 116.803877,301.829826 116.411875,302.173828 C116.019873,302.51783 115.579877,302.777827 115.091875,302.953828 C114.603873,303.129829 114.111877,303.217828 113.615875,303.217828 C113.119873,303.217828 112.627877,303.129829 112.139875,302.953828 C111.651873,302.777827 111.211877,302.51783 110.819875,302.173828 C110.427873,301.829826 110.111876,301.397831 109.871875,300.877828 C109.631874,300.357826 109.511875,299.745832 109.511875,299.041828 L109.511875,290.017828 Z M111.959875,299.041828 C111.959875,299.633831 112.123873,300.069827 112.451875,300.349828 C112.779877,300.62983 113.167873,300.769828 113.615875,300.769828 C114.063877,300.769828 114.451873,300.62983 114.779875,300.349828 C115.107877,300.069827 115.271875,299.633831 115.271875,299.041828 L115.271875,290.017828 C115.271875,289.425825 115.107877,288.98983 114.779875,288.709828 C114.451873,288.429827 114.063877,288.289828 113.615875,288.289828 C113.167873,288.289828 112.779877,288.429827 112.451875,288.709828 C112.123873,288.98983 111.959875,289.425825 111.959875,290.017828 L111.959875,299.041828 Z M122.327875,293.617828 L123.719875,293.617828 C124.151877,293.617828 124.495874,293.557829 124.751875,293.437828 C125.007876,293.317828 125.203874,293.145829 125.339875,292.921828 C125.475876,292.697827 125.567875,292.42183 125.615875,292.093828 C125.663875,291.765826 125.687875,291.38583 125.687875,290.953828 C125.687875,290.521826 125.663875,290.14183 125.615875,289.813828 C125.567875,289.485826 125.467876,289.205829 125.315875,288.973828 C125.163874,288.741827 124.951876,288.569829 124.679875,288.457828 C124.407874,288.345828 124.047877,288.289828 123.599875,288.289828 L122.327875,288.289828 L122.327875,293.617828 Z M119.879875,285.985828 L123.815875,285.985828 C126.695889,285.985828 128.135875,287.657811 128.135875,291.001828 C128.135875,291.993833 127.979877,292.845825 127.667875,293.557828 C127.355873,294.269832 126.807879,294.841826 126.023875,295.273828 L128.663875,303.073828 L126.071875,303.073828 L123.791875,295.777828 L122.327875,295.777828 L122.327875,303.073828 L119.879875,303.073828 L119.879875,285.985828 Z M132.383875,295.849828 L129.023875,285.985828 L131.615875,285.985828 L133.583875,292.777828 L133.631875,292.777828 L135.599875,285.985828 L138.191875,285.985828 L134.831875,295.849828 L134.831875,303.073828 L132.383875,303.073828 L132.383875,295.849828 Z M78.431875,314.689828 L75.599875,314.689828 L75.599875,312.385828 L83.711875,312.385828 L83.711875,314.689828 L80.879875,314.689828 L80.879875,329.473828 L78.431875,329.473828 L78.431875,314.689828 Z M87.239875,320.017828 L88.631875,320.017828 C89.0638772,320.017828 89.4078737,319.957829 89.663875,319.837828 C89.9198763,319.717828 90.1158743,319.545829 90.251875,319.321828 C90.3878757,319.097827 90.4798748,318.82183 90.527875,318.493828 C90.5758752,318.165826 90.599875,317.78583 90.599875,317.353828 C90.599875,316.921826 90.5758752,316.54183 90.527875,316.213828 C90.4798748,315.885826 90.3798758,315.605829 90.227875,315.373828 C90.0758742,315.141827 89.8638764,314.969829 89.591875,314.857828 C89.3198736,314.745828 88.9598772,314.689828 88.511875,314.689828 L87.239875,314.689828 L87.239875,320.017828 Z M84.791875,312.385828 L88.727875,312.385828 C91.6078894,312.385828 93.047875,314.057811 93.047875,317.401828 C93.047875,318.393833 92.8918766,319.245825 92.579875,319.957828 C92.2678734,320.669832 91.7198789,321.241826 90.935875,321.673828 L93.575875,329.473828 L90.983875,329.473828 L88.703875,322.177828 L87.239875,322.177828 L87.239875,329.473828 L84.791875,329.473828 L84.791875,312.385828 Z M98.759875,317.305828 L98.711875,317.305828 L97.511875,323.497828 L99.959875,323.497828 L98.759875,317.305828 Z M97.727875,312.385828 L99.767875,312.385828 L103.583875,329.473828 L101.135875,329.473828 L100.415875,325.801828 L97.079875,325.801828 L96.359875,329.473828 L93.911875,329.473828 L97.727875,312.385828 Z M104.783875,312.385828 L108.407875,312.385828 C109.799882,312.385828 110.863871,312.773824 111.599875,313.549828 C112.335879,314.325832 112.703875,315.409821 112.703875,316.801828 L112.703875,324.793828 C112.703875,326.393836 112.315879,327.573824 111.539875,328.333828 C110.763871,329.093832 109.647882,329.473828 108.191875,329.473828 L104.783875,329.473828 L104.783875,312.385828 Z M107.231875,327.169828 L108.359875,327.169828 C109.047878,327.169828 109.535874,326.99783 109.823875,326.653828 C110.111876,326.309826 110.255875,325.769832 110.255875,325.033828 L110.255875,316.801828 C110.255875,316.129825 110.119876,315.60983 109.847875,315.241828 C109.575874,314.873826 109.079879,314.689828 108.359875,314.689828 L107.231875,314.689828 L107.231875,327.169828 Z M115.079875,312.385828 L117.527875,312.385828 L117.527875,329.473828 L115.079875,329.473828 L115.079875,312.385828 Z M121.511875,314.689828 L118.679875,314.689828 L118.679875,312.385828 L126.791875,312.385828 L126.791875,314.689828 L123.959875,314.689828 L123.959875,329.473828 L121.511875,329.473828 L121.511875,314.689828 Z M127.943875,312.385828 L130.391875,312.385828 L130.391875,329.473828 L127.943875,329.473828 L127.943875,312.385828 Z M132.623875,316.417828 C132.623875,315.729825 132.743874,315.121831 132.983875,314.593828 C133.223876,314.065825 133.539873,313.62983 133.931875,313.285828 C134.323877,312.941826 134.763873,312.681829 135.251875,312.505828 C135.739877,312.329827 136.231873,312.241828 136.727875,312.241828 C137.223877,312.241828 137.715873,312.329827 138.203875,312.505828 C138.691877,312.681829 139.131873,312.941826 139.523875,313.285828 C139.915877,313.62983 140.231874,314.065825 140.471875,314.593828 C140.711876,315.121831 140.831875,315.729825 140.831875,316.417828 L140.831875,325.441828 C140.831875,326.145832 140.711876,326.757826 140.471875,327.277828 C140.231874,327.797831 139.915877,328.229826 139.523875,328.573828 C139.131873,328.91783 138.691877,329.177827 138.203875,329.353828 C137.715873,329.529829 137.223877,329.617828 136.727875,329.617828 C136.231873,329.617828 135.739877,329.529829 135.251875,329.353828 C134.763873,329.177827 134.323877,328.91783 133.931875,328.573828 C133.539873,328.229826 133.223876,327.797831 132.983875,327.277828 C132.743874,326.757826 132.623875,326.145832 132.623875,325.441828 L132.623875,316.417828 Z M135.071875,325.441828 C135.071875,326.033831 135.235873,326.469827 135.563875,326.749828 C135.891877,327.02983 136.279873,327.169828 136.727875,327.169828 C137.175877,327.169828 137.563873,327.02983 137.891875,326.749828 C138.219877,326.469827 138.383875,326.033831 138.383875,325.441828 L138.383875,316.417828 C138.383875,315.825825 138.219877,315.38983 137.891875,315.109828 C137.563873,314.829827 137.175877,314.689828 136.727875,314.689828 C136.279873,314.689828 135.891877,314.829827 135.563875,315.109828 C135.235873,315.38983 135.071875,315.825825 135.071875,316.417828 L135.071875,325.441828 Z M142.895875,312.385828 L145.247875,312.385828 L148.943875,322.681828 L148.991875,322.681828 L148.991875,312.385828 L151.439875,312.385828 L151.439875,329.473828 L149.135875,329.473828 L145.391875,319.201828 L145.343875,319.201828 L145.343875,329.473828 L142.895875,329.473828 L142.895875,312.385828 Z M84.599875,352.057828 C84.599875,352.585831 84.499876,353.089826 84.299875,353.569828 C84.099874,354.049831 83.8238768,354.469826 83.471875,354.829828 C83.1198732,355.18983 82.7078774,355.477827 82.235875,355.693828 C81.7638726,355.909829 81.2558777,356.017828 80.711875,356.017828 C80.2478727,356.017828 79.7758774,355.953829 79.295875,355.825828 C78.8158726,355.697827 78.3838769,355.47783 77.999875,355.165828 C77.6158731,354.853827 77.2998762,354.441831 77.051875,353.929828 C76.8038738,353.417826 76.679875,352.769832 76.679875,351.985828 L76.679875,342.577828 C76.679875,342.017825 76.775874,341.497831 76.967875,341.017828 C77.159876,340.537826 77.4318732,340.12183 77.783875,339.769828 C78.1358768,339.417826 78.5558726,339.141829 79.043875,338.941828 C79.5318774,338.741827 80.071872,338.641828 80.663875,338.641828 C81.2238778,338.641828 81.7438726,338.741827 82.223875,338.941828 C82.7038774,339.141829 83.1198732,339.421826 83.471875,339.781828 C83.8238768,340.14183 84.099874,340.573826 84.299875,341.077828 C84.499876,341.581831 84.599875,342.129825 84.599875,342.721828 L84.599875,343.681828 L82.151875,343.681828 L82.151875,342.865828 C82.151875,342.385826 82.0158764,341.96983 81.743875,341.617828 C81.4718736,341.265826 81.1038773,341.089828 80.639875,341.089828 C80.031872,341.089828 79.627876,341.277826 79.427875,341.653828 C79.227874,342.02983 79.127875,342.505825 79.127875,343.081828 L79.127875,351.817828 C79.127875,352.313831 79.2358739,352.729826 79.451875,353.065828 C79.6678761,353.40183 80.0558722,353.569828 80.615875,353.569828 C80.7758758,353.569828 80.9478741,353.541828 81.131875,353.485828 C81.3158759,353.429828 81.4838742,353.337829 81.635875,353.209828 C81.7878758,353.081827 81.9118745,352.905829 82.007875,352.681828 C82.1038755,352.457827 82.151875,352.17783 82.151875,351.841828 L82.151875,351.001828 L84.599875,351.001828 L84.599875,352.057828 Z M94.511875,352.033828 C94.511875,352.593831 94.407876,353.113826 94.199875,353.593828 C93.991874,354.073831 93.7078768,354.493826 93.347875,354.853828 C92.9878732,355.21383 92.5678774,355.497827 92.087875,355.705828 C91.6078726,355.913829 91.0958777,356.017828 90.551875,356.017828 C90.0078723,356.017828 89.4958774,355.913829 89.015875,355.705828 C88.5358726,355.497827 88.1158768,355.21383 87.755875,354.853828 C87.3958732,354.493826 87.111876,354.073831 86.903875,353.593828 C86.695874,353.113826 86.591875,352.593831 86.591875,352.033828 L86.591875,338.785828 L89.039875,338.785828 L89.039875,351.793828 C89.039875,352.401831 89.1838736,352.849827 89.471875,353.137828 C89.7598764,353.42583 90.1198728,353.569828 90.551875,353.569828 C90.9838772,353.569828 91.3438736,353.42583 91.631875,353.137828 C91.9198764,352.849827 92.063875,352.401831 92.063875,351.793828 L92.063875,338.785828 L94.511875,338.785828 L94.511875,352.033828 Z M96.815875,338.785828 L99.263875,338.785828 L99.263875,353.425828 L104.111875,353.425828 L104.111875,355.873828 L96.815875,355.873828 L96.815875,338.785828 Z M107.303875,341.089828 L104.471875,341.089828 L104.471875,338.785828 L112.583875,338.785828 L112.583875,341.089828 L109.751875,341.089828 L109.751875,355.873828 L107.303875,355.873828 L107.303875,341.089828 Z M121.583875,352.033828 C121.583875,352.593831 121.479876,353.113826 121.271875,353.593828 C121.063874,354.073831 120.779877,354.493826 120.419875,354.853828 C120.059873,355.21383 119.639877,355.497827 119.159875,355.705828 C118.679873,355.913829 118.167878,356.017828 117.623875,356.017828 C117.079872,356.017828 116.567877,355.913829 116.087875,355.705828 C115.607873,355.497827 115.187877,355.21383 114.827875,354.853828 C114.467873,354.493826 114.183876,354.073831 113.975875,353.593828 C113.767874,353.113826 113.663875,352.593831 113.663875,352.033828 L113.663875,338.785828 L116.111875,338.785828 L116.111875,351.793828 C116.111875,352.401831 116.255874,352.849827 116.543875,353.137828 C116.831876,353.42583 117.191873,353.569828 117.623875,353.569828 C118.055877,353.569828 118.415874,353.42583 118.703875,353.137828 C118.991876,352.849827 119.135875,352.401831 119.135875,351.793828 L119.135875,338.785828 L121.583875,338.785828 L121.583875,352.033828 Z M126.335875,346.417828 L127.727875,346.417828 C128.159877,346.417828 128.503874,346.357829 128.759875,346.237828 C129.015876,346.117828 129.211874,345.945829 129.347875,345.721828 C129.483876,345.497827 129.575875,345.22183 129.623875,344.893828 C129.671875,344.565826 129.695875,344.18583 129.695875,343.753828 C129.695875,343.321826 129.671875,342.94183 129.623875,342.613828 C129.575875,342.285826 129.475876,342.005829 129.323875,341.773828 C129.171874,341.541827 128.959876,341.369829 128.687875,341.257828 C128.415874,341.145828 128.055877,341.089828 127.607875,341.089828 L126.335875,341.089828 L126.335875,346.417828 Z M123.887875,338.785828 L127.823875,338.785828 C130.703889,338.785828 132.143875,340.457811 132.143875,343.801828 C132.143875,344.793833 131.987877,345.645825 131.675875,346.357828 C131.363873,347.069832 130.815879,347.641826 130.031875,348.073828 L132.671875,355.873828 L130.079875,355.873828 L127.799875,348.577828 L126.335875,348.577828 L126.335875,355.873828 L123.887875,355.873828 L123.887875,338.785828 Z M134.111875,338.785828 L141.407875,338.785828 L141.407875,341.089828 L136.559875,341.089828 L136.559875,346.105828 L140.783875,346.105828 L140.783875,348.409828 L136.559875,348.409828 L136.559875,353.425828 L141.407875,353.425828 L141.407875,355.873828 L134.111875,355.873828 L134.111875,338.785828 Z" id="HISTORY" fill="#FFFFFF" transform="translate(113.519875, 320.929828) rotate(-31.000000) translate(-113.519875, -320.929828) "></path>
                <path d="M624,149.492833 L415.235294,270.145346 L312,208.1137 L624,27 L624,149.492833 Z" id="Combined-Shape" fill="#3489DB" transform="translate(468.000000, 148.572673) rotate(-180.000000) translate(-468.000000, -148.572673) "></path>
                <polygon id="Path-80" fill="#2DBA9B" points="520.304348 149.740458 518 391 624 328.961832 624 90"></polygon>
                <path d="M279.690617,202.591348 C278.896492,201.288346 279.368684,199.6217 280.742804,198.870147 L339.283087,166.852459 C340.658318,166.100298 342.420243,166.552282 343.211053,167.849844 L344.919466,170.653014 C345.713591,171.956016 345.241399,173.622662 343.86728,174.374215 L285.326996,206.391903 C283.951765,207.144064 282.18984,206.69208 281.39903,205.394518 L279.690617,202.591348" id="Rectangle-468" fill="#FFFFFF"></path>
                <path d="M279.385575,225.103029 C278.591451,223.800027 279.063643,222.13338 280.437762,221.381827 L338.978045,189.36414 C340.353277,188.611979 342.115202,189.063962 342.906011,190.361525 L344.614425,193.164695 C345.408549,194.467696 344.936357,196.134343 343.562238,196.885896 L285.021955,228.903584 C283.646723,229.655745 281.884798,229.203761 281.093989,227.906199 L279.385575,225.103029" id="Rectangle-468-Copy" fill="#FFFFFF"></path>
                <path d="M279.385575,249.103029 C278.591451,247.800027 279.063643,246.13338 280.437762,245.381827 L338.978045,213.36414 C340.353277,212.611979 342.115202,213.063962 342.906011,214.361525 L344.614425,217.164695 C345.408549,218.467696 344.936357,220.134343 343.562238,220.885896 L285.021955,252.903584 C283.646723,253.655745 281.884798,253.203761 281.093989,251.906199 L279.385575,249.103029" id="Rectangle-468-Copy-2" fill="#FFFFFF"></path>
                <path d="M129.590017,178.755695 L136.886017,178.755695 L136.886017,181.059695 L132.038017,181.059695 L132.038017,186.075695 L136.262017,186.075695 L136.262017,188.379695 L132.038017,188.379695 L132.038017,193.395695 L136.886017,193.395695 L136.886017,195.843695 L129.590017,195.843695 L129.590017,178.755695 Z M140.726017,186.891695 L137.534017,178.755695 L140.126017,178.755695 L141.974017,183.819695 L143.846017,178.755695 L146.438017,178.755695 L143.174017,186.891695 L146.702017,195.843695 L144.110017,195.843695 L141.974017,190.083695 L139.862017,195.843695 L137.270017,195.843695 L140.726017,186.891695 Z M155.582017,192.027695 C155.582017,192.555698 155.482018,193.059693 155.282017,193.539695 C155.082016,194.019698 154.806018,194.439693 154.454017,194.799695 C154.102015,195.159697 153.690019,195.447694 153.218017,195.663695 C152.746014,195.879696 152.238019,195.987695 151.694017,195.987695 C151.230014,195.987695 150.758019,195.923696 150.278017,195.795695 C149.798014,195.667695 149.366019,195.447697 148.982017,195.135695 C148.598015,194.823694 148.282018,194.411698 148.034017,193.899695 C147.786015,193.387693 147.662017,192.739699 147.662017,191.955695 L147.662017,182.547695 C147.662017,181.987692 147.758016,181.467698 147.950017,180.987695 C148.142018,180.507693 148.414015,180.091697 148.766017,179.739695 C149.118018,179.387693 149.538014,179.111696 150.026017,178.911695 C150.514019,178.711694 151.054014,178.611695 151.646017,178.611695 C152.20602,178.611695 152.726014,178.711694 153.206017,178.911695 C153.686019,179.111696 154.102015,179.391693 154.454017,179.751695 C154.806018,180.111697 155.082016,180.543693 155.282017,181.047695 C155.482018,181.551698 155.582017,182.099692 155.582017,182.691695 L155.582017,183.651695 L153.134017,183.651695 L153.134017,182.835695 C153.134017,182.355693 152.998018,181.939697 152.726017,181.587695 C152.454015,181.235693 152.086019,181.059695 151.622017,181.059695 C151.014014,181.059695 150.610018,181.247693 150.410017,181.623695 C150.210016,181.999697 150.110017,182.475692 150.110017,183.051695 L150.110017,191.787695 C150.110017,192.283698 150.218016,192.699694 150.434017,193.035695 C150.650018,193.371697 151.038014,193.539695 151.598017,193.539695 C151.758018,193.539695 151.930016,193.511695 152.114017,193.455695 C152.298018,193.399695 152.466016,193.307696 152.618017,193.179695 C152.770017,193.051695 152.894016,192.875696 152.990017,192.651695 C153.086017,192.427694 153.134017,192.147697 153.134017,191.811695 L153.134017,190.971695 L155.582017,190.971695 L155.582017,192.027695 Z M157.574017,178.755695 L164.870017,178.755695 L164.870017,181.059695 L160.022017,181.059695 L160.022017,186.075695 L164.246017,186.075695 L164.246017,188.379695 L160.022017,188.379695 L160.022017,193.395695 L164.870017,193.395695 L164.870017,195.843695 L157.574017,195.843695 L157.574017,178.755695 Z M166.454017,178.755695 L168.902017,178.755695 L168.902017,193.395695 L173.750017,193.395695 L173.750017,195.843695 L166.454017,195.843695 L166.454017,178.755695 Z M175.334017,178.755695 L177.782017,178.755695 L177.782017,193.395695 L182.630017,193.395695 L182.630017,195.843695 L175.334017,195.843695 L175.334017,178.755695 Z M184.214017,178.755695 L191.510017,178.755695 L191.510017,181.059695 L186.662017,181.059695 L186.662017,186.075695 L190.886017,186.075695 L190.886017,188.379695 L186.662017,188.379695 L186.662017,193.395695 L191.510017,193.395695 L191.510017,195.843695 L184.214017,195.843695 L184.214017,178.755695 Z M192.998017,178.755695 L195.350017,178.755695 L199.046017,189.051695 L199.094017,189.051695 L199.094017,178.755695 L201.542017,178.755695 L201.542017,195.843695 L199.238017,195.843695 L195.494017,185.571695 L195.446017,185.571695 L195.446017,195.843695 L192.998017,195.843695 L192.998017,178.755695 Z M211.526017,192.027695 C211.526017,192.555698 211.426018,193.059693 211.226017,193.539695 C211.026016,194.019698 210.750018,194.439693 210.398017,194.799695 C210.046015,195.159697 209.634019,195.447694 209.162017,195.663695 C208.690014,195.879696 208.182019,195.987695 207.638017,195.987695 C207.174014,195.987695 206.702019,195.923696 206.222017,195.795695 C205.742014,195.667695 205.310019,195.447697 204.926017,195.135695 C204.542015,194.823694 204.226018,194.411698 203.978017,193.899695 C203.730015,193.387693 203.606017,192.739699 203.606017,191.955695 L203.606017,182.547695 C203.606017,181.987692 203.702016,181.467698 203.894017,180.987695 C204.086018,180.507693 204.358015,180.091697 204.710017,179.739695 C205.062018,179.387693 205.482014,179.111696 205.970017,178.911695 C206.458019,178.711694 206.998014,178.611695 207.590017,178.611695 C208.15002,178.611695 208.670014,178.711694 209.150017,178.911695 C209.630019,179.111696 210.046015,179.391693 210.398017,179.751695 C210.750018,180.111697 211.026016,180.543693 211.226017,181.047695 C211.426018,181.551698 211.526017,182.099692 211.526017,182.691695 L211.526017,183.651695 L209.078017,183.651695 L209.078017,182.835695 C209.078017,182.355693 208.942018,181.939697 208.670017,181.587695 C208.398015,181.235693 208.030019,181.059695 207.566017,181.059695 C206.958014,181.059695 206.554018,181.247693 206.354017,181.623695 C206.154016,181.999697 206.054017,182.475692 206.054017,183.051695 L206.054017,191.787695 C206.054017,192.283698 206.162016,192.699694 206.378017,193.035695 C206.594018,193.371697 206.982014,193.539695 207.542017,193.539695 C207.702018,193.539695 207.874016,193.511695 208.058017,193.455695 C208.242018,193.399695 208.410016,193.307696 208.562017,193.179695 C208.714017,193.051695 208.838016,192.875696 208.934017,192.651695 C209.030017,192.427694 209.078017,192.147697 209.078017,191.811695 L209.078017,190.971695 L211.526017,190.971695 L211.526017,192.027695 Z M213.518017,178.755695 L220.814017,178.755695 L220.814017,181.059695 L215.966017,181.059695 L215.966017,186.075695 L220.190017,186.075695 L220.190017,188.379695 L215.966017,188.379695 L215.966017,193.395695 L220.814017,193.395695 L220.814017,195.843695 L213.518017,195.843695 L213.518017,178.755695 Z" id="ACADEMIC" fill="#FFFFFF" transform="translate(175.418017, 187.299695) rotate(-29.000000) translate(-175.418017, -187.299695) "></path>
                <path d="M409.471984,315.493545 L416.767984,315.493545 L416.767984,317.797545 L411.919984,317.797545 L411.919984,322.813545 L416.143984,322.813545 L416.143984,325.117545 L411.919984,325.117545 L411.919984,330.133545 L416.767984,330.133545 L416.767984,332.581545 L409.471984,332.581545 L409.471984,315.493545 Z M420.607984,323.629545 L417.415984,315.493545 L420.007984,315.493545 L421.855984,320.557545 L423.727984,315.493545 L426.319984,315.493545 L423.055984,323.629545 L426.583984,332.581545 L423.991984,332.581545 L421.855984,326.821545 L419.743984,332.581545 L417.151984,332.581545 L420.607984,323.629545 Z M435.463984,328.765545 C435.463984,329.293548 435.363985,329.797543 435.163984,330.277545 C434.963983,330.757548 434.687985,331.177543 434.335984,331.537545 C433.983982,331.897547 433.571986,332.185544 433.099984,332.401545 C432.627981,332.617546 432.119986,332.725545 431.575984,332.725545 C431.111981,332.725545 430.639986,332.661546 430.159984,332.533545 C429.679981,332.405544 429.247985,332.185547 428.863984,331.873545 C428.479982,331.561544 428.163985,331.149548 427.915984,330.637545 C427.667982,330.125543 427.543984,329.477549 427.543984,328.693545 L427.543984,319.285545 C427.543984,318.725542 427.639983,318.205548 427.831984,317.725545 C428.023985,317.245543 428.295982,316.829547 428.647984,316.477545 C428.999985,316.125543 429.419981,315.849546 429.907984,315.649545 C430.395986,315.449544 430.935981,315.349545 431.527984,315.349545 C432.087986,315.349545 432.607981,315.449544 433.087984,315.649545 C433.567986,315.849546 433.983982,316.129543 434.335984,316.489545 C434.687985,316.849547 434.963983,317.281543 435.163984,317.785545 C435.363985,318.289548 435.463984,318.837542 435.463984,319.429545 L435.463984,320.389545 L433.015984,320.389545 L433.015984,319.573545 C433.015984,319.093543 432.879985,318.677547 432.607984,318.325545 C432.335982,317.973543 431.967986,317.797545 431.503984,317.797545 C430.895981,317.797545 430.491985,317.985543 430.291984,318.361545 C430.091983,318.737547 429.991984,319.213542 429.991984,319.789545 L429.991984,328.525545 C429.991984,329.021548 430.099982,329.437543 430.315984,329.773545 C430.531985,330.109547 430.919981,330.277545 431.479984,330.277545 C431.639984,330.277545 431.811983,330.249545 431.995984,330.193545 C432.179984,330.137545 432.347983,330.045546 432.499984,329.917545 C432.651984,329.789544 432.775983,329.613546 432.871984,329.389545 C432.967984,329.165544 433.015984,328.885547 433.015984,328.549545 L433.015984,327.709545 L435.463984,327.709545 L435.463984,328.765545 Z M437.455984,315.493545 L444.751984,315.493545 L444.751984,317.797545 L439.903984,317.797545 L439.903984,322.813545 L444.127984,322.813545 L444.127984,325.117545 L439.903984,325.117545 L439.903984,330.133545 L444.751984,330.133545 L444.751984,332.581545 L437.455984,332.581545 L437.455984,315.493545 Z M446.335984,315.493545 L448.783984,315.493545 L448.783984,330.133545 L453.631984,330.133545 L453.631984,332.581545 L446.335984,332.581545 L446.335984,315.493545 Z M455.215984,315.493545 L457.663984,315.493545 L457.663984,330.133545 L462.511984,330.133545 L462.511984,332.581545 L455.215984,332.581545 L455.215984,315.493545 Z M464.095984,315.493545 L471.391984,315.493545 L471.391984,317.797545 L466.543984,317.797545 L466.543984,322.813545 L470.767984,322.813545 L470.767984,325.117545 L466.543984,325.117545 L466.543984,330.133545 L471.391984,330.133545 L471.391984,332.581545 L464.095984,332.581545 L464.095984,315.493545 Z M472.879984,315.493545 L475.231984,315.493545 L478.927984,325.789545 L478.975984,325.789545 L478.975984,315.493545 L481.423984,315.493545 L481.423984,332.581545 L479.119984,332.581545 L475.375984,322.309545 L475.327984,322.309545 L475.327984,332.581545 L472.879984,332.581545 L472.879984,315.493545 Z M491.407984,328.765545 C491.407984,329.293548 491.307985,329.797543 491.107984,330.277545 C490.907983,330.757548 490.631985,331.177543 490.279984,331.537545 C489.927982,331.897547 489.515986,332.185544 489.043984,332.401545 C488.571981,332.617546 488.063986,332.725545 487.519984,332.725545 C487.055981,332.725545 486.583986,332.661546 486.103984,332.533545 C485.623981,332.405544 485.191985,332.185547 484.807984,331.873545 C484.423982,331.561544 484.107985,331.149548 483.859984,330.637545 C483.611982,330.125543 483.487984,329.477549 483.487984,328.693545 L483.487984,319.285545 C483.487984,318.725542 483.583983,318.205548 483.775984,317.725545 C483.967985,317.245543 484.239982,316.829547 484.591984,316.477545 C484.943985,316.125543 485.363981,315.849546 485.851984,315.649545 C486.339986,315.449544 486.879981,315.349545 487.471984,315.349545 C488.031986,315.349545 488.551981,315.449544 489.031984,315.649545 C489.511986,315.849546 489.927982,316.129543 490.279984,316.489545 C490.631985,316.849547 490.907983,317.281543 491.107984,317.785545 C491.307985,318.289548 491.407984,318.837542 491.407984,319.429545 L491.407984,320.389545 L488.959984,320.389545 L488.959984,319.573545 C488.959984,319.093543 488.823985,318.677547 488.551984,318.325545 C488.279982,317.973543 487.911986,317.797545 487.447984,317.797545 C486.839981,317.797545 486.435985,317.985543 486.235984,318.361545 C486.035983,318.737547 485.935984,319.213542 485.935984,319.789545 L485.935984,328.525545 C485.935984,329.021548 486.043982,329.437543 486.259984,329.773545 C486.475985,330.109547 486.863981,330.277545 487.423984,330.277545 C487.583984,330.277545 487.755983,330.249545 487.939984,330.193545 C488.123984,330.137545 488.291983,330.045546 488.443984,329.917545 C488.595984,329.789544 488.719983,329.613546 488.815984,329.389545 C488.911984,329.165544 488.959984,328.885547 488.959984,328.549545 L488.959984,327.709545 L491.407984,327.709545 L491.407984,328.765545 Z M493.399984,315.493545 L500.695984,315.493545 L500.695984,317.797545 L495.847984,317.797545 L495.847984,322.813545 L500.071984,322.813545 L500.071984,325.117545 L495.847984,325.117545 L495.847984,330.133545 L500.695984,330.133545 L500.695984,332.581545 L493.399984,332.581545 L493.399984,315.493545 Z" id="EXCELLENCE" fill="#FFFFFF" transform="translate(455.299984, 324.037545) rotate(30.000000) translate(-455.299984, -324.037545) "></path>
                <path d="M538.56,155.66 L536.52,155.66 L536.52,155.2 C536.52,154.733331 536.410001,154.330002 536.19,153.99 C535.969999,153.649998 535.600003,153.48 535.08,153.48 C534.799999,153.48 534.570001,153.533333 534.39,153.64 C534.209999,153.746667 534.07,153.883333 533.97,154.05 C533.869999,154.216668 533.8,154.409999 533.76,154.63 C533.72,154.850001 533.7,155.079999 533.7,155.32 C533.7,155.600002 533.71,155.836666 533.73,156.03 C533.75,156.223334 533.8,156.389999 533.88,156.53 C533.96,156.670001 534.076666,156.793333 534.23,156.9 C534.383334,157.006667 534.593332,157.113333 534.86,157.22 L536.42,157.84 C536.873336,158.013334 537.239999,158.216666 537.52,158.45 C537.800001,158.683335 538.016666,158.956665 538.17,159.27 C538.323334,159.583335 538.426666,159.943331 538.48,160.35 C538.533334,160.756669 538.56,161.219998 538.56,161.74 C538.56,162.340003 538.500001,162.896664 538.38,163.41 C538.259999,163.923336 538.063335,164.363332 537.79,164.73 C537.516665,165.096669 537.153336,165.386666 536.7,165.6 C536.246664,165.813335 535.693337,165.92 535.04,165.92 C534.546664,165.92 534.086669,165.833334 533.66,165.66 C533.233331,165.486666 532.866668,165.250002 532.56,164.95 C532.253332,164.649999 532.010001,164.293336 531.83,163.88 C531.649999,163.466665 531.56,163.020003 531.56,162.54 L531.56,161.78 L533.6,161.78 L533.6,162.42 C533.6,162.793335 533.709999,163.129999 533.93,163.43 C534.150001,163.730002 534.519997,163.88 535.04,163.88 C535.386668,163.88 535.656666,163.830001 535.85,163.73 C536.043334,163.63 536.189999,163.490001 536.29,163.31 C536.390001,163.129999 536.453333,162.906668 536.48,162.64 C536.506667,162.373332 536.52,162.080002 536.52,161.76 C536.52,161.386665 536.506667,161.080001 536.48,160.84 C536.453333,160.599999 536.396667,160.406668 536.31,160.26 C536.223333,160.113333 536.103334,159.993334 535.95,159.9 C535.796666,159.806666 535.593335,159.706667 535.34,159.6 L533.88,159 C532.999996,158.639998 532.410002,158.163336 532.11,157.57 C531.809999,156.976664 531.66,156.233338 531.66,155.34 C531.66,154.806664 531.733333,154.300003 531.88,153.82 C532.026667,153.339998 532.243332,152.926669 532.53,152.58 C532.816668,152.233332 533.179998,151.956668 533.62,151.75 C534.060002,151.543332 534.57333,151.44 535.16,151.44 C535.666669,151.44 536.129998,151.533333 536.55,151.72 C536.970002,151.906668 537.329998,152.153332 537.63,152.46 C537.930002,152.766668 538.159999,153.109998 538.32,153.49 C538.480001,153.870002 538.56,154.259998 538.56,154.66 L538.56,155.66 Z M539.96,154.92 C539.96,154.346664 540.059999,153.840002 540.26,153.4 C540.460001,152.959998 540.723332,152.596668 541.05,152.31 C541.376668,152.023332 541.743331,151.806668 542.15,151.66 C542.556669,151.513333 542.966665,151.44 543.38,151.44 C543.793335,151.44 544.203331,151.513333 544.61,151.66 C545.016669,151.806668 545.383332,152.023332 545.71,152.31 C546.036668,152.596668 546.299999,152.959998 546.5,153.4 C546.700001,153.840002 546.8,154.346664 546.8,154.92 L546.8,162.44 C546.8,163.02667 546.700001,163.536665 546.5,163.97 C546.299999,164.403336 546.036668,164.763332 545.71,165.05 C545.383332,165.336668 545.016669,165.553333 544.61,165.7 C544.203331,165.846668 543.793335,165.92 543.38,165.92 C542.966665,165.92 542.556669,165.846668 542.15,165.7 C541.743331,165.553333 541.376668,165.336668 541.05,165.05 C540.723332,164.763332 540.460001,164.403336 540.26,163.97 C540.059999,163.536665 539.96,163.02667 539.96,162.44 L539.96,154.92 Z M542,162.44 C542,162.933336 542.136665,163.296666 542.41,163.53 C542.683335,163.763335 543.006665,163.88 543.38,163.88 C543.753335,163.88 544.076665,163.763335 544.35,163.53 C544.623335,163.296666 544.76,162.933336 544.76,162.44 L544.76,154.92 C544.76,154.426664 544.623335,154.063335 544.35,153.83 C544.076665,153.596666 543.753335,153.48 543.38,153.48 C543.006665,153.48 542.683335,153.596666 542.41,153.83 C542.136665,154.063335 542,154.426664 542,154.92 L542,162.44 Z M555.08,162.62 C555.08,163.060002 554.996668,163.479998 554.83,163.88 C554.663333,164.280002 554.433335,164.629999 554.14,164.93 C553.846665,165.230002 553.503335,165.469999 553.11,165.65 C552.716665,165.830001 552.293336,165.92 551.84,165.92 C551.453331,165.92 551.060002,165.866667 550.66,165.76 C550.259998,165.653333 549.900002,165.470001 549.58,165.21 C549.259998,164.949999 548.996668,164.606669 548.79,164.18 C548.583332,163.753331 548.48,163.213337 548.48,162.56 L548.48,154.72 C548.48,154.253331 548.559999,153.820002 548.72,153.42 C548.880001,153.019998 549.106665,152.673335 549.4,152.38 C549.693335,152.086665 550.043331,151.856668 550.45,151.69 C550.856669,151.523333 551.306664,151.44 551.8,151.44 C552.266669,151.44 552.699998,151.523333 553.1,151.69 C553.500002,151.856668 553.846665,152.089999 554.14,152.39 C554.433335,152.690002 554.663333,153.049998 554.83,153.47 C554.996668,153.890002 555.08,154.346664 555.08,154.84 L555.08,155.64 L553.04,155.64 L553.04,154.96 C553.04,154.559998 552.926668,154.213335 552.7,153.92 C552.473332,153.626665 552.166669,153.48 551.78,153.48 C551.273331,153.48 550.936667,153.636665 550.77,153.95 C550.603332,154.263335 550.52,154.659998 550.52,155.14 L550.52,162.42 C550.52,162.833336 550.609999,163.179999 550.79,163.46 C550.970001,163.740002 551.293331,163.88 551.76,163.88 C551.893334,163.88 552.036666,163.856667 552.19,163.81 C552.343334,163.763333 552.483333,163.686667 552.61,163.58 C552.736667,163.473333 552.84,163.326668 552.92,163.14 C553,162.953333 553.04,162.720002 553.04,162.44 L553.04,161.74 L555.08,161.74 L555.08,162.62 Z M556.8,151.56 L558.84,151.56 L558.84,165.8 L556.8,165.8 L556.8,151.56 Z M563.94,155.66 L563.9,155.66 L562.9,160.82 L564.94,160.82 L563.94,155.66 Z M563.08,151.56 L564.78,151.56 L567.96,165.8 L565.92,165.8 L565.32,162.74 L562.54,162.74 L561.94,165.8 L559.9,165.8 L563.08,151.56 Z M568.96,151.56 L571,151.56 L571,163.76 L575.04,163.76 L575.04,165.8 L568.96,165.8 L568.96,151.56 Z M531.96,173.56 L538.04,173.56 L538.04,175.48 L534,175.48 L534,179.66 L537.52,179.66 L537.52,181.58 L534,181.58 L534,185.76 L538.04,185.76 L538.04,187.8 L531.96,187.8 L531.96,173.56 Z M539.28,173.56 L541.24,173.56 L544.32,182.14 L544.36,182.14 L544.36,173.56 L546.4,173.56 L546.4,187.8 L544.48,187.8 L541.36,179.24 L541.32,179.24 L541.32,187.8 L539.28,187.8 L539.28,173.56 Z M548.12,176.92 C548.12,176.346664 548.219999,175.840002 548.42,175.4 C548.620001,174.959998 548.883332,174.596668 549.21,174.31 C549.536668,174.023332 549.903331,173.806668 550.31,173.66 C550.716669,173.513333 551.126665,173.44 551.54,173.44 C551.953335,173.44 552.363331,173.513333 552.77,173.66 C553.176669,173.806668 553.543332,174.023332 553.87,174.31 C554.196668,174.596668 554.459999,174.959998 554.66,175.4 C554.860001,175.840002 554.96,176.346664 554.96,176.92 L554.96,177.64 L552.92,177.64 L552.92,176.92 C552.92,176.426664 552.783335,176.063335 552.51,175.83 C552.236665,175.596666 551.913335,175.48 551.54,175.48 C551.166665,175.48 550.843335,175.596666 550.57,175.83 C550.296665,176.063335 550.16,176.426664 550.16,176.92 L550.16,184.44 C550.16,184.933336 550.296665,185.296666 550.57,185.53 C550.843335,185.763335 551.166665,185.88 551.54,185.88 C551.913335,185.88 552.236665,185.763335 552.51,185.53 C552.783335,185.296666 552.92,184.933336 552.92,184.44 L552.92,181.76 L551.3,181.76 L551.3,179.96 L554.96,179.96 L554.96,184.44 C554.96,185.02667 554.860001,185.536665 554.66,185.97 C554.459999,186.403336 554.196668,186.763332 553.87,187.05 C553.543332,187.336668 553.176669,187.553333 552.77,187.7 C552.363331,187.846668 551.953335,187.92 551.54,187.92 C551.126665,187.92 550.716669,187.846668 550.31,187.7 C549.903331,187.553333 549.536668,187.336668 549.21,187.05 C548.883332,186.763332 548.620001,186.403336 548.42,185.97 C548.219999,185.536665 548.12,185.02667 548.12,184.44 L548.12,176.92 Z M559.88,177.66 L559.84,177.66 L558.84,182.82 L560.88,182.82 L559.88,177.66 Z M559.02,173.56 L560.72,173.56 L563.9,187.8 L561.86,187.8 L561.26,184.74 L558.48,184.74 L557.88,187.8 L555.84,187.8 L559.02,173.56 Z M564.78,176.92 C564.78,176.346664 564.879999,175.840002 565.08,175.4 C565.280001,174.959998 565.543332,174.596668 565.87,174.31 C566.196668,174.023332 566.563331,173.806668 566.97,173.66 C567.376669,173.513333 567.786665,173.44 568.2,173.44 C568.613335,173.44 569.023331,173.513333 569.43,173.66 C569.836669,173.806668 570.203332,174.023332 570.53,174.31 C570.856668,174.596668 571.119999,174.959998 571.32,175.4 C571.520001,175.840002 571.62,176.346664 571.62,176.92 L571.62,177.64 L569.58,177.64 L569.58,176.92 C569.58,176.426664 569.443335,176.063335 569.17,175.83 C568.896665,175.596666 568.573335,175.48 568.2,175.48 C567.826665,175.48 567.503335,175.596666 567.23,175.83 C566.956665,176.063335 566.82,176.426664 566.82,176.92 L566.82,184.44 C566.82,184.933336 566.956665,185.296666 567.23,185.53 C567.503335,185.763335 567.826665,185.88 568.2,185.88 C568.573335,185.88 568.896665,185.763335 569.17,185.53 C569.443335,185.296666 569.58,184.933336 569.58,184.44 L569.58,181.76 L567.96,181.76 L567.96,179.96 L571.62,179.96 L571.62,184.44 C571.62,185.02667 571.520001,185.536665 571.32,185.97 C571.119999,186.403336 570.856668,186.763332 570.53,187.05 C570.203332,187.336668 569.836669,187.553333 569.43,187.7 C569.023331,187.846668 568.613335,187.92 568.2,187.92 C567.786665,187.92 567.376669,187.846668 566.97,187.7 C566.563331,187.553333 566.196668,187.336668 565.87,187.05 C565.543332,186.763332 565.280001,186.403336 565.08,185.97 C564.879999,185.536665 564.78,185.02667 564.78,184.44 L564.78,176.92 Z M573.42,173.56 L579.5,173.56 L579.5,175.48 L575.46,175.48 L575.46,179.66 L578.98,179.66 L578.98,181.58 L575.46,181.58 L575.46,185.76 L579.5,185.76 L579.5,187.8 L573.42,187.8 L573.42,173.56 Z M580.82,173.56 L582.78,173.56 L585.4,181.1 L585.44,181.1 L588.04,173.56 L590.02,173.56 L590.02,187.8 L587.98,187.8 L587.98,179.14 L587.94,179.14 L585.92,185.26 L584.9,185.26 L582.9,179.14 L582.86,179.14 L582.86,187.8 L580.82,187.8 L580.82,173.56 Z M591.94,173.56 L598.02,173.56 L598.02,175.48 L593.98,175.48 L593.98,179.66 L597.5,179.66 L597.5,181.58 L593.98,181.58 L593.98,185.76 L598.02,185.76 L598.02,187.8 L591.94,187.8 L591.94,173.56 Z M599.26,173.56 L601.22,173.56 L604.3,182.14 L604.34,182.14 L604.34,173.56 L606.38,173.56 L606.38,187.8 L604.46,187.8 L601.34,179.24 L601.3,179.24 L601.3,187.8 L599.26,187.8 L599.26,173.56 Z M609.56,175.48 L607.2,175.48 L607.2,173.56 L613.96,173.56 L613.96,175.48 L611.6,175.48 L611.6,187.8 L609.56,187.8 L609.56,175.48 Z" id="SOCIAL-" fill="#FFFFFF"></path>
                <path d="M454.620173,66.235385 L457.068173,66.235385 L457.068173,73.555385 L460.092173,73.555385 L460.092173,66.235385 L462.540173,66.235385 L462.540173,83.323385 L460.092173,83.323385 L460.092173,75.715385 L457.068173,75.715385 L457.068173,83.323385 L454.620173,83.323385 L454.620173,66.235385 Z M464.916173,66.235385 L467.364173,66.235385 L467.364173,83.323385 L464.916173,83.323385 L464.916173,66.235385 Z M477.660173,71.155385 L475.212173,71.155385 L475.212173,70.603385 C475.212173,70.0433822 475.080175,69.559387 474.816173,69.151385 C474.552172,68.7433829 474.108176,68.539385 473.484173,68.539385 C473.148172,68.539385 472.872174,68.6033843 472.656173,68.731385 C472.440172,68.8593856 472.272174,69.023384 472.152173,69.223385 C472.032173,69.423386 471.948173,69.6553837 471.900173,69.919385 C471.852173,70.1833863 471.828173,70.4593835 471.828173,70.747385 C471.828173,71.0833867 471.840173,71.3673838 471.864173,71.599385 C471.888173,71.8313861 471.948173,72.0313841 472.044173,72.199385 C472.140174,72.3673858 472.280172,72.5153843 472.464173,72.643385 C472.648174,72.7713856 472.900172,72.8993843 473.220173,73.027385 L475.092173,73.771385 C475.636176,73.979386 476.076172,74.2233836 476.412173,74.503385 C476.748175,74.7833864 477.008172,75.1113831 477.192173,75.487385 C477.376174,75.8633869 477.500173,76.2953825 477.564173,76.783385 C477.628174,77.2713874 477.660173,77.8273819 477.660173,78.451385 C477.660173,79.1713886 477.588174,79.8393819 477.444173,80.455385 C477.300173,81.0713881 477.064175,81.5993828 476.736173,82.039385 C476.408172,82.4793872 475.972176,82.8273837 475.428173,83.083385 C474.884171,83.3393863 474.220177,83.467385 473.436173,83.467385 C472.84417,83.467385 472.292176,83.363386 471.780173,83.155385 C471.268171,82.9473839 470.828175,82.6633868 470.460173,82.303385 C470.092171,81.9433832 469.800174,81.5153875 469.584173,81.019385 C469.368172,80.5233825 469.260173,79.9873879 469.260173,79.411385 L469.260173,78.499385 L471.708173,78.499385 L471.708173,79.267385 C471.708173,79.7153872 471.840172,80.1193832 472.104173,80.479385 C472.368175,80.8393868 472.81217,81.019385 473.436173,81.019385 C473.852175,81.019385 474.176172,80.9593856 474.408173,80.839385 C474.640174,80.7193844 474.816173,80.5513861 474.936173,80.335385 C475.056174,80.1193839 475.132173,79.8513866 475.164173,79.531385 C475.196173,79.2113834 475.212173,78.8593869 475.212173,78.475385 C475.212173,78.0273827 475.196173,77.6593864 475.164173,77.371385 C475.132173,77.0833835 475.064174,76.8513859 474.960173,76.675385 C474.856173,76.4993841 474.712174,76.3553855 474.528173,76.243385 C474.344172,76.1313844 474.100175,76.0113856 473.796173,75.883385 L472.044173,75.163385 C470.988168,74.7313828 470.280175,74.1593885 469.920173,73.447385 C469.560171,72.7353814 469.380173,71.8433903 469.380173,70.771385 C469.380173,70.1313818 469.468172,69.5233879 469.644173,68.947385 C469.820174,68.3713821 470.080172,67.8753871 470.424173,67.459385 C470.768175,67.0433829 471.204171,66.7113862 471.732173,66.463385 C472.260176,66.2153837 472.87617,66.091385 473.580173,66.091385 C474.188176,66.091385 474.744171,66.2033839 475.248173,66.427385 C475.752176,66.6513861 476.184171,66.9473831 476.544173,67.315385 C476.904175,67.6833868 477.180172,68.0953827 477.372173,68.551385 C477.564174,69.0073873 477.660173,69.4753826 477.660173,69.955385 L477.660173,71.155385 Z M481.092173,68.539385 L478.260173,68.539385 L478.260173,66.235385 L486.372173,66.235385 L486.372173,68.539385 L483.540173,68.539385 L483.540173,83.323385 L481.092173,83.323385 L481.092173,68.539385 Z M487.308173,70.267385 C487.308173,69.5793815 487.428172,68.9713876 487.668173,68.443385 C487.908174,67.9153823 488.224171,67.4793867 488.616173,67.135385 C489.008175,66.7913833 489.448171,66.5313859 489.936173,66.355385 C490.424176,66.1793841 490.916171,66.091385 491.412173,66.091385 C491.908176,66.091385 492.400171,66.1793841 492.888173,66.355385 C493.376176,66.5313859 493.816171,66.7913833 494.208173,67.135385 C494.600175,67.4793867 494.916172,67.9153823 495.156173,68.443385 C495.396174,68.9713876 495.516173,69.5793815 495.516173,70.267385 L495.516173,79.291385 C495.516173,79.9953885 495.396174,80.6073824 495.156173,81.127385 C494.916172,81.6473876 494.600175,82.0793833 494.208173,82.423385 C493.816171,82.7673867 493.376176,83.0273841 492.888173,83.203385 C492.400171,83.3793859 491.908176,83.467385 491.412173,83.467385 C490.916171,83.467385 490.424176,83.3793859 489.936173,83.203385 C489.448171,83.0273841 489.008175,82.7673867 488.616173,82.423385 C488.224171,82.0793833 487.908174,81.6473876 487.668173,81.127385 C487.428172,80.6073824 487.308173,79.9953885 487.308173,79.291385 L487.308173,70.267385 Z M489.756173,79.291385 C489.756173,79.8833879 489.920172,80.3193836 490.248173,80.599385 C490.576175,80.8793864 490.964171,81.019385 491.412173,81.019385 C491.860175,81.019385 492.248172,80.8793864 492.576173,80.599385 C492.904175,80.3193836 493.068173,79.8833879 493.068173,79.291385 L493.068173,70.267385 C493.068173,69.675382 492.904175,69.2393864 492.576173,68.959385 C492.248172,68.6793836 491.860175,68.539385 491.412173,68.539385 C490.964171,68.539385 490.576175,68.6793836 490.248173,68.959385 C489.920172,69.2393864 489.756173,69.675382 489.756173,70.267385 L489.756173,79.291385 Z M500.124173,73.867385 L501.516173,73.867385 C501.948175,73.867385 502.292172,73.8073856 502.548173,73.687385 C502.804175,73.5673844 503.000173,73.3953861 503.136173,73.171385 C503.272174,72.9473839 503.364173,72.6713866 503.412173,72.343385 C503.460173,72.0153833 503.484173,71.6353871 503.484173,71.203385 C503.484173,70.7713828 503.460173,70.3913866 503.412173,70.063385 C503.364173,69.7353833 503.264174,69.4553861 503.112173,69.223385 C502.960172,68.9913838 502.748175,68.8193855 502.476173,68.707385 C502.204172,68.5953844 501.844175,68.539385 501.396173,68.539385 L500.124173,68.539385 L500.124173,73.867385 Z M497.676173,66.235385 L501.612173,66.235385 C504.492188,66.235385 505.932173,67.9073683 505.932173,71.251385 C505.932173,72.2433899 505.776175,73.0953814 505.464173,73.807385 C505.152172,74.5193885 504.604177,75.0913828 503.820173,75.523385 L506.460173,83.323385 L503.868173,83.323385 L501.588173,76.027385 L500.124173,76.027385 L500.124173,83.323385 L497.676173,83.323385 L497.676173,66.235385 Z M510.180173,76.099385 L506.820173,66.235385 L509.412173,66.235385 L511.380173,73.027385 L511.428173,73.027385 L513.396173,66.235385 L515.988173,66.235385 L512.628173,76.099385 L512.628173,83.323385 L510.180173,83.323385 L510.180173,76.099385 Z M456.228173,94.939385 L453.396173,94.939385 L453.396173,92.635385 L461.508173,92.635385 L461.508173,94.939385 L458.676173,94.939385 L458.676173,109.723385 L456.228173,109.723385 L456.228173,94.939385 Z M465.036173,100.267385 L466.428173,100.267385 C466.860175,100.267385 467.204172,100.207386 467.460173,100.087385 C467.716175,99.9673844 467.912173,99.7953861 468.048173,99.571385 C468.184174,99.3473839 468.276173,99.0713866 468.324173,98.743385 C468.372173,98.4153833 468.396173,98.0353871 468.396173,97.603385 C468.396173,97.1713828 468.372173,96.7913866 468.324173,96.463385 C468.276173,96.1353833 468.176174,95.8553861 468.024173,95.623385 C467.872172,95.3913838 467.660175,95.2193855 467.388173,95.107385 C467.116172,94.9953844 466.756175,94.939385 466.308173,94.939385 L465.036173,94.939385 L465.036173,100.267385 Z M462.588173,92.635385 L466.524173,92.635385 C469.404188,92.635385 470.844173,94.3073683 470.844173,97.651385 C470.844173,98.6433899 470.688175,99.4953814 470.376173,100.207385 C470.064172,100.919389 469.516177,101.491383 468.732173,101.923385 L471.372173,109.723385 L468.780173,109.723385 L466.500173,102.427385 L465.036173,102.427385 L465.036173,109.723385 L462.588173,109.723385 L462.588173,92.635385 Z M476.556173,97.555385 L476.508173,97.555385 L475.308173,103.747385 L477.756173,103.747385 L476.556173,97.555385 Z M475.524173,92.635385 L477.564173,92.635385 L481.380173,109.723385 L478.932173,109.723385 L478.212173,106.051385 L474.876173,106.051385 L474.156173,109.723385 L471.708173,109.723385 L475.524173,92.635385 Z M482.580173,92.635385 L486.204173,92.635385 C487.59618,92.635385 488.66017,93.0233811 489.396173,93.799385 C490.132177,94.5753889 490.500173,95.659378 490.500173,97.051385 L490.500173,105.043385 C490.500173,106.643393 490.112177,107.823381 489.336173,108.583385 C488.560169,109.343389 487.444181,109.723385 485.988173,109.723385 L482.580173,109.723385 L482.580173,92.635385 Z M485.028173,107.419385 L486.156173,107.419385 C486.844177,107.419385 487.332172,107.247387 487.620173,106.903385 C487.908175,106.559383 488.052173,106.019389 488.052173,105.283385 L488.052173,97.051385 C488.052173,96.3793816 487.916175,95.8593868 487.644173,95.491385 C487.372172,95.1233831 486.876177,94.939385 486.156173,94.939385 L485.028173,94.939385 L485.028173,107.419385 Z M492.876173,92.635385 L495.324173,92.635385 L495.324173,109.723385 L492.876173,109.723385 L492.876173,92.635385 Z M499.308173,94.939385 L496.476173,94.939385 L496.476173,92.635385 L504.588173,92.635385 L504.588173,94.939385 L501.756173,94.939385 L501.756173,109.723385 L499.308173,109.723385 L499.308173,94.939385 Z M505.740173,92.635385 L508.188173,92.635385 L508.188173,109.723385 L505.740173,109.723385 L505.740173,92.635385 Z M510.420173,96.667385 C510.420173,95.9793815 510.540172,95.3713876 510.780173,94.843385 C511.020174,94.3153823 511.336171,93.8793867 511.728173,93.535385 C512.120175,93.1913833 512.560171,92.9313859 513.048173,92.755385 C513.536176,92.5793841 514.028171,92.491385 514.524173,92.491385 C515.020176,92.491385 515.512171,92.5793841 516.000173,92.755385 C516.488176,92.9313859 516.928171,93.1913833 517.320173,93.535385 C517.712175,93.8793867 518.028172,94.3153823 518.268173,94.843385 C518.508174,95.3713876 518.628173,95.9793815 518.628173,96.667385 L518.628173,105.691385 C518.628173,106.395389 518.508174,107.007382 518.268173,107.527385 C518.028172,108.047388 517.712175,108.479383 517.320173,108.823385 C516.928171,109.167387 516.488176,109.427384 516.000173,109.603385 C515.512171,109.779386 515.020176,109.867385 514.524173,109.867385 C514.028171,109.867385 513.536176,109.779386 513.048173,109.603385 C512.560171,109.427384 512.120175,109.167387 511.728173,108.823385 C511.336171,108.479383 511.020174,108.047388 510.780173,107.527385 C510.540172,107.007382 510.420173,106.395389 510.420173,105.691385 L510.420173,96.667385 Z M512.868173,105.691385 C512.868173,106.283388 513.032172,106.719384 513.360173,106.999385 C513.688175,107.279386 514.076171,107.419385 514.524173,107.419385 C514.972175,107.419385 515.360172,107.279386 515.688173,106.999385 C516.016175,106.719384 516.180173,106.283388 516.180173,105.691385 L516.180173,96.667385 C516.180173,96.075382 516.016175,95.6393864 515.688173,95.359385 C515.360172,95.0793836 514.972175,94.939385 514.524173,94.939385 C514.076171,94.939385 513.688175,95.0793836 513.360173,95.359385 C513.032172,95.6393864 512.868173,96.075382 512.868173,96.667385 L512.868173,105.691385 Z M520.692173,92.635385 L523.044173,92.635385 L526.740173,102.931385 L526.788173,102.931385 L526.788173,92.635385 L529.236173,92.635385 L529.236173,109.723385 L526.932173,109.723385 L523.188173,99.451385 L523.140173,99.451385 L523.140173,109.723385 L520.692173,109.723385 L520.692173,92.635385 Z M462.396173,132.307385 C462.396173,132.835388 462.296174,133.339383 462.096173,133.819385 C461.896172,134.299387 461.620175,134.719383 461.268173,135.079385 C460.916171,135.439387 460.504176,135.727384 460.032173,135.943385 C459.560171,136.159386 459.052176,136.267385 458.508173,136.267385 C458.044171,136.267385 457.572176,136.203386 457.092173,136.075385 C456.612171,135.947384 456.180175,135.727387 455.796173,135.415385 C455.412171,135.103383 455.096174,134.691388 454.848173,134.179385 C454.600172,133.667382 454.476173,133.019389 454.476173,132.235385 L454.476173,122.827385 C454.476173,122.267382 454.572172,121.747387 454.764173,121.267385 C454.956174,120.787383 455.228171,120.371387 455.580173,120.019385 C455.932175,119.667383 456.352171,119.391386 456.840173,119.191385 C457.328176,118.991384 457.86817,118.891385 458.460173,118.891385 C459.020176,118.891385 459.540171,118.991384 460.020173,119.191385 C460.500176,119.391386 460.916171,119.671383 461.268173,120.031385 C461.620175,120.391387 461.896172,120.823382 462.096173,121.327385 C462.296174,121.831388 462.396173,122.379382 462.396173,122.971385 L462.396173,123.931385 L459.948173,123.931385 L459.948173,123.115385 C459.948173,122.635383 459.812175,122.219387 459.540173,121.867385 C459.268172,121.515383 458.900176,121.339385 458.436173,121.339385 C457.82817,121.339385 457.424174,121.527383 457.224173,121.903385 C457.024172,122.279387 456.924173,122.755382 456.924173,123.331385 L456.924173,132.067385 C456.924173,132.563387 457.032172,132.979383 457.248173,133.315385 C457.464174,133.651387 457.85217,133.819385 458.412173,133.819385 C458.572174,133.819385 458.744172,133.791385 458.928173,133.735385 C459.112174,133.679385 459.280172,133.587386 459.432173,133.459385 C459.584174,133.331384 459.708173,133.155386 459.804173,132.931385 C459.900174,132.707384 459.948173,132.427387 459.948173,132.091385 L459.948173,131.251385 L462.396173,131.251385 L462.396173,132.307385 Z M472.308173,132.283385 C472.308173,132.843388 472.204174,133.363383 471.996173,133.843385 C471.788172,134.323387 471.504175,134.743383 471.144173,135.103385 C470.784171,135.463387 470.364176,135.747384 469.884173,135.955385 C469.404171,136.163386 468.892176,136.267385 468.348173,136.267385 C467.804171,136.267385 467.292176,136.163386 466.812173,135.955385 C466.332171,135.747384 465.912175,135.463387 465.552173,135.103385 C465.192171,134.743383 464.908174,134.323387 464.700173,133.843385 C464.492172,133.363383 464.388173,132.843388 464.388173,132.283385 L464.388173,119.035385 L466.836173,119.035385 L466.836173,132.043385 C466.836173,132.651388 466.980172,133.099384 467.268173,133.387385 C467.556175,133.675386 467.916171,133.819385 468.348173,133.819385 C468.780175,133.819385 469.140172,133.675386 469.428173,133.387385 C469.716175,133.099384 469.860173,132.651388 469.860173,132.043385 L469.860173,119.035385 L472.308173,119.035385 L472.308173,132.283385 Z M474.612173,119.035385 L477.060173,119.035385 L477.060173,133.675385 L481.908173,133.675385 L481.908173,136.123385 L474.612173,136.123385 L474.612173,119.035385 Z M485.100173,121.339385 L482.268173,121.339385 L482.268173,119.035385 L490.380173,119.035385 L490.380173,121.339385 L487.548173,121.339385 L487.548173,136.123385 L485.100173,136.123385 L485.100173,121.339385 Z M499.380173,132.283385 C499.380173,132.843388 499.276174,133.363383 499.068173,133.843385 C498.860172,134.323387 498.576175,134.743383 498.216173,135.103385 C497.856171,135.463387 497.436176,135.747384 496.956173,135.955385 C496.476171,136.163386 495.964176,136.267385 495.420173,136.267385 C494.876171,136.267385 494.364176,136.163386 493.884173,135.955385 C493.404171,135.747384 492.984175,135.463387 492.624173,135.103385 C492.264171,134.743383 491.980174,134.323387 491.772173,133.843385 C491.564172,133.363383 491.460173,132.843388 491.460173,132.283385 L491.460173,119.035385 L493.908173,119.035385 L493.908173,132.043385 C493.908173,132.651388 494.052172,133.099384 494.340173,133.387385 C494.628175,133.675386 494.988171,133.819385 495.420173,133.819385 C495.852175,133.819385 496.212172,133.675386 496.500173,133.387385 C496.788175,133.099384 496.932173,132.651388 496.932173,132.043385 L496.932173,119.035385 L499.380173,119.035385 L499.380173,132.283385 Z M504.132173,126.667385 L505.524173,126.667385 C505.956175,126.667385 506.300172,126.607386 506.556173,126.487385 C506.812175,126.367384 507.008173,126.195386 507.144173,125.971385 C507.280174,125.747384 507.372173,125.471387 507.420173,125.143385 C507.468173,124.815383 507.492173,124.435387 507.492173,124.003385 C507.492173,123.571383 507.468173,123.191387 507.420173,122.863385 C507.372173,122.535383 507.272174,122.255386 507.120173,122.023385 C506.968172,121.791384 506.756175,121.619386 506.484173,121.507385 C506.212172,121.395384 505.852175,121.339385 505.404173,121.339385 L504.132173,121.339385 L504.132173,126.667385 Z M501.684173,119.035385 L505.620173,119.035385 C508.500188,119.035385 509.940173,120.707368 509.940173,124.051385 C509.940173,125.04339 509.784175,125.895381 509.472173,126.607385 C509.160172,127.319389 508.612177,127.891383 507.828173,128.323385 L510.468173,136.123385 L507.876173,136.123385 L505.596173,128.827385 L504.132173,128.827385 L504.132173,136.123385 L501.684173,136.123385 L501.684173,119.035385 Z M511.908173,119.035385 L519.204173,119.035385 L519.204173,121.339385 L514.356173,121.339385 L514.356173,126.355385 L518.580173,126.355385 L518.580173,128.659385 L514.356173,128.659385 L514.356173,133.675385 L519.204173,133.675385 L519.204173,136.123385 L511.908173,136.123385 L511.908173,119.035385 Z" id="HISTORY" fill="#FFFFFF" transform="translate(491.316173, 101.179385) rotate(-31.000000) translate(-491.316173, -101.179385) "></path>
            </g>
        </g>
    </g>
</svg>